<svg id="Layer_1" data-name="Layer 1" xmlns="http://www.w3.org/2000/svg" viewBox="0 0 81.78015 66.93434"><defs><style>.cls-1,.cls-3,.cls-4{fill:none;stroke:#3c435c;}.cls-1{stroke-linecap:round;stroke-linejoin:round;stroke-width:1.27931px;}.cls-2{fill:#bbc2db;}.cls-3,.cls-4{stroke-miterlimit:10;}.cls-3{stroke-width:1.31177px;}.cls-5{fill:#3c435c;}</style></defs><title>steps_2_sb</title><path class="cls-1" d="M879.53421,587.78918" transform="translate(-856.71985 -549.44434)"/><path class="cls-2" d="M902.35421,566.755a9.59892,9.59892,0,0,0-4.85469,1.30942A9.6468,9.6468,0,0,0,883,576.40014c0,6.25285,7.92874,12.07033,12.059,14.67769-.00588-.44687-.00889-.891-.02242-1.31818a18.75481,18.75481,0,0,1,.366-4.525,1.23166,1.23166,0,0,1,1.3045-1.03868,1.389,1.389,0,0,1,.80732-.24012,1.31876,1.31876,0,0,1,1.11087.53712,1.45245,1.45245,0,0,1,.73881,1.165,31.48883,31.48883,0,0,1,.08328,5.71683C903.39972,588.92226,912,582.84607,912,576.40014A9.64542,9.64542,0,0,0,902.35421,566.755Z" transform="translate(-856.71985 -549.44434)"/><path class="cls-3" d="M912.103,607.2505a.23686.23686,0,0,0-.01931.06438c-.03863.2372-.09161.4744-.14906.73487a22.30631,22.30631,0,0,1-1.62968,4.8019.17631.17631,0,0,0-.01882.04705l-.01492.03122a4.95689,4.95689,0,0,1-4.4787,2.79287h-6.64428a5.04207,5.04207,0,0,1-4.28314-2.38179l-6.418-10.33332a.19835.19835,0,0,0-.00842-.02179l-.04754-.07181a1.5114,1.5114,0,0,1-.14707-.23323l-.02229-.03566a1.62905,1.62905,0,0,1-.184-.82192,1.69937,1.69937,0,0,1,1.63274-1.61821,1.64732,1.64732,0,0,1,1.05645.33655,1.3962,1.3962,0,0,1,.257.23324l.01139.00891.00792.0104,3.41288,3.09794a.24867.24867,0,0,0,.03764.02327.19557.19557,0,0,0,.12875.0411.24549.24549,0,0,0,.09755-.0203l.0099-.00644a.24752.24752,0,0,0,.07181-.0515l.00445-.003a.179.179,0,0,0,.01734-.02971.2298.2298,0,0,0,.02921-.04853.20719.20719,0,0,0,.0104-.0515.2289.2289,0,0,0,.00743-.03665V586.42212l-.001-.00644a2.22962,2.22962,0,0,1,4.45923,0l-.00149.00644V599.367a.2476.2476,0,0,0,.4952,0V595.5134l.002-.00891a1.961,1.961,0,0,1,3.92194,0v3.194a.2476.2476,0,1,0,.49519,0v-1.88917a2.05023,2.05023,0,0,1,4.09576,0l.001.005v1.37763l-.001.0099.001.005v1.42072a.2476.2476,0,0,0,.49519,0v-1.43557a1.84658,1.84658,0,1,1,3.68772.0099V603.285A22.45509,22.45509,0,0,1,912.103,607.2505Z" transform="translate(-856.71985 -549.44434)"/><path class="cls-4" d="M873.09044,569.28542a14.10024,14.10024,0,0,0-3.98092,1.07361,14.09627,14.09627,0,0,0-3.9805-1.07361,7.90915,7.90915,0,0,0-7.90917,7.90915c0,6.93169,11.88967,13.217,11.88967,13.217S881,584.056,881,577.19457A7.90948,7.90948,0,0,0,873.09044,569.28542Z" transform="translate(-856.71985 -549.44434)"/><path class="cls-4" d="M930.09044,569.28542a14.10024,14.10024,0,0,0-3.98092,1.07361,14.09627,14.09627,0,0,0-3.9805-1.07361,7.90915,7.90915,0,0,0-7.90917,7.90915c0,6.93169,11.88967,13.217,11.88967,13.217S938,584.056,938,577.19457A7.90948,7.90948,0,0,0,930.09044,569.28542Z" transform="translate(-856.71985 -549.44434)"/><path class="cls-5" d="M928.73438,564.84473v2.625h-11.9502v-2.375l6.05029-6.52539a10.254,10.254,0,0,0,1.57471-2.14942,4.19539,4.19539,0,0,0,.5-1.92578,2.32946,2.32946,0,0,0-.7124-1.84961,2.99894,2.99894,0,0,0-2.0376-.625,8.10627,8.10627,0,0,0-4.82471,1.84961l-1.07519-2.34961a7.653,7.653,0,0,1,2.70019-1.51269,10.24078,10.24078,0,0,1,3.32471-.5625,6.382,6.382,0,0,1,4.23779,1.3125,4.38412,4.38412,0,0,1,1.5625,3.53808,6.4454,6.4454,0,0,1-.66259,2.875,13.32148,13.32148,0,0,1-2.21241,3.02442l-4.375,4.65039Z" transform="translate(-856.71985 -549.44434)"/></svg>