<svg id="Layer_1" data-name="Layer 1" xmlns="http://www.w3.org/2000/svg" xmlns:xlink="http://www.w3.org/1999/xlink" width="857" height="1775.90543" viewBox="0 0 857 1775.90543"><defs><style>.cls-1,.cls-10,.cls-25,.cls-29,.cls-32,.cls-34,.cls-40,.cls-42,.cls-47,.cls-52,.cls-57,.cls-58,.cls-60,.cls-68,.cls-76,.cls-80,.cls-83,.cls-85{fill:none;}.cls-1{clip-rule:evenodd;}.cls-2,.cls-43{fill:#534752;}.cls-3{fill:#8e3923;}.cls-4{fill:#fdfeff;}.cls-5{fill:#345d95;}.cls-6{fill:#d3b01c;}.cls-7{fill:#f9d641;}.cls-8{fill:#fd0038;}.cls-9{fill:#ec8740;}.cls-11{fill:#380002;}.cls-12{fill:#ffece1;}.cls-13{fill:#302830;}.cls-14{fill:#606060;}.cls-15{fill:#e0c6b3;}.cls-16{fill:#dbedff;stroke:#1e2742;stroke-width:55px;}.cls-16,.cls-25,.cls-29,.cls-32,.cls-34,.cls-42,.cls-47,.cls-52,.cls-57,.cls-58,.cls-60,.cls-68,.cls-76,.cls-80,.cls-85{stroke-miterlimit:10;}.cls-17{clip-path:url(#clip-path);}.cls-18{clip-path:url(#clip-path-2);}.cls-19{fill:#1d2643;}.cls-20{clip-path:url(#clip-path-3);}.cls-21{clip-path:url(#clip-path-4);}.cls-22{fill:#fff;}.cls-23{clip-path:url(#clip-path-5);}.cls-24{clip-path:url(#clip-path-6);}.cls-25,.cls-32{stroke:#000;}.cls-26{clip-path:url(#clip-path-7);}.cls-27{fill:#443b43;}.cls-28{clip-path:url(#clip-path-8);}.cls-29,.cls-80{stroke:#b39786;}.cls-29,.cls-34,.cls-52,.cls-83{stroke-width:2px;}.cls-30{clip-path:url(#clip-path-9);}.cls-31{fill:#f26786;}.cls-32,.cls-57{stroke-width:3px;}.cls-33{clip-path:url(#clip-path-10);}.cls-34{stroke:#302830;}.cls-35{clip-path:url(#clip-path-11);}.cls-36{fill:#4c1c14;}.cls-37{fill:#a1472a;}.cls-38{fill:#d08168;}.cls-39{fill:#2a5384;}.cls-40{stroke:#fdfeff;}.cls-40,.cls-83,.cls-85{stroke-linecap:round;}.cls-40,.cls-83{stroke-linejoin:round;}.cls-41{clip-path:url(#clip-path-12);}.cls-42{stroke:#534752;}.cls-43{opacity:0.29;}.cls-44{clip-path:url(#clip-path-13);}.cls-45{fill:#98c2f4;}.cls-46{fill:#254d7c;}.cls-47,.cls-60,.cls-85{stroke:#fff;}.cls-47{opacity:0.24;}.cls-48{fill:#0096aa;}.cls-49{fill:#00848e;}.cls-50{fill:#00cad4;}.cls-51{clip-path:url(#clip-path-14);}.cls-52{stroke:#0096aa;}.cls-53{fill:#bb510b;}.cls-54{fill:#00a85c;}.cls-55{fill:#00bc6b;}.cls-56{fill:#00dd83;}.cls-57{stroke:#00bc6b;}.cls-58{stroke:#bb510b;}.cls-59{clip-path:url(#clip-path-15);}.cls-61{clip-path:url(#clip-path-16);}.cls-62{clip-path:url(#clip-path-17);}.cls-63{fill:#dd003a;}.cls-64{fill:#ff4576;}.cls-65{fill:#be131d;}.cls-66{clip-path:url(#clip-path-18);}.cls-67{clip-path:url(#clip-path-19);}.cls-68{stroke:#d3b01c;}.cls-69{clip-path:url(#clip-path-20);}.cls-70{fill:#0b0100;}.cls-71{fill:#600;}.cls-72{clip-path:url(#clip-path-21);}.cls-73{clip-path:url(#clip-path-22);}.cls-74{clip-path:url(#clip-path-23);}.cls-75{fill:#ffa466;}.cls-76{stroke:#0b0100;}.cls-77{fill:#b39786;}.cls-78{clip-path:url(#clip-path-24);}.cls-79{fill:#5e93d3;}.cls-81{fill:#efada3;}.cls-82{fill:#bbc2db;}.cls-83{stroke:#3c435c;}.cls-84{fill:#3c435c;}.cls-85{stroke-width:4.9px;}</style><clipPath id="clip-path"><path id="SVGID" class="cls-1" d="M223.881,7.66128H653v58.26A48.23668,48.23668,0,0,1,604.76329,114.158H272.11778A48.23671,48.23671,0,0,1,223.881,65.92124Z"/></clipPath><clipPath id="clip-path-2"><rect id="SVGID-2" data-name="SVGID" class="cls-10" x="-1.64133" y="-4.86774" width="842.57664" height="1365.66326"/></clipPath><clipPath id="clip-path-3"><circle id="SVGID-3" data-name="SVGID" class="cls-10" cx="512.83271" cy="82.79437" r="12.43866"/></clipPath><clipPath id="clip-path-4"><rect id="SVGID-4" data-name="SVGID" class="cls-10" x="-86" y="-0.72236" width="956" height="1549.50186"/></clipPath><clipPath id="clip-path-5"><path class="cls-13" d="M470.246,1575.41646c-13.272,12.38112-17.446,28.58505-4.93462,41.73439,11.87336,12.4788,27.55306,27.982,41.84193,39.49861,3.0295,2.44173,6.1877,4.94926,9.96122,5.8982s10.39448-13.55552,8.64455-16.22156c-7.90556-12.04424-28.03-32.09584-33.82853-38.4366-4.64153-5.07558,11.09535-13.08245,11.09535-13.08245,8.17827-8.60256,7.65831-8.97082,15.83658-17.57338,2.96579-3.11966,6.15642-6.90693,5.49529-11.16029-.45922-2.95434-2.69323-5.27119-4.81554-7.37707-5.334-5.29273,3.83869-12.28007-4.01982-12.23727-6.66109.03628-4.86228.3049-10.35248,3.88837C502.71376,1551.95057,483.44862,1563.10009,470.246,1575.41646Z"/></clipPath><clipPath id="clip-path-6"><path class="cls-14" d="M479.3912,1356.5197l7.9513,24.39333c10.38011-1.38082,20.91036-2.92638,31.29047-4.3072a17.78525,17.78525,0,0,1,8.70653-8.58031,10.56149,10.56149,0,0,1,5.04945-1.07064c3.56556.26007,6.57053,3.15286,7.73884,6.5316a17.17509,17.17509,0,0,1-.28337,10.54286c1.77074-2.69618,6.564-2.36913,7.95213.54258a8.07869,8.07869,0,0,1,.50366,4.02973,32.92142,32.92142,0,0,1-5.42076,15.96688c4.69738-.24107,8.84816,3.96624,9.56548,8.61478s-1.23722,8.23718-4.40336,11.71554c6.46463,24.27392-9.61311,51.24812-24.03962,86.01118-27.35241,1.61955-31.30934,9.88276-52.17026-7.88235-.31773-5.10507-1.87506-41.03949-1.87506-41.03949l-6.50727-24.5884c-3.79434,1.42255-8.04935.68563-10.59067-2.47069s-2.386-8.29379.6204-11.01085c-5.02637,1.12378-10.05773-1.39848-13.54431-5.1894-4.884-5.31035-3.21321-13.40259,1.007-16.35513,0,0-7.9505-2.60667-9.40059-9.04283-3.32429-14.75476,24.42787-36.9484,43.25806-39.71835A4.22489,4.22489,0,0,1,479.3912,1356.5197Z"/></clipPath><clipPath id="clip-path-7"><path class="cls-15" d="M524.83792,1404.68549a28.876,28.876,0,0,0-15.78964,16.25725,12.02646,12.02646,0,0,1-2.00893,4.03723,10.35356,10.35356,0,0,1-2.99956,2.00645c-4.96427,2.56862-10.00812,5.762-12.4352,10.797s-.96917,12.28724,4.24541,14.29972a12.34453,12.34453,0,0,0-5.82342,15.04868,15.43493,15.43493,0,0,0,5.09043,6.4125c5.58724,4.2983,13.13923,5.60828,20.07148,4.329s13.26431-4.961,18.49985-9.68138c7.50576-6.76717,13.14833-16.61482,11.80573-26.63123a8.45394,8.45394,0,0,0,5.28772-10.04642c-.37122-1.25845.86121-2.81839.37794-4.0382a14.58062,14.58062,0,0,0-3.895-4.92932C540.353,1416.02121,533.12105,1409.34853,524.83792,1404.68549Z"/></clipPath><clipPath id="clip-path-8"><path class="cls-2" d="M544.093,1485.47445s118.729,150.42758,101.736,110.79363c0,0-24.12931-9.68715-44.158.36428s-49.0154,23.37063-75.41962,18.91538-51.83076-52.28259-54.35693-98.26649S544.093,1485.47445,544.093,1485.47445Z"/></clipPath><clipPath id="clip-path-9"><path class="cls-2" d="M498.256,1565.83769s8.58166,133.64523,9.05736,135.024c.26266.76127-16.62479.06124-12.76217,16.34221.63907.10029,35.77079-.009,35.77079-.009-.86975-16.48765,23.72774-121.70046,23.72774-121.70046Z"/></clipPath><clipPath id="clip-path-10"><path class="cls-2" d="M545.06,1486.3647S696.6382,1534.533,700.85385,1718.75412l-165.1214-1.67067s-.83682-24.099,12.50619-27.78436,41.93518-1.19243,41.93518-1.19243-54.965-12.3382-34.3106-89.89114C575.66594,1523.86056,545.06,1486.3647,545.06,1486.3647Z"/></clipPath><clipPath id="clip-path-11"><rect class="cls-3" x="346.90616" y="1257.34551" width="15.67117" height="448.74201"/></clipPath><clipPath id="clip-path-12"><path class="cls-4" d="M357.05507,1244.60451l.56641-10.02454a4.59548,4.59548,0,0,1,.27129-1.56,4.78539,4.78539,0,0,1,1.17661-1.47,60.003,60.003,0,0,0,16.02312-27.0121,1.36479,1.36479,0,0,0-1.66377-1.68887c-1.97721.54561-3.91373,1.24716-5.84395,1.94692l-20.62553,7.47731a1.18736,1.18736,0,0,1-.8032.09167c-.42752-.15978-.51586-.715-.53617-1.171l-.40878-9.18114a.71981.71981,0,0,0-1.30536-.38562l-14.09131,19.78091c-2.38677,3.35046-4.77723,6.70568-7.44133,9.84014-3.80905,4.48155-8.17912,8.324-11.45682,13.20766Z"/></clipPath><clipPath id="clip-path-13"><path class="cls-5" d="M763.71882,1636.05917l9.81373,21.08526s11.4631,13.379,13.16587,24.71036c0,0,7.7,6.43342,3.87926,10.47637-2.61148,2.76336-30.51557,17.31346-54.96042,28.25874,0,0-38.23689,3.88568-41.47816.8804s-.48226-5.5375-.48226-5.5375-4.58473-5.32713-.57449-11.18854c2.43563-3.55995,12.93508-.90418,26.11118-10.12191s26.074-19.10267,27.08638-26.26905a53.60409,53.60409,0,0,0-9.15444-21.57184c-7.76479-11.00331,26.59335-10.72229,26.59335-10.72229"/></clipPath><clipPath id="clip-path-14"><path class="cls-5" d="M632.04982,1663.63972l-.1982,23.25636s4.60237,17.00639,1.2711,27.9701c0,0,4.18867,9.11777-.99854,11.12681s-70.1021,3.53769-92.7269-.25033c0,0-7.91329-1.03552-9.5488-5.14194s1.94386-5.20748,1.94386-5.20748-6.14281-5.75844-.64412-10.25317c7.70284-6.29645,63.29185-7.7601,71.27855-19.83238a53.60411,53.60411,0,0,0,1.00259-23.41245c-2.28361-13.27215,28.62046,1.74448,28.62046,1.74448"/></clipPath><clipPath id="clip-path-15"><path class="cls-6" d="M596.40157,1058.48316l-95.5809,58.00193-71.42161-68.87923-16.20519,29.42434s60.44591,81.64428,75.37765,81.66732c33.3404.05144,103.38163-33.119,103.38163-33.119l4.44842-67.09538"/></clipPath><clipPath id="clip-path-16"><path class="cls-7" d="M589.68878,1233.33179s43.03227,5.71843,97.35741-20.33221c0,0-27.70822-32.48172-12.3899-85.97011,4.28832-14.97391,10.71286-44.51218,4.13-59.88963s-27.60229-16.93138-40.41878-16.251c-23.86628,1.267-78.91079,4.64592-66.96068,61.72045C577.88215,1143.536,589.68878,1233.33179,589.68878,1233.33179Z"/></clipPath><clipPath id="clip-path-17"><path class="cls-8" d="M494.15849,1018.1255l7.25348,52.53276,35.19568-4.28612-7.1559-54.49733a4.86055,4.86055,0,0,0-5.74042-4.13965l-25.65921,4.95308A4.86055,4.86055,0,0,0,494.15849,1018.1255Z"/></clipPath><clipPath id="clip-path-18"><path class="cls-9" d="M533.55208,1042.93574l1.53046,11.26725s-16.21174-5.03036-39.83537-22.66248c0,0-7.12754.51863-2.90114,8.80149,0,0-4.98566,3.94129.79089,10.49459,0,0-5.295,4.71961,2.73831,12.91032,0,0-2.73369,5.62349,2.1973,9.64914s15.707,12.96478,40.78675,19.6767,10.28118-27.15184,10.28118-27.15184l-3.91224-3.8352s-1.982-10.50518-3.376-13.85892C539.13649,1041.6933,533.55208,1042.93574,533.55208,1042.93574Z"/></clipPath><clipPath id="clip-path-19"><path class="cls-7" d="M683.00834,1072.82951a28.31867,28.31867,0,0,1-.49376,16.54c-8.28572,24.63006-38.11819,107.84534-62.07315,105.01908-28.10362-3.31574-97.02474-106.90106-97.02474-106.90106l29.03836-24.442,62.0274,69.97828,32.40177-64.44534a21.23424,21.23424,0,0,1,18.20449-11.87289C671.95806,1056.51978,679.41619,1059.78459,683.00834,1072.82951Z"/></clipPath><clipPath id="clip-path-20"><path class="cls-11" d="M641.86682,912.48319a16.35565,16.35565,0,0,0,15.79758,7.76063,20.76922,20.76922,0,0,0,5.60109-1.6258,19.48772,19.48772,0,0,0,7.76313-5.67594c4.48233-5.777,3.88356-14.3002.37433-20.71506a17.15754,17.15754,0,0,0-5.82874-6.54606,14.452,14.452,0,0,0-13.57407-.362C642.806,889.7349,636.39751,903.15359,641.86682,912.48319Z"/></clipPath><clipPath id="clip-path-21"><path class="cls-11" d="M649.12892,964.34887c-1.55226-7.11142-3.93024-14.48061-9.38241-19.303-3.67855-3.25366-8.45531-5.04069-13.27945-5.96028-17.3925-3.3154-33.485,9.04721-43.00488,23.97583-1.6297-4.61012-5.582-12.7851-5.86472-17.66661a18.05907,18.05907,0,0,1,1.13676-8.56663c1.40353-3.07455,4.14174-5.31014,6.902-7.26039,7.25332-5.1247,15.2628-9.06333,23.23387-12.97934,8.871-4.35813,18.50953-8.83745,28.24484-7.13111,8.60948,1.509,15.6211,7.602,21.84014,13.744a271.14853,271.14853,0,0,1,22.48666,25.16c3.63757,4.61921,3.87572,11.04573,4.60489,16.87988l7.15785,57.27047a487.99086,487.99086,0,0,1-112.50776-.65676c-4.16325-8.96793-4.63234-19.165-4.61946-29.05214.01106-8.49035.67658-34.48063,6.10521-41.00873,2.44005-2.93423,5.60121,11.71273,9.03853,10.05489,8.94548-4.31446,19.20186-5.42188,29.08424-4.43469A111.24251,111.24251,0,0,1,649.12892,964.34887Z"/></clipPath><clipPath id="clip-path-22"><path class="cls-9" d="M620.15358,1008.38685s.85676,28.63524-5.86925,37.58818-12.37444,25.35728,1.945,29.52243,28.65078-19.87707,29.86291-24.425a27.02077,27.02077,0,0,1-5.33048-3.47425c-1.84956-1.75168-2.15146-16.95026-.8574-23.93519s-13.89479-19.35273-19.75082-15.27621"/></clipPath><clipPath id="clip-path-23"><path class="cls-9" d="M581.0576,957.27461s-2.10484,29.20371,2.50906,43.06532c3.12742,9.39573,11.76593,27.38959,19.66811,32.20735a18.99973,18.99973,0,0,0,17.37352,1.604c16.50474-6.83643,32.99882-21.853,35.88239-27.3101s2.48436-18.62774,2.48436-18.62774-3.46633-20.9276-6.92374-29.2658C640.79622,931.80391,597.08593,929.8395,581.0576,957.27461Z"/></clipPath><clipPath id="clip-path-24"><path class="cls-12" d="M153.21923,1578.32358s-14.81455,24.00338-36.66,32.74622c-31.9808,12.79917-71.52544,51.7907-31.80671,106.52726l102.57125-.00969c4.41533-1.13427,6.95673-11.86984-1.52182-15.67533-6.30612-2.83043,6.09848-41.434,11.73707-86.30179.41509-3.303,2.17767-15.85354,1.53423-18.61726C193.66692,1573.77113,153.21923,1578.32358,153.21923,1578.32358Z"/></clipPath></defs><title>device_for_site_final</title><path class="cls-16" d="M825,1614.199c0,71.56532-49.06294,129.58055-109.5854,129.58055H145.57053c-60.52236,0-109.5854-58.01523-109.5854-129.58055V163.59792c0-71.56533,49.063-129.58056,109.5854-129.58056H715.4146C775.93706,34.01736,825,92.03259,825,163.59792V1614.199Z"/><rect id="SVGID-5" data-name="SVGID" class="cls-10" x="256.32714" y="23.49326" width="493.99257" height="127.94052"/><g class="cls-17"><g class="cls-18"><rect class="cls-19" x="208.21977" y="-8" width="460.44151" height="137.81923"/></g></g><g class="cls-20"><g class="cls-21"><rect class="cls-22" x="482.62454" y="52.58619" width="60.41636" height="60.41636"/></g></g><path class="cls-13" d="M470.246,1575.41646c-13.272,12.38112-17.446,28.58505-4.93462,41.73439,11.87336,12.4788,27.55306,27.982,41.84193,39.49861,3.0295,2.44173,6.1877,4.94926,9.96122,5.8982s10.39448-13.55552,8.64455-16.22156c-7.90556-12.04424-28.03-32.09584-33.82853-38.4366-4.64153-5.07558,11.09535-13.08245,11.09535-13.08245,8.17827-8.60256,7.65831-8.97082,15.83658-17.57338,2.96579-3.11966,6.15642-6.90693,5.49529-11.16029-.45922-2.95434-2.69323-5.27119-4.81554-7.37707-5.334-5.29273,3.83869-12.28007-4.01982-12.23727-6.66109.03628-4.86228.3049-10.35248,3.88837C502.71376,1551.95057,483.44862,1563.10009,470.246,1575.41646Z"/><g class="cls-23"><path class="cls-2" d="M455.26016,1561.3356c11.60783-2.49,20.58484,9.73683,27.73106,19.217s14.27821,16.61211,22.47348,25.20161c9.05314,9.48864,21.5083,14.83543,32.18328,22.45373s20.25854,19.44071,18.67068,32.45886c-1.69119,13.86536-15.26769,23.16352-28.52847,27.55216a94.57145,94.57145,0,0,1-50.81832,2.31883c-21.22793-4.9347-40.90266-17.85213-52.08487-36.55866s-13.03784-43.19238-2.95515-62.51375,32.51216-32.04031,54.07407-28.86857"/></g><path class="cls-14" d="M479.3912,1356.5197l7.9513,24.39333c10.38011-1.38082,20.91036-2.92638,31.29047-4.3072a17.78525,17.78525,0,0,1,8.70653-8.58031,10.56149,10.56149,0,0,1,5.04945-1.07064c3.56556.26007,6.57053,3.15286,7.73884,6.5316a17.17509,17.17509,0,0,1-.28337,10.54286c1.77074-2.69618,6.564-2.36913,7.95213.54258a8.07869,8.07869,0,0,1,.50366,4.02973,32.92142,32.92142,0,0,1-5.42076,15.96688c4.69738-.24107,8.84816,3.96624,9.56548,8.61478s-1.23722,8.23718-4.40336,11.71554c6.46463,24.27392-9.61311,51.24812-24.03962,86.01118-27.35241,1.61955-31.30934,9.88276-52.17026-7.88235-.31773-5.10507-1.87506-41.03949-1.87506-41.03949l-6.50727-24.5884c-3.79434,1.42255-8.04935.68563-10.59067-2.47069s-2.386-8.29379.6204-11.01085c-5.02637,1.12378-10.05773-1.39848-13.54431-5.1894-4.884-5.31035-3.21321-13.40259,1.007-16.35513,0,0-7.9505-2.60667-9.40059-9.04283-3.32429-14.75476,24.42787-36.9484,43.25806-39.71835A4.22489,4.22489,0,0,1,479.3912,1356.5197Z"/><g class="cls-24"><path class="cls-12" d="M528.51569,1392.36243c-8.73538,1.97814-17.58172-6.56106-17.45292-15.51669s7.57241-16.73234,16.21858-19.06979,18.02205-.01968,25.82633,4.375c17.95179,10.10892,32.56857,39.88927,14.331,56.96971-7.5311,7.05328-17.71633,6.16892-26.29416,1.53638-5.29011-2.857-11.06867-7.56758-13.46371-13.22684C526.72369,1405.16859,524.08489,1393.36579,528.51569,1392.36243Z"/><path class="cls-12" d="M533.81319,1403.39705c-1.50686,11.16417-10.04657,20.052-19.06812,26.79888s-19.12622,12.37192-26.29852,21.05912c-7.37318,8.93052-8.27719,17.09623-14.00765,27.16-8.5052,14.93674-24.63146,30.2299-40.37207,37.13483-3.68267,1.61548-8.08386,2.9181-11.57595.92383a10.341,10.341,0,0,1-4.10612-5.12162c-3.01386-7.13528-1.33231-15.52258,2.34017-22.34228s9.13914-12.46229,14.19053-18.33417c5.02668-5.84314,9.91008-12.551,10.17463-20.25428.437-12.72537-11.28244-21.9387-18.90664-32.13663a57.29259,57.29259,0,0,1-6.60686-55.80961c4.87915-11.3402,13.83225-21.1281,25.25026-25.82229,13.53152-5.5631,29.38711-3.53777,42.4395,3.07169C506.28,1349.35266,537.03905,1379.49707,533.81319,1403.39705Z"/><path class="cls-2" d="M545.75912,1494.29778c-4.50854,9.2316-12.27953,17.40807-22.24649,19.89988a40.66681,40.66681,0,0,1-12.591.77264c-9.31776-.627-18.79719-2.9-26.32023-8.43329s-12.22745-10.28426-11.15611-19.56145c.70654-6.11823.22257-6.84993,2.92125-12.38609,4.44783-9.1244,5.72392-19.12152,20.24026-31.63854,15.01812-12.9497,36.38132-28.61288,53.86344-10.85436C563.59373,1445.42753,552.91929,1479.63631,545.75912,1494.29778Z"/></g><path d="M470.17292,1354.8474c2.83045-1.25705,6.51439-2.381,8.705-.19174a7.7737,7.7737,0,0,1,1.64682,3.28022q1.44212,4.57239,2.88429,9.1447a16.4519,16.4519,0,0,1-16.39777-1.64567,6.21562,6.21562,0,0,1-2.80036-4.06965C463.89431,1358.22162,467.28531,1356.12977,470.17292,1354.8474Z"/><path class="cls-25" d="M472.72428,1395.50963a21.30152,21.30152,0,0,1-18.58866-4.69143"/><path class="cls-15" d="M524.83792,1404.68549a28.876,28.876,0,0,0-15.78964,16.25725,12.02646,12.02646,0,0,1-2.00893,4.03723,10.35356,10.35356,0,0,1-2.99956,2.00645c-4.96427,2.56862-10.00812,5.762-12.4352,10.797s-.96917,12.28724,4.24541,14.29972a12.34453,12.34453,0,0,0-5.82342,15.04868,15.43493,15.43493,0,0,0,5.09043,6.4125c5.58724,4.2983,13.13923,5.60828,20.07148,4.329s13.26431-4.961,18.49985-9.68138c7.50576-6.76717,13.14833-16.61482,11.80573-26.63123a8.45394,8.45394,0,0,0,5.28772-10.04642c-.37122-1.25845.86121-2.81839.37794-4.0382a14.58062,14.58062,0,0,0-3.895-4.92932C540.353,1416.02121,533.12105,1409.34853,524.83792,1404.68549Z"/><g class="cls-26"><path class="cls-27" d="M530.02971,1438.59417A17.345,17.345,0,0,1,511.244,1413.1053c-16.66065,5.322-32.19963,16.90805-38.057,33.38812s.70251,37.64475,16.73384,44.63742a34.62257,34.62257,0,0,0,13.78926,2.70946c13.29806.015,32.97893-9.42137,37.26112-23.29182C545.67654,1455.30767,524.0694,1453.34729,530.02971,1438.59417Z"/><path class="cls-13" d="M532.4436,1465.6532c-5.02572,2.74586-11.29925,3.82867-16.49891,1.42844a14.29935,14.29935,0,0,1-7.36522-16.77015,8.733,8.733,0,0,0,.71557-3.10579c-.1541-2.61618-3.06715-3.98423-4.90428-5.8532-2.85615-2.90563-3.19311-7.59255-1.89688-11.4552s3.9456-7.09839,6.541-10.23907a57.32484,57.32484,0,0,0-35.57548,18.854,50.39576,50.39576,0,0,0-12.084,38.12563c1.45188,12.51691,8.67822,24.75869,20.09265,30.09645,7.6817,3.59222,16.60757,3.85511,24.91307,2.143,12.044-2.4827,23.33585-9.189,30.5453-19.15132,5.83618-8.06469,11.47037-22.80263,6.01988-31.67749C539.56052,1460.524,536.20051,1463.60057,532.4436,1465.6532Z"/></g><path class="cls-2" d="M544.093,1485.47445s118.729,150.42758,101.736,110.79363c0,0-24.12931-9.68715-44.158.36428s-49.0154,23.37063-75.41962,18.91538-51.83076-52.28259-54.35693-98.26649S544.093,1485.47445,544.093,1485.47445Z"/><g class="cls-28"><path class="cls-29" d="M646.32656,1601.83577a55.357,55.357,0,0,0-.88066-8.9574,55.82016,55.82016,0,0,1,7.11612-34.81581"/><path class="cls-2" d="M680.03329,1503.53857c-10.54293,7.50871-17.1423,20.92391-29.57238,24.53322-11.40889,3.31279-23.09957-2.95662-34.65554-5.71286-14.63229-3.49-30.02086-1.29238-44.93629-3.24532s-30.98476-10.13076-34.32748-24.7974c-2.66383-11.688,4.0232-24.04216,13.80671-30.96946s22.06441-9.32025,34.02188-10.17072c28.15726-2.00267,56.28246,3.5795,83.70414,10.27978,12.61051,3.08128,35.26419,8.99175,40.27906,23.07626C713.82852,1501.90924,688.8758,1497.24092,680.03329,1503.53857Z"/><path class="cls-15" d="M695.27707,1627.37474c-14.50544-6.26565-26.29563-17.32534-38.13938-27.78439a16.64231,16.64231,0,0,0-5.92557-3.86758c-7.1926-2.16565-13.77926,6.489-12.91594,13.95077s6.21775,13.48023,10.88614,19.36493c8.41214,10.60385,15.57118,23.37309,14.59135,36.87294-.44734,6.16327-2.57047,12.05913-4.17956,18.02558-6.99459,25.93575-7.321,53.718,23.9433,59.73027,18.09571,3.4799,30.62029-2.39975,40.32991-17.5768,9.80121-15.32023,21.3-41.81154,19.11847-60.11939C739.75916,1638.89259,716.179,1636.40336,695.27707,1627.37474Z"/><path class="cls-12" d="M503.0259,1594.807c.46719,1.67691.8867,3.65756-.20919,5.01008a4.94479,4.94479,0,0,1-1.91355,1.2808c-8.97705,3.97575-19.7678,2.23817-28.21713-2.76212s-14.82971-12.89339-19.91364-21.29265c-4.63844-7.66324-8.38654-15.98934-9.85659-24.82559-2.87586-17.28643,3.11072-34.68319,9.01425-51.18288a39.93442,39.93442,0,0,1,3.6613-8.2208c4.04123-6.30765,16.27393,8.35528,23.72409,11.48455,10.96895,4.60727,6.35511-1.11725,7.66109,9.67467A545.51322,545.51322,0,0,0,503.0259,1594.807Z"/><path class="cls-13" d="M670.78156,1498.2208c-16.60754,4.75593-29.91461,16.88308-42.72807,28.46946s-26.534,23.40433-43.36889,27.27914-37.50119-3.19128-42.98339-19.57342c-3.01188-9.00023-1.976-20.75426-10.011-25.80547-6.51118-4.09329-14.88359-.96166-22.40642.63757s-17.82988-.44975-18.784-8.08127c-.44234-3.538,25.81145-2.59742,27.91821-5.47394,12.42761-16.96834,9.03744-30.43018,29.921-32.92974s41.98732.88165,62.67411,4.67993q36.321,6.66883,72.26688,15.198c5.54767,1.32461,26.55007,2.36629,19.961,11.16639C699.01128,1499.43629,677.94858,1496.16837,670.78156,1498.2208Z"/></g><path class="cls-2" d="M498.256,1565.83769s8.58166,133.64523,9.05736,135.024c.26266.76127-16.62479.06124-12.76217,16.34221.63907.10029,35.77079-.009,35.77079-.009-.86975-16.48765,23.72774-121.70046,23.72774-121.70046Z"/><g class="cls-30"><path class="cls-15" d="M524.44564,1637.551c.02879,1.78762-.17048,3.64244.47962,5.3079,1.43577,3.67827,6.07333,4.67,9.98726,5.19184,5.69076.75875,11.54069,1.70142,16.42641,4.71641s8.61068,8.62635,7.70928,14.29626c-1.1076,6.96693-8.14694,11.04522-13.97612,15.01833-10.65759,7.2641,2.94238,67.0934-2.81793,78.63334-3.68626,7.38489-39.26885-11.93739-45.09133-6.08727-6.58934,6.62064-5.63465-13.14048-14.915-12.07909-3.97281.45437-8.09724.67654-11.87581-.63189-4.72926-1.63764-8.36734-5.49345-11.15271-9.6515-12.07519-18.02609-10.5485-42.58426-1.32724-62.22437,7.952-16.93647,21.30188-33.03786,35.65743-45.00694C504.98006,1615.5036,524.13543,1618.28739,524.44564,1637.551Z"/></g><path class="cls-31" d="M468.2257,1498.40026c.01309-.32516,2.96426-.44725,3.28826-.47765a145.84871,145.84871,0,0,0,69.18418-25.27045c.97716,3.82984,2.79626,7.41183,3.77342,11.24167.08447.33106.24741.731.58847.75125s.2199-.78559.01268-.51394c-15.036,19.71129-59.75833,35.23761-76.07929,38.0708C468.98378,1516.12481,468.21261,1498.72542,468.2257,1498.40026Z"/><circle class="cls-7" cx="465.79363" cy="1519.99597" r="7.6023"/><path class="cls-32" d="M501.70573,1387.842a2.22643,2.22643,0,0,1,1.9076,1.01459,5.93472,5.93472,0,0,1,1.13879,3.91576,9.68216,9.68216,0,0,1-1.17065,3.96307"/><path class="cls-2" d="M545.06,1486.3647S696.6382,1534.533,700.85385,1718.75412l-165.1214-1.67067s-.83682-24.099,12.50619-27.78436,41.93518-1.19243,41.93518-1.19243-54.965-12.3382-34.3106-89.89114C575.66594,1523.86056,545.06,1486.3647,545.06,1486.3647Z"/><g class="cls-33"><path class="cls-15" d="M590.09753,1688.09934c4.15466,2.14242,8.18181,4.81216,12.79406,5.57261,4.5168.74472,9.10715-.4263,13.68175-.59668,14.078-.52433,27.83908,9.68139,31.42416,23.30539.71631,2.72214,1.02087,5.77685-.3799,8.21836-1.91262,3.33366-6.18739,4.31473-9.98322,4.91735-18.18436,2.88694-36.70074,4.53743-55.01424,2.6345s-36.49863-7.50924-51.53719-18.1322c.41658-11.02954,1.847-23.88587,11.26778-29.63661C554.42679,1677.01046,578.49041,1682.11392,590.09753,1688.09934Z"/><path class="cls-13" d="M595.30015,1556.84253a57.66324,57.66324,0,0,1,34.77974,29.37985c8.74685,17.749,8.58733,40.44109,22.92447,54.07858a34.3497,34.3497,0,0,0,23.59648,9.35286,20.79165,20.79165,0,0,0,9.7253-2.14389c4.00817-2.14768,6.83545-6.03753,8.70655-10.182,7.03477-15.582,1.79646-33.80579-4.84357-49.56008a301.22374,301.22374,0,0,0-28.18842-51.942c-7.81126-11.5275-16.5203-22.6116-27.31627-31.40626-24.26152-19.764-60.46326-30.2313-90.21287-20.52572-.75748.24712.15725,4.57648-.343,5.19663a4.20008,4.20008,0,0,0-.63161,2.67714c-.04142,17.92718-.27669,38.1345,9.09616,53.44269C561.3331,1559.48486,580.8232,1552.52328,595.30015,1556.84253Z"/></g><path class="cls-34" d="M551.16549,1618.5622c1.15365-5.05642,5.32464-8.90208,9.815-11.49721a39.63306,39.63306,0,0,1,39.23439.22224c6.51447,3.864,11.73731,9.52525,16.8602,15.10422"/><path class="cls-2" d="M696.7609,1689.01092c9.11041-7.95722,23.89213-8.42861,33.491-1.068-1.29145-2.18678-.11167-5.15782,1.91273-6.69133s4.64022-1.99121,7.14623-2.40327c7.83935-1.289,15.95011-2.56865,23.64507-.59268s14.9116,8.11917,15.51853,16.04056c4.71852-5.88339,14.55594-6.65121,20.13016-1.57117s5.72034,14.94629.299,20.18916c-5.26294,5.08969-13.44154,5.22522-20.75728,4.93638a729.656,729.656,0,0,1-88.81168-8.9726C688.6829,1702.93742,695.42194,1694.83518,696.7609,1689.01092Z"/><rect class="cls-5" x="271.50677" y="1133.27809" width="166.46993" height="111.32642"/><rect class="cls-3" x="346.90616" y="1257.34551" width="15.67117" height="448.74201"/><g class="cls-35"><polygon class="cls-36" points="362.848 1275.945 339.763 1290.51 340.186 1247.079 381.141 1247.079 362.848 1275.945"/></g><path class="cls-37" d="M197.80253,1244.45707H511.681a0,0,0,0,1,0,0v3.80542a8.90221,8.90221,0,0,1-8.90221,8.90221h-296.074a8.90221,8.90221,0,0,1-8.90221-8.90221v-3.80542A0,0,0,0,1,197.80253,1244.45707Z"/><rect class="cls-38" x="197.80253" y="1244.36154" width="313.87842" height="3.81229"/><path class="cls-37" d="M290.842,1698.72164H418.64149a19.33522,19.33522,0,0,1,19.33522,19.33522v.4571a0,0,0,0,1,0,0H271.50677a0,0,0,0,1,0,0v-.4571A19.33522,19.33522,0,0,1,290.842,1698.72164Z"/><rect class="cls-5" x="264.30579" y="1118.3749" width="180.87191" height="26.31418"/><polygon class="cls-39" points="437.977 1152.288 271.507 1159.316 271.507 1144.689 437.977 1144.689 437.977 1152.288"/><path class="cls-40" d="M309.522,1156.13145a3.73525,3.73525,0,0,0-3.96136,2.88953,1.06785,1.06785,0,0,0,.03736.6735,1.08417,1.08417,0,0,0,.49179.43627,14.55207,14.55207,0,0,0,2.89666.88269,6.3128,6.3128,0,0,1,3.87006,2.8569,3.93844,3.93844,0,0,1-.4871,4.5768,5.04887,5.04887,0,0,1-2.83319,1.213c-2.83123.42894-6.08506-.45245-7.55269-2.91131"/><path class="cls-40" d="M316.34019,1169.80786l4.215-14.36351a70.14053,70.14053,0,0,1,5.05057,13.72443"/><path class="cls-40" d="M328.166,1154.83849a139.17729,139.17729,0,0,0,3.70465,13.7914l5.28179-14.34477"/><path class="cls-40" d="M341.13007,1154.28817q-.26374,7.43789.02345,14.88169,3.35158-.07728,6.703.08524"/><path class="cls-40" d="M318.26056,1163.99483c2.11579.09962,3.54855.11431,5.66551.044"/><path class="cls-40" d="M341.36436,1154.42331c1.08464.10233,1.78714.20467,2.87177.307l3.83944.36226"/><line class="cls-40" x1="341.26786" y1="1162.19249" x2="346.33897" y2="1162.15494"/><path class="cls-40" d="M368.61424,1154.751h12.07333"/><path class="cls-40" d="M384.9931,1154.116q-.13823,7.28713.24037,14.57185"/><line class="cls-40" x1="374.49151" y1="1154.75104" x2="374.49151" y2="1168.5715"/><path class="cls-40" d="M393.07642,1154.11566v14.62171"/><path class="cls-40" d="M398.78616,1154.4025c.12549,4.65893.251,8.8402.37646,13.49914"/><line class="cls-40" x1="385.10307" y1="1162.05793" x2="393.08158" y2="1162.05793"/><path class="cls-40" d="M398.85735,1154.37885c2.17211.04054,3.96208.08107,6.13418.12161"/><line class="cls-40" x1="399.11254" y1="1167.93521" x2="405.31565" y2="1167.93521"/><line class="cls-40" x1="398.9537" y1="1161.2637" x2="403.09588" y2="1161.2637"/><path class="cls-40" d="M317.86439,1194.03019s4.41153-10.46407,5.96033-13.87087a34.60156,34.60156,0,0,1,1.24051,5.02577c.13659.80984.24428,1.62424.35194,2.43844l.78109,5.907"/><path class="cls-40" d="M330.58218,1193.50944s.15788-9.47731.50958-14.20267l5.63316,13.69277.50417-13.95257"/><path class="cls-40" d="M342.432,1179.05718l-.37127,13.5826"/><path class="cls-40" d="M347.59583,1192.84745l.64739-13.58082q2.15571,4.154,3.89535,8.50687a86.61316,86.61316,0,0,1,3.21917-9.45037l.74971,14.71427"/><path class="cls-40" d="M359.2845,1193.53157a148.53591,148.53591,0,0,1,4.51749-14.622q1.79057,7.1737,3.63993,14.33257"/><path class="cls-40" d="M371.63346,1177.62962l.76082,15.33356,6.65315-.234"/><path class="cls-40" d="M382.51713,1190.67213a1.86668,1.86668,0,0,0,1.29936,1.37153,4.65645,4.65645,0,0,0,1.96762.1085,3.99965,3.99965,0,0,0,1.90827-.5681,3.037,3.037,0,0,0,.72216-3.6524,8.87211,8.87211,0,0,0-2.62768-3.01178l-1.78239-1.50494a5.42036,5.42036,0,0,1-1.31619-1.41332,3.2234,3.2234,0,0,1-.04664-2.8488,4.90231,4.90231,0,0,1,1.99016-2.12275,2.14194,2.14194,0,0,1,2.6538.45164"/><path class="cls-40" d="M320.53139,1187.94537a44.40164,44.40164,0,0,0,4.66389-.03491"/><path class="cls-40" d="M360.71649,1188.27905a30.39344,30.39344,0,0,0,5.39186-.3829"/><path class="cls-4" d="M357.05507,1244.60451l.56641-10.02454a4.59548,4.59548,0,0,1,.27129-1.56,4.78539,4.78539,0,0,1,1.17661-1.47,60.003,60.003,0,0,0,16.02312-27.0121,1.36479,1.36479,0,0,0-1.66377-1.68887c-1.97721.54561-3.91373,1.24716-5.84395,1.94692l-20.62553,7.47731a1.18736,1.18736,0,0,1-.8032.09167c-.42752-.15978-.51586-.715-.53617-1.171l-.40878-9.18114a.71981.71981,0,0,0-1.30536-.38562l-14.09131,19.78091c-2.38677,3.35046-4.77723,6.70568-7.44133,9.84014-3.80905,4.48155-8.17912,8.324-11.45682,13.20766Z"/><g class="cls-41"><path class="cls-2" d="M371.70527,1210.75927a3.44546,3.44546,0,0,0,2.82329,1.02007,3.38008,3.38008,0,0,0,1.65567-.98749,9.5266,9.5266,0,0,0,2.52111-5.99806,6.815,6.815,0,0,0-.38374-3.3007,5.2375,5.2375,0,0,0-6.09023-2.65341c-1.98986.547-4.6945,2.66768-4.20874,4.969A13.75514,13.75514,0,0,0,371.70527,1210.75927Z"/><path class="cls-2" d="M343.83145,1204.55765a26.11562,26.11562,0,0,0-2.12932,8.34955,20.15688,20.15688,0,0,0,4.05208-1.46334.88516.88516,0,0,0,.33471-.23566.89546.89546,0,0,0,.12938-.50708,24.69308,24.69308,0,0,0-.25533-5.72876C345.69287,1203.56664,344.497,1202.79211,343.83145,1204.55765Z"/></g><path class="cls-2" d="M352.4877,1203.75291l2.254,5.699c-3.02458.56651-4.338,1.84941-7.16052,2.59588.50642-.84066,2.21849-5.45783,3.24457-8.27686A.88851.88851,0,0,1,352.4877,1203.75291Z"/><path class="cls-42" d="M353.41316,1225.5827a4.92452,4.92452,0,0,0,6.513-2.10615"/><path class="cls-42" d="M345.62831,1220.22231a2.32333,2.32333,0,0,1,3.90582-1.20587"/><path class="cls-40" d="M405.871,1222.6019c.05521-.10267.19936.09009.10437.15764s-.22474.00312-.32211-.061l-4.32442-2.84641c-2.65056-1.74465-5.4987-3.75281-6.32494-6.81656a9.26154,9.26154,0,0,1-.04408-4.06831,6.18422,6.18422,0,0,1,.74718-2.17268,4.53592,4.53592,0,0,1,3.61062-2.00417,6.58629,6.58629,0,0,1,4.02386,1.26069,5.31206,5.31206,0,0,1,2.51129,4.17932c.96425-1.76408,1.8936-3.23906,3.8053-3.86127a4.68522,4.68522,0,0,1,5.20293,2.08861,6.41652,6.41652,0,0,1,.26659,5.80681,10.36093,10.36093,0,0,1-3.956,4.451C409.48867,1219.822,407.75219,1221.88274,405.871,1222.6019Z"/><rect class="cls-43" x="270.87139" y="1234.57985" width="167.10531" height="10.02466"/><path class="cls-5" d="M763.71882,1636.05917l9.81373,21.08526s11.4631,13.379,13.16587,24.71036c0,0,7.7,6.43342,3.87926,10.47637-2.61148,2.76336-30.51557,17.31346-54.96042,28.25874,0,0-38.23689,3.88568-41.47816.8804s-.48226-5.5375-.48226-5.5375-4.58473-5.32713-.57449-11.18854c2.43563-3.55995,12.93508-.90418,26.11118-10.12191s26.074-19.10267,27.08638-26.26905a53.60409,53.60409,0,0,0-9.15444-21.57184c-7.76479-11.00331,26.59335-10.72229,26.59335-10.72229"/><g class="cls-44"><path class="cls-45" d="M792.80012,1677.25412a199.85118,199.85118,0,0,1-61.63368,36.48754s-22.00309-1.92145-37.5096,2.19114c-56.74712,15.05031,56.7346,40.30548,56.7346,40.30548l56.83862-73.97223Z"/><path class="cls-45" d="M754.63561,1677.83275c3.04964,2.24126,6.7381,4.416,10.404,3.47523,3.79192-.97316,6.0512-5.03687,6.488-8.92723s-.4882-7.789-.78169-11.69276c-.14785-1.96647-.07331-4.127,1.19093-5.64043,1.08132-1.29448,2.87131-1.897,3.7916-3.31054,1.26531-1.94346.3973-4.51076-.49936-6.64947l-3.66676-8.746c-1.73712-4.1434-3.51515-8.35521-6.39284-11.80547s-7.0734-6.08753-11.56541-6.00272c-3.977.07509-7.5739,2.20263-11.27662,3.656-3.10428,1.21849-6.45045,2.02146-9.11661,4.02467a18.29091,18.29091,0,0,0-5.22468,6.96631,30.76481,30.76481,0,0,0-2.96355,17.21153,22.82065,22.82065,0,0,0,8.45644,15.04631,15.08329,15.08329,0,0,0,6.60461,2.95151c1.50061.24435,3.27362-.16127,4.66753.52724,1.79863.88841,3.163,3.25929,4.62245,4.62574A57.26427,57.26427,0,0,0,754.63561,1677.83275Z"/><path class="cls-46" d="M713.48182,1693.20906s11.35572,5.06914,17.68462,20.5326c0,0-29.07345,1.09376-37.5096,2.19114s-20.3885-11.646-20.3885-11.646l24.09351-22.50911Z"/></g><path class="cls-22" d="M736.65913,1680.60149a26.74365,26.74365,0,0,1,3.44678,5.43191,8.99564,8.99564,0,0,1,.52043,6.28716,5.48055,5.48055,0,0,1-4.68559,3.84924,5.75848,5.75848,0,0,1-2.32609-.43613c-3.03993-1.18947-5.04348-4.05092-6.86118-6.76238"/><path class="cls-47" d="M745.68922,1668.21713a33.132,33.132,0,0,0,9.32059,10.20164c2.44985,1.74766,5.35244,3.20257,8.34356,2.8719,3.57993-.39577,6.496-3.37583,7.67348-6.77965s.88407-7.14727.13015-10.66922a17.76767,17.76767,0,0,1-.62084-4.16488,7.41616,7.41616,0,0,1,1.83-4.65442"/><path class="cls-47" d="M752.67182,1641.76384a305.36613,305.36613,0,0,1,17.66,34.03988l-.6246-1.46141"/><path class="cls-47" d="M745.19664,1643.56872q8.92967,18.92188,19.35126,37.09047"/><path class="cls-48" d="M679.42165,1290.41946s74.55481,280.457,89.37868,306.74676-48.71427,44.18114-62.69266,32.69393-59.171-166.80412-59.171-166.80412Z"/><path class="cls-49" d="M726.75348,1633.40476s.17976,16.491,11.61662,15.22018,38.125-12.24763,32.65658-21.992-6.47878-9.74251-6.47878-9.74251Z"/><path class="cls-50" d="M589.68878,1233.33179l97.35741-20.33221c8.89538,45.02311.63542,59.72586-8.25989,108.01486-48.15246,261.4001,14.61374,320.26539-55.27822,320.25622-24.1465-.00316-40.029-7.33623-43.84131-21.31462S582.69959,1244.76866,589.68878,1233.33179Z"/><path class="cls-5" d="M632.04982,1663.63972l-.1982,23.25636s4.60237,17.00639,1.2711,27.9701c0,0,4.18867,9.11777-.99854,11.12681s-70.1021,3.53769-92.7269-.25033c0,0-7.91329-1.03552-9.5488-5.14194s1.94386-5.20748,1.94386-5.20748-6.14281-5.75844-.64412-10.25317c7.70284-6.29645,63.29185-7.7601,71.27855-19.83238a53.60411,53.60411,0,0,0,1.00259-23.41245c-2.28361-13.27215,28.62046,1.74448,28.62046,1.74448"/><g class="cls-51"><path class="cls-45" d="M640.60925,1713.33361s-45.96474,13.81434-108.81691,2.05963c-57.70844-10.79272,36.585,51.03972,36.585,51.03972l83.10842-42.37346Z"/><path class="cls-45" d="M605.89873,1697.45772c1.79075,3.33418,4.18692,6.8828,7.90136,7.6084,3.84218.75055,7.62835-1.94815,9.69434-5.27341s2.9059-7.24308,4.31824-10.89425c.71145-1.83921,1.70707-3.75808,3.49895-4.58149,1.53262-.70428,3.40786-.47925,4.84621-1.3602,1.97762-1.21123,2.29692-3.90243,2.40621-6.21892l.44693-9.473c.21173-4.48782.41591-9.055-.7001-13.407s-3.77149-8.5362-7.86414-10.38973c-3.62346-1.641-7.78552-1.26539-11.7535-1.544-3.32667-.23355-6.69322-.94626-9.96146-.283a18.29075,18.29075,0,0,0-7.711,4.04554,30.76483,30.76483,0,0,0-10.07143,14.26835,22.82068,22.82068,0,0,0,1.171,17.22009,15.08342,15.08342,0,0,0,4.69566,5.503c1.25.86542,3.02532,1.261,3.98816,2.48162,1.24241,1.575,1.45572,4.30215,2.18642,6.16312A57.26678,57.26678,0,0,0,605.89873,1697.45772Z"/><path class="cls-46" d="M562.13072,1693.65946s8.07592,9.45663,7.14654,26.13925c0,0-29.39571-1.77158-37.48492-4.40547s-13.40646-19.27659-13.40646-19.27659l31.42766-9.97294Z"/></g><path class="cls-22" d="M588.47661,1692.23378a26.74373,26.74373,0,0,1,.77841,6.38592,8.99555,8.99555,0,0,1-2.2315,5.90081,5.48054,5.48054,0,0,1-5.88493,1.46252,5.75863,5.75863,0,0,1-1.913-1.39329c-2.23391-2.38026-2.81358-5.825-3.28989-9.0544"/><path class="cls-47" d="M601.95188,1684.93093a33.13207,33.13207,0,0,0,4.03294,13.21673c1.46125,2.63076,3.45709,5.19169,6.30011,6.17831,3.40267,1.18084,7.31627-.25714,9.84207-2.8248s3.86932-6.074,4.70184-9.5782a17.76706,17.76706,0,0,1,1.22894-4.02757,7.41622,7.41622,0,0,1,3.65234-3.41656"/><path class="cls-47" d="M619.62341,1664.04431a305.36567,305.36567,0,0,1,1.32059,38.32553l.06393-1.588"/><path class="cls-47" d="M612.09794,1662.46218q-.067,20.923,1.537,41.80684"/><path class="cls-48" d="M595.85441,1636.69467s-3.75859,4.36644-3.47826,12.562a14.22211,14.22211,0,0,0,13.77061,13.58169l21.54436.78742a14.25165,14.25165,0,0,0,14.51956-17.28488,17.24385,17.24385,0,0,0-3.06785-6.56107Z"/><path class="cls-52" d="M634.72036,1223.92736s16.74451,28.02147,11.02607,50.70422c-3.05161,12.10453-40.60839,186.63568-28.27855,367.18833"/><polyline class="cls-53" points="406.765 1030.867 385.558 1029.374 387.334 1040.342 398.935 1041.781 406.765 1030.867"/><rect class="cls-54" x="362.30751" y="1016.93084" width="38.72364" height="69.93199" transform="translate(-713.00122 819.83046) rotate(-58.08795)"/><rect class="cls-55" x="362.30751" y="1016.93084" width="38.72364" height="69.93199" transform="translate(-632.01502 577.97442) rotate(-45)"/><rect class="cls-56" x="362.30751" y="1016.93084" width="38.72364" height="69.93199" transform="matrix(0.86603, -0.5, 0.5, 0.86603, -474.81442, 331.76212)"/><rect class="cls-57" x="364.84929" y="1019.85602" width="33.64008" height="64.08163" transform="translate(-474.81442 331.76212) rotate(-30)"/><circle class="cls-55" cx="381.66933" cy="1051.89683" r="12.86778"/><path class="cls-9" d="M382.72773,1058.45256s13.0232-27.58527,24.0371-27.58527c13.85479,0,20.01494,12.8167,19.92371,20.04356s-2.71561,16.93724-10.76838,21.58651l-12.463-21.58651S396.27994,1066.86652,382.72773,1058.45256Z"/><path class="cls-58" d="M403.39736,1051.0044a28.25132,28.25132,0,0,0,2.03708-4.27729"/><path class="cls-58" d="M416.09449,1058.0917q-1.80093-.30711-3.59246-.66634a12.787,12.787,0,0,1-2.873-.82632,13.47868,13.47868,0,0,1-3.01567-2.137l-1.5594-1.3359"/><path class="cls-6" d="M596.40157,1058.48316l-95.5809,58.00193-71.42161-68.87923-16.20519,29.42434s60.44591,81.64428,75.37765,81.66732c33.3404.05144,103.38163-33.119,103.38163-33.119l4.44842-67.09538"/><g class="cls-59"><path class="cls-60" d="M437.19226,1046.77229a353.89081,353.89081,0,0,0-21.65812,53.48258"/><path class="cls-60" d="M459.57749,1148.25267A41.36966,41.36966,0,0,1,526.305,1170.6702"/></g><path class="cls-7" d="M589.68878,1233.33179s43.03227,5.71843,97.35741-20.33221c0,0-27.70822-32.48172-12.3899-85.97011,4.28832-14.97391,10.71286-44.51218,4.13-59.88963s-27.60229-16.93138-40.41878-16.251c-23.86628,1.267-78.91079,4.64592-66.96068,61.72045C577.88215,1143.536,589.68878,1233.33179,589.68878,1233.33179Z"/><g class="cls-61"><path class="cls-6" d="M657.28962,1219.76247c-6.65079-2.98512-13.87575-4.4852-20.62553-7.2392-10.70179-4.36647-20.35251-12.312-24.67216-23.0328s-6.51193-23.03575,2.17988-30.65459c5.12987-4.49662,11.90156-6.58666,17.66658-10.23353,11.13882-7.04626,18.22672-19.69555,30.15627-25.29991a15.03843,15.03843,0,0,1,5.68865-1.60059c3.80084-.16044,12.056-34.93424,14.83127-32.33234,8.79171,8.24241,6.0239,58.08112,7.40843,70.05252,1.82409,15.77206,3.651,31.66,2.44546,47.49135-.50118,6.58183-1.57557,13.27446-4.7207,19.07788C677.39683,1244.90639,670.12434,1225.52318,657.28962,1219.76247Z"/></g><path class="cls-8" d="M494.15849,1018.1255l7.25348,52.53276,35.19568-4.28612-7.1559-54.49733a4.86055,4.86055,0,0,0-5.74042-4.13965l-25.65921,4.95308A4.86055,4.86055,0,0,0,494.15849,1018.1255Z"/><g class="cls-62"><path class="cls-63" d="M522.53486,1009.94228a11.12464,11.12464,0,0,1,1.64238,4.96093l7.00248,43.1669c3.11257,1.49729,6.99155-.76588,8.45511-3.89446s1.15963-6.76426.74918-10.19377c-1.27236-10.63114-3.27125-21.16015-5.26858-31.67922-.73347-3.86288-1.89036-8.28993-5.4727-9.91064a7.67718,7.67718,0,0,0-7.16464.80629,10.2441,10.2441,0,0,0-4.05812,4.85122A5.23249,5.23249,0,0,1,522.53486,1009.94228Z"/><path class="cls-64" d="M496.90583,1016.01633a11.99472,11.99472,0,0,1,4.82988-1.95232l6.98335-1.69079c1.303-.31547,3.37123-2.11955,3.25114-3.45476-.11825-1.31468-1.8105-1.75863-3.13048-1.76354a26.08537,26.08537,0,0,0-12.75446,3.29678,8.88467,8.88467,0,0,0-2.33133,1.72835,7.22617,7.22617,0,0,0-1.51724,5.62527c.25729,2.31878,1.279,4.50431,1.93635,6.72616C494.49448,1021.26417,494.04582,1018.31984,496.90583,1016.01633Z"/></g><circle class="cls-65" cx="505.13468" cy="1021.98243" r="3.56267"/><path class="cls-9" d="M533.55208,1042.93574l1.53046,11.26725s-16.21174-5.03036-39.83537-22.66248c0,0-7.12754.51863-2.90114,8.80149,0,0-4.98566,3.94129.79089,10.49459,0,0-5.295,4.71961,2.73831,12.91032,0,0-2.73369,5.62349,2.1973,9.64914s15.707,12.96478,40.78675,19.6767,10.28118-27.15184,10.28118-27.15184l-3.91224-3.8352s-1.982-10.50518-3.376-13.85892C539.13649,1041.6933,533.55208,1042.93574,533.55208,1042.93574Z"/><g class="cls-66"><path class="cls-9" d="M536.55661,1084.961c-8.78341,6.42543-20.53092-.35785-28.15511,2.61845,4.55319,3.45887,14.33943,9.075,19.97647,10.03368a24.18984,24.18984,0,0,0,12.79032-.92356,21.336,21.336,0,0,0,11.0329-10.511c1.59559-3.21543,6.38161-21.50748-.06122-20.78143C549.25866,1065.72187,545.73147,1078.24924,536.55661,1084.961Z"/></g><path class="cls-58" d="M492.346,1040.342s7.98575,7.38735,13.58288,10.66094"/><path class="cls-58" d="M493.13692,1050.83659s7.68547,7.01976,11.25569,9.4489"/><path class="cls-58" d="M495.87523,1063.74691s7.30255,4.96968,9.89087,6.78585"/><path class="cls-7" d="M683.00834,1072.82951a28.31867,28.31867,0,0,1-.49376,16.54c-8.28572,24.63006-38.11819,107.84534-62.07315,105.01908-28.10362-3.31574-97.02474-106.90106-97.02474-106.90106l29.03836-24.442,62.0274,69.97828,32.40177-64.44534a21.23424,21.23424,0,0,1,18.20449-11.87289C671.95806,1056.51978,679.41619,1059.78459,683.00834,1072.82951Z"/><g class="cls-67"><path class="cls-60" d="M620.35836,1173.41815a32.43029,32.43029,0,0,1,26.70532,10.82441c.87918,1.00842,1.70981,2.52851.87986,3.57782a4.01113,4.01113,0,0,1-2.10756.99264c-2.84983.888-4.69639,3.54372-6.83979,5.62256-7.52864,7.30122-33.58583,11.56776-41.95185,3.21895C586.08009,1186.71284,611.589,1174.15276,620.35836,1173.41815Z"/><path class="cls-60" d="M523.43424,1096.76538a314.17357,314.17357,0,0,0,41.388-44.37638"/></g><polyline class="cls-60" points="635.889 1091.295 614.482 1133.024 552.455 1063.046"/><path class="cls-68" d="M620.44143,1194.38859s-18.37747-1.88006-56.97655-52.07639"/><path class="cls-11" d="M641.86682,912.48319a16.35565,16.35565,0,0,0,15.79758,7.76063,20.76922,20.76922,0,0,0,5.60109-1.6258,19.48772,19.48772,0,0,0,7.76313-5.67594c4.48233-5.777,3.88356-14.3002.37433-20.71506a17.15754,17.15754,0,0,0-5.82874-6.54606,14.452,14.452,0,0,0-13.57407-.362C642.806,889.7349,636.39751,903.15359,641.86682,912.48319Z"/><g class="cls-69"><path class="cls-70" d="M652.45289,911.50858a20.60057,20.60057,0,0,0,18.674-5.84035,45.69267,45.69267,0,0,0,4.528-6.015c4.45293,2.02966,6.91375,7.26768,6.50141,12.144s-3.29616,9.29783-7.034,12.45637a20.983,20.983,0,0,1-14.19948,5.2444c-8.48843-.38319-15.48769-6.91811-20.07248-14.07225-1.11519-1.74015-7.00337-14.42119-1.37855-12.81743,1.40729.40125,4.198,4.74254,5.71167,5.7791A20.03379,20.03379,0,0,0,652.45289,911.50858Z"/><path class="cls-71" d="M654.1073,896.22149c2.62263-.90949,4.68621-2.92521,6.64976-4.88732a7.4974,7.4974,0,0,0,1.72529-2.22779,4.56376,4.56376,0,0,0-.57739-4.29975,7.41281,7.41281,0,0,0-3.618-2.60407C643.08148,876.66689,642.89879,900.10829,654.1073,896.22149Z"/></g><path class="cls-11" d="M649.12892,964.34887c-1.55226-7.11142-3.93024-14.48061-9.38241-19.303-3.67855-3.25366-8.45531-5.04069-13.27945-5.96028-17.3925-3.3154-33.485,9.04721-43.00488,23.97583-1.6297-4.61012-5.582-12.7851-5.86472-17.66661a18.05907,18.05907,0,0,1,1.13676-8.56663c1.40353-3.07455,4.14174-5.31014,6.902-7.26039,7.25332-5.1247,15.2628-9.06333,23.23387-12.97934,8.871-4.35813,18.50953-8.83745,28.24484-7.13111,8.60948,1.509,15.6211,7.602,21.84014,13.744a271.14853,271.14853,0,0,1,22.48666,25.16c3.63757,4.61921,3.87572,11.04573,4.60489,16.87988l7.15785,57.27047a487.99086,487.99086,0,0,1-112.50776-.65676c-4.16325-8.96793-4.63234-19.165-4.61946-29.05214.01106-8.49035.67658-34.48063,6.10521-41.00873,2.44005-2.93423,5.60121,11.71273,9.03853,10.05489,8.94548-4.31446,19.20186-5.42188,29.08424-4.43469A111.24251,111.24251,0,0,1,649.12892,964.34887Z"/><g class="cls-72"><path class="cls-71" d="M581.67966,918.181a29.614,29.614,0,0,0-11.53823,24.54988,7.83856,7.83856,0,0,0,1.137,4.24435c2.1345,2.99825,6.81709,2.28837,10.06907.56493a52.80433,52.80433,0,0,0,9.14748-6.68169l24.07845-20.3878c3.07495-2.60363,6.47721-6.27217,5.17382-10.08471-1.383-4.0454-6.83133-4.64744-11.06923-4.08342a62.94654,62.94654,0,0,0-38.8018,20.88442"/><path class="cls-71" d="M635.5819,917.88838c-1.74215-.42968-8.52962,4.71314-9.13233,6.98607a7.59719,7.59719,0,0,0-.2998,3.44937,3.078,3.078,0,0,0,2.18882,2.46911,4.57506,4.57506,0,0,0,2.311-.32737,17.46816,17.46816,0,0,0,6.03472-2.943,6.45142,6.45142,0,0,0,2.43909-5.95862A4.89858,4.89858,0,0,0,635.5819,917.88838Z"/><path class="cls-70" d="M594.12859,941.11987c6.25076-4.59339,13.64655-7.96233,21.39988-8.20137a44.98281,44.98281,0,0,1,12.18461,1.61449c5.87059,1.46014,11.77715,3.55049,16.28834,7.581,13.65337,12.19857,9.5082,36.64592,23.15548,48.8513,3.904,3.49155,8.87342,5.54876,13.07964,8.66968a31.75114,31.75114,0,0,1,12.33158,29.15162,31.18254,31.18254,0,0,1-19.81395,24.60866c-4.82669,1.74607-10.00249,2.23414-15.11336,2.70811-20.45517,1.897-40.9789,3.796-61.508,3.041-12.0687-.44388-25.0765-2.23812-33.76225-10.62908-8.00715-7.73541-10.63921-19.78854-9.336-30.84532s6.04212-21.38516,10.98975-31.35872c4.32833-8.72516,7.33433-18.4025,11.78726-26.9413C579.43822,952.41576,587.91771,945.68393,594.12859,941.11987Z"/></g><path class="cls-9" d="M620.15358,1008.38685s.85676,28.63524-5.86925,37.58818-12.37444,25.35728,1.945,29.52243,28.65078-19.87707,29.86291-24.425a27.02077,27.02077,0,0,1-5.33048-3.47425c-1.84956-1.75168-2.15146-16.95026-.8574-23.93519s-13.89479-19.35273-19.75082-15.27621"/><g class="cls-73"><path class="cls-9" d="M631.98741,1028.22744a22.21355,22.21355,0,0,1-.95482-19.599c5.63115,4.72568,16.88909,14.45354,16.175,22.73019C646.20133,1043.02093,635.09641,1033.73016,631.98741,1028.22744Z"/><path class="cls-53" d="M616.47085,1041.78059c-6.99293-.86305,1.18571-17.73485,6.714-21.28935,6.61864,3.6866,20.85131.11568,13.14608,4.93859C634.80161,1026.38707,628.42434,1043.25584,616.47085,1041.78059Z"/></g><path class="cls-9" d="M581.0576,957.27461s-2.10484,29.20371,2.50906,43.06532c3.12742,9.39573,11.76593,27.38959,19.66811,32.20735a18.99973,18.99973,0,0,0,17.37352,1.604c16.50474-6.83643,32.99882-21.853,35.88239-27.3101s2.48436-18.62774,2.48436-18.62774-3.46633-20.9276-6.92374-29.2658C640.79622,931.80391,597.08593,929.8395,581.0576,957.27461Z"/><g class="cls-74"><path class="cls-75" d="M583.81537,966.5898c-1.05728,6.66884-.31223,13.48809.75351,20.15559,2.43714,15.24728,7.04909,31.08406,18.40317,41.54848,4.89123,4.508,10.778,7.76587,16.60208,10.9792-8.95338,4.445-20.13285,2.55157-28.50411-2.91133s-14.28508-14.006-18.73537-22.95679c-6.87088-13.81925-10.74759-29.7157-7.47664-44.79819,3.27089-15.08218,14.813-28.90987,29.97188-31.80424,3.01638-.57594,7.56945-.886,9.66531,1.73436C593.978,945.11461,585.84674,953.7771,583.81537,966.5898Z"/></g><path class="cls-76" d="M607.16679,961.01941l-7.55332,25.56177a13.41293,13.41293,0,0,0-.69969,3.471,4.51923,4.51923,0,0,0,1.1251,3.27007c1.21213,1.23981,3.13652,1.3519,4.87008,1.38566l3.3872.066"/><path class="cls-11" d="M618.1447,975.59461a6.19722,6.19722,0,0,0,.70172,4.60662,2.23,2.23,0,0,0,.89075.8521,2.38145,2.38145,0,0,0,2.613-.97,7.43635,7.43635,0,0,0,1.576-4.97217,4.6539,4.6539,0,0,0-1.0195-3.07961C620.35662,969.26616,618.56534,973.56374,618.1447,975.59461Z"/><path class="cls-11" d="M586.43473,977.42635a5.74919,5.74919,0,0,0,.651,4.27359,2.06881,2.06881,0,0,0,.82635.7905,2.2093,2.2093,0,0,0,2.42407-.89986,6.89874,6.89874,0,0,0,1.46208-4.61271,4.31739,4.31739,0,0,0-.9458-2.857C588.48675,971.55541,586.825,975.54231,586.43473,977.42635Z"/><path class="cls-76" d="M603.66209,1008.53876a22.70169,22.70169,0,0,0,18.8482-7.3389"/><path class="cls-76" d="M621.59141,998.80452a9.37541,9.37541,0,0,0,4.11081,5.72275"/><path class="cls-76" d="M616.99985,960.01576a22.58546,22.58546,0,0,1,17.94914,5.53406"/><path class="cls-76" d="M582.492,968.73015a18.058,18.058,0,0,1,12.21411-4.07424"/><path class="cls-9" d="M652.05131,958.94763s16.86864-11.84284,22.38307,4.68223-3.67213,21.95318-5.6415,23.44208a13.84,13.84,0,0,1-13.70791.41094C649.64151,984.37658,652.05131,958.94763,652.05131,958.94763Z"/><path class="cls-53" d="M659.91152,973.28047c-.54755,1.42823-.98731,3.09825-.23194,4.42831.89358,1.57342,3.18156,1.895,4.79764,1.08106a7.97555,7.97555,0,0,0,3.38748-4.10158c1.00164-2.2651,1.87334-8.03874-1.92813-8.52363C662.931,965.78125,660.73357,971.13622,659.91152,973.28047Z"/><path class="cls-76" d="M659.338,975.37131a14.9894,14.9894,0,0,1,8.1673-9.67306"/><path class="cls-76" d="M662.50468,969.457c2.49341-.50636,3.76526.56955,5.93093,1.905"/><path class="cls-77" d="M167.605,1530.06852s-18.15519-23.519-13.34973-29.42477,39.6488,21.40572,39.6488,21.40572l-19.52539,9.72583Z"/><path class="cls-12" d="M176.15417,1530.51681s65.94811-33.86571,100.3556-44.19753c0,0,26.12388,85.62969-66.89588,102.78118l-8.10443,12.40363-48.29023-23.18051s9.27652-17.51122,9.01576-30.24166c0,0-27.682-32.01645-22.56028-37.53289C148.07018,1501.50649,176.15417,1530.51681,176.15417,1530.51681Z"/><path d="M204.6519,1537.50826a6.9699,6.9699,0,0,0,3.03227,3.71783,3.86085,3.86085,0,0,0,4.01013.00582,3.72636,3.72636,0,0,0,1.382-3.19488,8.23284,8.23284,0,0,0-1.09311-3.42839,8.06557,8.06557,0,0,0-2.82385-3.33674c-1.17216-.69255-4.04613-.95643-5.003.28638C203.1934,1532.809,204.17178,1536.2283,204.6519,1537.50826Z"/><path class="cls-25" d="M244.18858,1538.26926c1.29377,4.52255-4.07569,12.1897-11.305,10.88023"/><path class="cls-31" d="M279.86261,1510.48246a17.06946,17.06946,0,0,1-20.9887.03216c-4.56248-3.73428-6.77525-9.54779-8.79768-15.08592,5.32243-1.92558,10.32106-3.46008,15.6435-5.38566,3.60853-1.30552,7.22074-2.61222,10.91278-3.65851A74.44458,74.44458,0,0,1,279.86261,1510.48246Z"/><path class="cls-12" d="M153.21923,1578.32358s-14.81455,24.00338-36.66,32.74622c-31.9808,12.79917-71.52544,51.7907-31.80671,106.52726l102.57125-.00969c4.41533-1.13427,6.95673-11.86984-1.52182-15.67533-6.30612-2.83043,6.09848-41.434,11.73707-86.30179.41509-3.303,2.17767-15.85354,1.53423-18.61726C193.66692,1573.77113,153.21923,1578.32358,153.21923,1578.32358Z"/><g class="cls-78"><path class="cls-77" d="M79.8047,1599.91642c-3.2662-.54839-6.23868-2.16932-9.14077-3.76515a10.48084,10.48084,0,0,1-3.782-2.91543c-1.8872-2.72753-.99427-6.9-3.366-9.21854-1.66884-1.6314-4.8204-2.27611-4.90244-4.60845a4.019,4.019,0,0,1,.81088-2.2354c7.62521-11.857,30.03263-13.04282,39.59773-2.64853C109.08874,1585.46422,91.63674,1601.90282,79.8047,1599.91642Z"/><path class="cls-77" d="M108.80176,1616.93084c-1.04993,4.08438-.61416,9.31662,3.115,11.28586,4.50221,2.37745,9.53762-1.7351,14.45725-3.04636,3.24228-.86419,6.73616-.477,9.93761-1.48194a11.853,11.853,0,0,0,5.96288-18.37992C131.18049,1590.38325,112.51669,1602.4796,108.80176,1616.93084Z"/></g><path class="cls-12" d="M74.81521,1698.87588a14.4129,14.4129,0,0,0-9.95273-1.8452,8.13783,8.13783,0,0,0-2.50335.82687,7.5226,7.5226,0,0,0-2.75,2.831c-5.34924,9.10923,1.97451,16.85313,7.26907,16.85313l17.8744.05542c24.42656-1.89446-3.68117-10.42844-4.5877-12.89823C79.29492,1702.32874,76.91316,1700.1507,74.81521,1698.87588Z"/><path class="cls-79" d="M152.29758,1570.9453a5.52607,5.52607,0,0,1,6.31006-1.40638c11.06194,4.76735,46.0964,19.88537,51.48782,22.45036,6.41713,3.053-2.25854,14.45643-8.492,12.74782s-48.57487-17.54192-52.19149-23.36275C147.20132,1577.81642,149.88043,1573.64834,152.29758,1570.9453Z"/><path class="cls-80" d="M126.45109,1643.65576s31.72021,9.64449,22.1376,55.67948c0,0,15.49042-.76091,17.60141,4.185s3.49916,14.07682,3.49916,14.07682"/><path class="cls-81" d="M809.82975,1519.89543v.25363"/><path d="M135.24953,294.443a25.1914,25.1914,0,0,1-10.12529-10.2058,31.508,31.508,0,0,1-3.60205-15.32863A30.51672,30.51672,0,0,1,125.24384,253.66a26.1307,26.1307,0,0,1,10.3254-10.24606,30.56187,30.56187,0,0,1,15.00853-3.64191,31.317,31.317,0,0,1,14.4887,3.28194l-1.12017,9.76532a45.12785,45.12785,0,0,0-6.60375-2.36111,26.57741,26.57741,0,0,0-6.84451-.84071q-8.56659,0-13.16686,5.28308-4.60458,5.28288-4.60262,14.008,0,8.72547,4.5221,14.008,4.52133,5.28288,13.0074,5.28308a28.17041,28.17041,0,0,0,6.92346-.80046,42.2565,42.2565,0,0,0,6.76478-2.40136l1.12017,9.76532a34.3166,34.3166,0,0,1-14.80841,3.28194A30.5348,30.5348,0,0,1,135.24953,294.443Z"/><path d="M203.60791,261.18423q3.72163,4.92291,3.72242,13.48774v22.25249h-9.92595V275.3923q0-5.68272-1.84089-8.32465-1.84206-2.64174-5.84316-2.64174a9.90025,9.90025,0,0,0-7.76457,3.44219v29.05636h-9.92517V236.89034h9.92517v22.573a22.81162,22.81162,0,0,1,4.88324-2.3615,16.85716,16.85716,0,0,1,5.44216-.84032Q199.88626,256.26151,203.60791,261.18423Z"/><path d="M223.41916,294.92332a18.926,18.926,0,0,1-7.12436-7.5242,22.02581,22.02581,0,0,1-2.48109-10.40591,22.50732,22.50732,0,0,1,2.48109-10.486,18.80252,18.80252,0,0,1,7.12436-7.60432,22.86391,22.86391,0,0,1,21.93278,0,18.81629,18.81629,0,0,1,7.12358,7.60432,22.51741,22.51741,0,0,1,2.48188,10.486,22.03557,22.03557,0,0,1-2.48188,10.40591,18.94008,18.94008,0,0,1-7.12358,7.5242,22.86391,22.86391,0,0,1-21.93278,0Zm18.61058-8.805q2.76134-3.44082,2.76094-9.12511,0-5.76363-2.76094-9.24549a10.13245,10.13245,0,0,0-15.28837,0q-2.76252,3.48244-2.76251,9.24549,0,5.68448,2.76251,9.12511a10.20971,10.20971,0,0,0,15.28837,0Z"/><path d="M269.04353,294.92332a18.91859,18.91859,0,0,1-7.12358-7.5242,22.017,22.017,0,0,1-2.48188-10.40591,22.49829,22.49829,0,0,1,2.48188-10.486,18.79526,18.79526,0,0,1,7.12358-7.60432,22.86391,22.86391,0,0,1,21.93278,0,18.81826,18.81826,0,0,1,7.12436,7.60432,22.51683,22.51683,0,0,1,2.4811,10.486,22.035,22.035,0,0,1-2.4811,10.40591,18.94211,18.94211,0,0,1-7.12436,7.5242,22.86391,22.86391,0,0,1-21.93278,0Zm18.61058-8.805q2.76251-3.44082,2.7625-9.12511,0-5.76363-2.7625-9.24549a10.13247,10.13247,0,0,0-15.28838,0q-2.76134,3.48244-2.76094,9.24549,0,5.68448,2.76094,9.12511a10.20972,10.20972,0,0,0,15.28838,0Z"/><path d="M311.82722,297.00458a34.3701,34.3701,0,0,1-6.52324-2.2415l.881-8.48451a33.87873,33.87873,0,0,0,6.28326,3.0017,18.50549,18.50549,0,0,0,6.04328,1.00057q6.082,0,6.08392-4.00227a3.85855,3.85855,0,0,0-1.60091-3.3222,27.91465,27.91465,0,0,0-5.76421-2.76134q-5.92368-2.16157-8.72449-4.92272a10.02638,10.02638,0,0,1-2.80159-7.48433,10.35259,10.35259,0,0,1,4.00227-8.445q4.0019-3.2415,10.80614-3.24169a25.06016,25.06016,0,0,1,12.407,3.1217l-.881,8.4849a32.50659,32.50659,0,0,0-5.72279-3.20182,14.507,14.507,0,0,0-5.64305-1.12056,6.54451,6.54451,0,0,0-3.96241,1.04043,3.4698,3.4698,0,0,0-1.40079,2.96184,3.63384,3.63384,0,0,0,.84032,2.48149,7.6182,7.6182,0,0,0,2.3615,1.7209q1.51961.76156,5.04271,2.12113,5.8416,2.2419,8.40477,4.92272a9.94392,9.94392,0,0,1,2.56161,7.16422,10.43842,10.43842,0,0,1-4.08278,8.805q-4.08162,3.12189-11.6066,3.12169A31.56408,31.56408,0,0,1,311.82722,297.00458Z"/><path d="M348.72788,294.88346a18.34076,18.34076,0,0,1-7.36434-7.60433,22.8952,22.8952,0,0,1-2.44123-10.606,22.56707,22.56707,0,0,1,2.32163-10.24606,18.17369,18.17369,0,0,1,6.72335-7.40421,19.32422,19.32422,0,0,1,10.48643-2.76133,18.1811,18.1811,0,0,1,9.48508,2.32124,14.971,14.971,0,0,1,5.84316,6.24339,19.42449,19.42449,0,0,1,1.96127,8.805,26.73475,26.73475,0,0,1-.641,5.44333H349.24849q.7985,5.28289,4.16174,7.88417a12.8125,12.8125,0,0,0,8.08428,2.60148,23.07541,23.07541,0,0,0,12.00682-3.28155l.48074,8.40477a25.95306,25.95306,0,0,1-5.96354,2.20125,30.8474,30.8474,0,0,1-7.40421.84032A23.39644,23.39644,0,0,1,348.72788,294.88346Zm16.92993-22.53312a9.0956,9.0956,0,0,0-1.76194-5.52306,6.30256,6.30256,0,0,0-5.44215-2.40137A8.16948,8.16948,0,0,0,352.53,266.5873a11.121,11.121,0,0,0-3.04236,5.763Z"/><path d="M412.64311,294.28311l-16.64931-37.3814h11.04612l10.24567,25.77481,10.40591-25.77481h11.04691l-25.05487,59.39391h-9.92595Z"/><path d="M449.86426,294.92332a18.91859,18.91859,0,0,1-7.12358-7.5242,22.017,22.017,0,0,1-2.48188-10.40591,22.49829,22.49829,0,0,1,2.48188-10.486,18.79526,18.79526,0,0,1,7.12358-7.60432,22.86391,22.86391,0,0,1,21.93278,0,18.81112,18.81112,0,0,1,7.12358,7.60432,22.50791,22.50791,0,0,1,2.48188,10.486,22.02635,22.02635,0,0,1-2.48188,10.40591,18.93479,18.93479,0,0,1-7.12358,7.5242,22.86391,22.86391,0,0,1-21.93278,0Zm18.61058-8.805q2.76134-3.44082,2.76172-9.12511,0-5.76363-2.76172-9.24549a10.13247,10.13247,0,0,0-15.28838,0q-2.76134,3.48244-2.76173,9.24549,0,5.68448,2.76173,9.12511a10.20972,10.20972,0,0,0,15.28838,0Z"/><path d="M523.18483,256.90171v40.02275h-9.285l-.15947-2.40137a17.80529,17.80529,0,0,1-4.243,2.28138,12.9592,12.9592,0,0,1-4.64248.92044q-8.88435,0-12.92688-5.12283-4.04292-5.12166-4.04292-14.16821V256.90171h9.926v21.53216q0,5.60417,1.88076,8.28479,1.88074,2.68278,6.04406,2.6816a9.43639,9.43639,0,0,0,7.5238-3.36207V256.90171Z"/><path d="M532.4698,256.90171h9.285l.24076,4.24226a16.62875,16.62875,0,0,1,4.52211-3.52192,11.86706,11.86706,0,0,1,5.80329-1.52079,9.03755,9.03755,0,0,1,1.76116.16025l-.72072,9.76531a13.57941,13.57941,0,0,0-3.4418-.40023,9.214,9.214,0,0,0-4.56275,1.16082,7.09769,7.09769,0,0,0-2.96106,2.84146v27.29559h-9.926Z"/><path d="M130.52731,391.01778a17.90078,17.90078,0,0,1-7.165-7.48394,22.79832,22.79832,0,0,1-2.40136-10.486,23.2246,23.2246,0,0,1,2.40136-10.606,17.78944,17.78944,0,0,1,7.2041-7.5242,23.092,23.092,0,0,1,11.68711-2.76172,21.55645,21.55645,0,0,1,10.72562,2.56161l-.80045,8.00455a19.248,19.248,0,0,0-8.96447-2.24151q-5.68447,0-8.88474,3.44219a14.295,14.295,0,0,0,.07974,18.13023,11.29037,11.29037,0,0,0,8.72527,3.56179,18.074,18.074,0,0,0,9.12471-2.64135l.881,8.40478a20.59659,20.59659,0,0,1-5.08336,1.76115,28.57463,28.57463,0,0,1-6.123.64021A22.35324,22.35324,0,0,1,130.52731,391.01778Z"/><path d="M160.14258,390.53782a11.68213,11.68213,0,0,1-3.3222-8.76514,10.38646,10.38646,0,0,1,3.76229-8.36491,22.21291,22.21291,0,0,1,8.88552-4.48224,45.67044,45.67044,0,0,1,9.84544-1.48092q-.1618-3.52172-1.801-5.0431-1.64155-1.5196-5.40307-1.52078a18.71217,18.71217,0,0,0-5.16309.72033,36.34325,36.34325,0,0,0-5.8033,2.32163L160.263,355.838a33.21039,33.21039,0,0,1,14.56765-3.52193q7.04346,0,10.76628,3.842,3.72282,3.84242,3.72243,12.24681v10.80614a23.5613,23.5613,0,0,0,.27984,4.36263,2.32044,2.32044,0,0,0,.96071,1.681,5.22234,5.22234,0,0,0,2.281.36h1.2812l-.881,8.16479H189.639a11.26884,11.26884,0,0,1-5.52267-1.24055,8.6175,8.6175,0,0,1-3.4418-3.40193,12.89419,12.89419,0,0,1-5.2436,3.40193,19.86449,19.86449,0,0,1-7.004,1.24055A11.38758,11.38758,0,0,1,160.14258,390.53782Zm15.88872-5.12323a10.41328,10.41328,0,0,0,3.36206-2.12112v-9.12511a21.14664,21.14664,0,0,0-8.48451,2.08126q-3.68295,1.84206-3.68256,5.12283a4.68109,4.68109,0,0,0,1.2812,3.64191,5.96272,5.96272,0,0,0,4.082,1.16082A9.47041,9.47041,0,0,0,176.0313,385.41459Z"/><path d="M234.22374,352.9563V392.979h-9.285l-.16025-2.40137a17.78462,17.78462,0,0,1-4.24225,2.28138,12.96322,12.96322,0,0,1-4.64327.92044q-8.88433,0-12.92688-5.12283-4.04292-5.12166-4.04214-14.16821V352.9563h9.926v21.53216q0,5.60417,1.88075,8.28479,1.87959,2.68276,6.04328,2.6816a9.43531,9.43531,0,0,0,7.52381-3.36207V352.9563Z"/><path d="M247.87056,393.05917a34.376,34.376,0,0,1-6.524-2.24151l.881-8.48451a33.90231,33.90231,0,0,0,6.28326,3.00171,18.50892,18.50892,0,0,0,6.04328,1.00057q6.08315,0,6.08392-4.00228a3.85666,3.85666,0,0,0-1.60091-3.3222,27.924,27.924,0,0,0-5.76343-2.76133q-5.92485-2.16159-8.72527-4.92272a10.0294,10.0294,0,0,1-2.80159-7.48433,10.35481,10.35481,0,0,1,4.00227-8.445q4.00188-3.24149,10.80614-3.24168a25.05814,25.05814,0,0,1,12.407,3.12169l-.88018,8.4849a32.5401,32.5401,0,0,0-5.72357-3.20182,14.50436,14.50436,0,0,0-5.643-1.12055,6.54772,6.54772,0,0,0-3.96241,1.04043,3.46977,3.46977,0,0,0-1.40079,2.96184,3.6304,3.6304,0,0,0,.8411,2.48149,7.60472,7.60472,0,0,0,2.36072,1.7209q1.5196.76157,5.04349,2.12113,5.8416,2.24189,8.40477,4.92271a9.94352,9.94352,0,0,1,2.56083,7.16423,10.43783,10.43783,0,0,1-4.082,8.805q-4.08279,3.12189-11.6066,3.12169A31.55908,31.55908,0,0,1,247.87056,393.05917Z"/><path d="M284.77044,390.938a18.34543,18.34543,0,0,1-7.36434-7.60432,22.89522,22.89522,0,0,1-2.44124-10.606,22.57717,22.57717,0,0,1,2.32164-10.246,18.17908,18.17908,0,0,1,6.72335-7.40421,19.328,19.328,0,0,1,10.48643-2.76134,18.181,18.181,0,0,1,9.48507,2.32125,14.9661,14.9661,0,0,1,5.84317,6.24339,19.42449,19.42449,0,0,1,1.96127,8.805,26.7292,26.7292,0,0,1-.64021,5.44333H285.29105q.7985,5.28288,4.16252,7.88417a12.8094,12.8094,0,0,0,8.08428,2.60148,23.07532,23.07532,0,0,0,12.00682-3.28156l.48,8.40478a25.95985,25.95985,0,0,1-5.96276,2.20125,30.85718,30.85718,0,0,1-7.40421.84032A23.39934,23.39934,0,0,1,284.77044,390.938Zm16.92993-22.53311a9.1,9.1,0,0,0-1.76116-5.52306,6.30311,6.30311,0,0,0-5.44293-2.40137,8.172,8.172,0,0,0-5.92368,2.16138,11.12007,11.12007,0,0,0-3.04157,5.763Z"/><path d="M322.95229,393.05917a34.376,34.376,0,0,1-6.524-2.24151l.881-8.48451a33.90261,33.90261,0,0,0,6.28326,3.00171,18.50892,18.50892,0,0,0,6.04328,1.00057q6.08315,0,6.08392-4.00228a3.85666,3.85666,0,0,0-1.60091-3.3222,27.92375,27.92375,0,0,0-5.76343-2.76133q-5.92485-2.16159-8.72527-4.92272a10.0294,10.0294,0,0,1-2.80159-7.48433,10.35481,10.35481,0,0,1,4.00227-8.445q4.0019-3.24149,10.80614-3.24168a25.05821,25.05821,0,0,1,12.40706,3.12169l-.88019,8.4849a32.5401,32.5401,0,0,0-5.72357-3.20182,14.50432,14.50432,0,0,0-5.643-1.12055,6.54772,6.54772,0,0,0-3.96241,1.04043,3.46977,3.46977,0,0,0-1.40079,2.96184,3.63045,3.63045,0,0,0,.8411,2.48149,7.60472,7.60472,0,0,0,2.36072,1.7209q1.5196.76157,5.04349,2.12113,5.8416,2.24189,8.40478,4.92271a9.94352,9.94352,0,0,1,2.56083,7.16423,10.43784,10.43784,0,0,1-4.082,8.805q-4.08279,3.12189-11.6066,3.12169A31.55908,31.55908,0,0,1,322.95229,393.05917Z"/><path d="M351.48726,382.09278h10.40591V392.979H351.48726Z"/><rect class="cls-22" x="124" y="450.7795" width="408" height="108" rx="38.41707"/><path class="cls-82" d="M229.33585,516.18658a9.15818,9.15818,0,0,1-3.64228-3.10867c-3.68219-5.39491,3.69566-10.77332,4.6242-14.90014a8.31787,8.31787,0,0,0-2.31208-8.04951c5.56613,6.42248-6.25677,13.54414-9.76215,16.95534a15.27323,15.27323,0,0,0-2.34288,3.00383c1.44372,3.95385-.99111,7.87686-1.27482,8.56913a9.61687,9.61687,0,0,0,3.87457,4.44041c3.548,2.34014,7.52843,1.48609,10.87091-.201A3.754,3.754,0,0,0,229.33585,516.18658Z"/><path class="cls-83" d="M185.718,519.83141c-11.40606-4.06427-11.10521-13.81222-10.64958-19.34585.52061-6.32361,15.36581-2.422,17.292-7.00807,1.92619-4.58562,8.5364-18.5939,25.05193-18.26658,8.40476.16644,15.7846,2.871,20.24053,6.53412,4.89489,4.02474,7.00048,12.15069,6.44654,18.28287a30.09843,30.09843,0,0,1-11.86983,21.67054c-6.10533,4.53739-15.56854,3.47766-16.9045-3.24419m1.18526-8.97824c2.445-4.32624,7.37428-7.34706,9.79183-9.5716,7.011-6.45155.29455-10.54053.29455-10.54053M175.344,503.835c1.0581.17453,3.33531.31865,4.187-1.44308a9.28959,9.28959,0,0,0,.78833-4.77733m27.57852-5.28554s2.9987-2.17983,5.97148-.61772m-6.90792,20.81s-10.4761-1.90548-15.04422,3.09c-1.90379,2.08152.6354,6.92587-5.95112,9.94623-2.83263,1.29866-2.05023,5.58362-2.05023,5.58362s4.86842,5.84928,7.41742,7.15137c6.469,3.30362,15.78534,2.47457,18.187.37018m-3.27733-24.74209a21.10239,21.10239,0,0,1,6.90384-7.8449,1.78486,1.78486,0,0,1,2.64675.86071c3.88126,10.12443-4.79825,17.27367-4.79825,17.27367m-16.71178,3.86052s3.95624-2.81217,8.17149-1.25681m-7.26412,4.69744a17.65641,17.65641,0,0,1,12.2103,3.87274"/><path class="cls-82" d="M170.69373,472.8017a5.60828,5.60828,0,0,0-2.8354.76462,5.63457,5.63457,0,0,0-8.46864,4.86861c0,4.93673,8.46864,9.41349,8.46864,9.41349s8.46864-4.52656,8.46864-9.41349a5.63309,5.63309,0,0,0-5.63324-5.63323Z"/><ellipse class="cls-84" cx="197.2471" cy="520.51989" rx="2.18579" ry="1.09289" transform="translate(-66.58536 30.37725) rotate(-7.53873)"/><path d="M280.48242,510.24239H273.3418l-1.623,4.648h-3.47266l6.97266-19.6001h3.38672l6.97265,19.6001h-3.47265Zm-1.12012-3.13623-2.43652-7-2.46387,7Z"/><path d="M298.29,502.40255a7.44711,7.44711,0,0,1,1.34473,4.67578v7.812h-3.47266v-7.53222a5.0999,5.0999,0,0,0-.6582-2.89795,2.40112,2.40112,0,0,0-2.11329-.938,3.32238,3.32238,0,0,0-2.63281,1.2041v10.16406h-3.47168v-14h3.248l.05566.98a6.54292,6.54292,0,0,1,3.752-1.2041A4.68746,4.68746,0,0,1,298.29,502.40255Z"/><path d="M302.74219,495.29024h3.47168v3.47217h-3.47168Zm0,5.6001h3.47168v14h-3.47168Z"/><path d="M329.32812,502.36056a7.41092,7.41092,0,0,1,1.35743,4.7456v7.78418h-3.47266v-7.53222a5.36785,5.36785,0,0,0-.61523-2.91163,2.244,2.244,0,0,0-2.01563-.92431,2.42075,2.42075,0,0,0-2.07226.938,4.35447,4.35447,0,0,0-.7002,2.646v7.78418h-3.47168v-7.53222a5.16906,5.16906,0,0,0-.64453-2.91163,2.31729,2.31729,0,0,0-2.04395-.92431,3.46327,3.46327,0,0,0-2.71582,1.2041v10.16406h-3.47265v-14h2.96875l.11133,1.12012a6.998,6.998,0,0,1,4.11621-1.34424,4.518,4.518,0,0,1,4.00488,1.93213,4.74842,4.74842,0,0,1,1.90332-1.42822,6.54412,6.54412,0,0,1,2.60449-.50391A5.01234,5.01234,0,0,1,329.32812,502.36056Z"/><path d="M333.919,514.03634a4.08762,4.08762,0,0,1-1.16211-3.06592,3.63449,3.63449,0,0,1,1.31543-2.92627,7.78484,7.78484,0,0,1,3.10937-1.56787,15.95718,15.95718,0,0,1,3.44336-.51807,2.47982,2.47982,0,0,0-.62988-1.76367,2.73955,2.73955,0,0,0-1.88965-.53223,6.54071,6.54071,0,0,0-1.80664.252,12.70372,12.70372,0,0,0-2.0293.812l-.30859-2.82813a11.62082,11.62082,0,0,1,5.0957-1.23193,5.00311,5.00311,0,0,1,3.76563,1.34424,5.98072,5.98072,0,0,1,1.30273,4.28369v3.78027a8.26425,8.26425,0,0,0,.09766,1.52588.81328.81328,0,0,0,.33593.58789,1.82891,1.82891,0,0,0,.79883.126h.44727l-.30762,2.856h-1.26074a3.94262,3.94262,0,0,1-1.93164-.4336,3.00987,3.00987,0,0,1-1.20313-1.19043,4.52161,4.52161,0,0,1-1.834,1.19043,6.95677,6.95677,0,0,1-2.45117.4336A3.98292,3.98292,0,0,1,333.919,514.03634Zm5.55761-1.792a3.63613,3.63613,0,0,0,1.17578-.74219v-3.1919a7.39271,7.39271,0,0,0-2.96679.728,1.97624,1.97624,0,0,0-1.28907,1.792,1.63683,1.63683,0,0,0,.44825,1.27393,2.0868,2.0868,0,0,0,1.42871.40625A3.31008,3.31008,0,0,0,339.47656,512.24435Z"/><path d="M348.63281,514.14815a3.86473,3.86473,0,0,1-.89648-2.646V493.89034H351.209v16.18408a6.82913,6.82913,0,0,0,.125,1.582.716.716,0,0,0,.44825.56,4.28392,4.28392,0,0,0,1.10644.09766l-.30859,2.856h-1.25977A3.38157,3.38157,0,0,1,348.63281,514.14815Z"/><path d="M361.93164,495.29024h7.168a7.51246,7.51246,0,0,1,4.94238,1.49805,5.43452,5.43452,0,0,1,1.80567,4.438,5.92446,5.92446,0,0,1-.86719,3.34619,6.13077,6.13077,0,0,1-2.46485,2.08594l4.42383,8.23193h-4.0039l-3.7793-7.27978h-3.64063v7.27978h-3.584Zm6.2168,9.32422q3.94629,0,3.94726-3.19189a2.96816,2.96816,0,0,0-.89648-2.33838,4.32741,4.32741,0,0,0-2.91113-.79785h-2.77247v6.32812Z"/><path d="M378.73242,495.29024h3.47168v3.47217h-3.47168Zm0,5.6001h3.47168v14h-3.47168Z"/><path d="M386.26367,520.86837A3.29371,3.29371,0,0,1,384.5,517.9421a3.78224,3.78224,0,0,1,2.26758-3.30371,2.26291,2.26291,0,0,1-1.23242-1.98828,1.86661,1.86661,0,0,1,.3789-1.148,2.71079,2.71079,0,0,1,1.02149-.812,4.82171,4.82171,0,0,1-1.60938-1.93164,6.02449,6.02449,0,0,1-.54687-2.57618,5.94771,5.94771,0,0,1,.67187-2.814,4.9699,4.9699,0,0,1,1.96094-2.01611,6.00972,6.00972,0,0,1,3.05176-.7417,5.62481,5.62481,0,0,1,3.19238.896,5.27656,5.27656,0,0,1,1.27344-.43408,7.74323,7.74323,0,0,1,1.72265-.18213h.89551l-.22363,2.18408h-1.26074c-.31739,0-.5791.00977-.78418.02784a5.51,5.51,0,0,1,.83984,3.08007,6.02937,6.02937,0,0,1-.6582,2.814,4.86493,4.86493,0,0,1-1.94532,2.01611,6.01231,6.01231,0,0,1-3.05175.7417,6.61332,6.61332,0,0,1-1.48438-.1958.46585.46585,0,0,0-.30761.44824.63977.63977,0,0,0,.43359.57373,5.32189,5.32189,0,0,0,1.4707.3501l2.40723.30811q4.81494.64452,4.8164,4.06006a3.933,3.933,0,0,1-1.80566,3.38769,8.62728,8.62728,0,0,1-4.99805,1.26025A9.02,9.02,0,0,1,386.26367,520.86837Zm8.45606-3.31787a1.26968,1.26968,0,0,0-.61621-1.16211,5.88782,5.88782,0,0,0-2.04395-.602l-3.08008-.44776a2.11477,2.11477,0,0,0-1.5957,1.96,1.61554,1.61554,0,0,0,.97949,1.51171,6.1795,6.1795,0,0,0,2.77246.50391Q394.72022,519.31417,394.71973,517.5505Zm-2.39356-9.16992a4.004,4.004,0,0,0,0-4.396,2.28005,2.28005,0,0,0-1.8623-.79834,2.30729,2.30729,0,0,0-1.88965.79834,3.99911,3.99911,0,0,0,0,4.396,2.30845,2.30845,0,0,0,1.88965.79785A2.28119,2.28119,0,0,0,392.32617,508.38058Z"/><path d="M410.49805,502.38839a7.66048,7.66048,0,0,1,1.30078,4.71777v7.78418h-3.47071v-7.53222a5.16906,5.16906,0,0,0-.64453-2.91163,2.31726,2.31726,0,0,0-2.04394-.92431,3.46325,3.46325,0,0,0-2.71582,1.2041v10.16406h-3.47266v-21h3.47266v7.896a7.99135,7.99135,0,0,1,1.707-.82617,5.91332,5.91332,0,0,1,1.9043-.29395A4.65238,4.65238,0,0,1,410.49805,502.38839Z"/><path d="M416.50391,514.09249a3.77987,3.77987,0,0,1-.95313-2.59033V503.7463h-1.9873l.30761-2.856h1.67969v-3.08008l3.47266-.36377v3.44385h3.08008v2.856h-3.08008v6.32812a6.42311,6.42311,0,0,0,.126,1.55372.768.768,0,0,0,.53223.56,5.71676,5.71676,0,0,0,1.46973.126h.95215l-.3086,2.856h-2.49219A3.53476,3.53476,0,0,1,416.50391,514.09249Z"/><path d="M425.89648,514.91817a12.04972,12.04972,0,0,1-2.28125-.78369l.30762-2.96826a11.87913,11.87913,0,0,0,2.19824,1.05029,6.47706,6.47706,0,0,0,2.11329.34961q2.12841,0,2.1289-1.3999a1.35036,1.35036,0,0,0-.56055-1.16211,9.74375,9.74375,0,0,0-2.01562-.96582,8.50719,8.50719,0,0,1-3.05273-1.72217,3.51083,3.51083,0,0,1-.9795-2.61767,3.62184,3.62184,0,0,1,1.40039-2.9541,5.8299,5.8299,0,0,1,3.78028-1.13379,8.76589,8.76589,0,0,1,4.33984,1.09179l-.30859,2.96778a11.36284,11.36284,0,0,0-2.002-1.11963,5.06812,5.06812,0,0,0-1.97363-.39209,2.28978,2.28978,0,0,0-1.38574.36377,1.21384,1.21384,0,0,0-.49024,1.03613,1.26874,1.26874,0,0,0,.29395.86817,2.68294,2.68294,0,0,0,.8252.602q.53319.26586,1.76464.7417a8.1031,8.1031,0,0,1,2.94043,1.72216,3.48,3.48,0,0,1,.89551,2.50586,3.651,3.651,0,0,1-1.42773,3.08008,6.56833,6.56833,0,0,1-4.05957,1.0918A11.058,11.058,0,0,1,425.89648,514.91817Z"/><line class="cls-85" x1="366.47763" y1="83.79437" x2="470.61525" y2="83.79437"/><rect class="cls-22" x="124" y="577.7795" width="408" height="108" rx="38.41707"/><path class="cls-82" d="M229.33585,643.18658a9.15818,9.15818,0,0,1-3.64228-3.10867c-3.68219-5.39491,3.69566-10.77332,4.6242-14.90014a8.31787,8.31787,0,0,0-2.31208-8.04951c5.56613,6.42248-6.25677,13.54414-9.76215,16.95534a15.27323,15.27323,0,0,0-2.34288,3.00383c1.44372,3.95385-.99111,7.87686-1.27482,8.56913a9.61687,9.61687,0,0,0,3.87457,4.44041c3.548,2.34014,7.52843,1.48609,10.87091-.201A3.754,3.754,0,0,0,229.33585,643.18658Z"/><path class="cls-83" d="M185.718,646.83141c-11.40606-4.06427-11.10521-13.81222-10.64958-19.34585.52061-6.32361,15.36581-2.422,17.292-7.00807,1.92619-4.58562,8.5364-18.5939,25.05193-18.26658,8.40476.16644,15.7846,2.871,20.24053,6.53412,4.89489,4.02474,7.00048,12.15069,6.44654,18.28287a30.09843,30.09843,0,0,1-11.86983,21.67054c-6.10533,4.53739-15.56854,3.47766-16.9045-3.24419m1.18526-8.97824c2.445-4.32624,7.37428-7.34706,9.79183-9.5716,7.011-6.45155.29455-10.54053.29455-10.54053M175.344,630.835c1.0581.17453,3.33531.31865,4.187-1.44308a9.28959,9.28959,0,0,0,.78833-4.77733m27.57852-5.28554s2.9987-2.17983,5.97148-.61772m-6.90792,20.80995s-10.4761-1.90548-15.04422,3.09c-1.90379,2.08152.6354,6.92587-5.95112,9.94623-2.83263,1.29866-2.05023,5.58362-2.05023,5.58362s4.86842,5.84928,7.41742,7.15137c6.469,3.30362,15.78534,2.47457,18.187.37018m-3.27733-24.74209a21.10239,21.10239,0,0,1,6.90384-7.8449,1.78486,1.78486,0,0,1,2.64675.86071c3.88126,10.12443-4.79825,17.27367-4.79825,17.27367m-16.71178,3.86052s3.95624-2.81217,8.17149-1.25681m-7.26412,4.69744a17.65641,17.65641,0,0,1,12.2103,3.87274"/><path class="cls-82" d="M170.69373,599.8017a5.60828,5.60828,0,0,0-2.8354.76462,5.63457,5.63457,0,0,0-8.46864,4.86861c0,4.93673,8.46864,9.41349,8.46864,9.41349s8.46864-4.52656,8.46864-9.41349a5.63309,5.63309,0,0,0-5.63324-5.63323Z"/><ellipse class="cls-84" cx="197.2471" cy="647.51989" rx="2.18579" ry="1.09289" transform="translate(-83.2473 31.47499) rotate(-7.53873)"/><path d="M280.48242,637.24239H273.3418l-1.623,4.648h-3.47266l6.97266-19.6001h3.38672l6.97265,19.6001h-3.47265Zm-1.12012-3.13623-2.43652-7-2.46387,7Z"/><path d="M298.29,629.40255a7.44711,7.44711,0,0,1,1.34473,4.67578v7.812h-3.47266v-7.53222a5.0999,5.0999,0,0,0-.6582-2.898,2.40112,2.40112,0,0,0-2.11329-.938,3.32238,3.32238,0,0,0-2.63281,1.2041v10.16406h-3.47168v-14h3.248l.05566.98a6.54292,6.54292,0,0,1,3.752-1.2041A4.68746,4.68746,0,0,1,298.29,629.40255Z"/><path d="M302.74219,622.29024h3.47168v3.47217h-3.47168Zm0,5.6001h3.47168v14h-3.47168Z"/><path d="M329.32812,629.36056a7.41092,7.41092,0,0,1,1.35743,4.7456v7.78418h-3.47266v-7.53222a5.36785,5.36785,0,0,0-.61523-2.91163,2.244,2.244,0,0,0-2.01563-.92431,2.42075,2.42075,0,0,0-2.07226.938,4.35447,4.35447,0,0,0-.7002,2.646v7.78418h-3.47168v-7.53222a5.16906,5.16906,0,0,0-.64453-2.91163,2.31729,2.31729,0,0,0-2.04395-.92431,3.46327,3.46327,0,0,0-2.71582,1.2041v10.16406h-3.47265v-14h2.96875l.11133,1.12012a6.998,6.998,0,0,1,4.11621-1.34424,4.518,4.518,0,0,1,4.00488,1.93213,4.74842,4.74842,0,0,1,1.90332-1.42822,6.54412,6.54412,0,0,1,2.60449-.50391A5.01234,5.01234,0,0,1,329.32812,629.36056Z"/><path d="M333.919,641.03634a4.08762,4.08762,0,0,1-1.16211-3.06592,3.63449,3.63449,0,0,1,1.31543-2.92627,7.78484,7.78484,0,0,1,3.10937-1.56787,15.95718,15.95718,0,0,1,3.44336-.51807,2.47982,2.47982,0,0,0-.62988-1.76367,2.73955,2.73955,0,0,0-1.88965-.53223,6.54071,6.54071,0,0,0-1.80664.252,12.70372,12.70372,0,0,0-2.0293.812l-.30859-2.82813a11.62082,11.62082,0,0,1,5.0957-1.23193,5.00311,5.00311,0,0,1,3.76563,1.34424,5.98072,5.98072,0,0,1,1.30273,4.28369v3.78027a8.26425,8.26425,0,0,0,.09766,1.52588.81328.81328,0,0,0,.33593.58789,1.82891,1.82891,0,0,0,.79883.126h.44727l-.30762,2.856h-1.26074a3.94262,3.94262,0,0,1-1.93164-.4336,3.00987,3.00987,0,0,1-1.20313-1.19043,4.52161,4.52161,0,0,1-1.834,1.19043,6.95677,6.95677,0,0,1-2.45117.4336A3.98292,3.98292,0,0,1,333.919,641.03634Zm5.55761-1.792a3.63613,3.63613,0,0,0,1.17578-.74219v-3.1919a7.39271,7.39271,0,0,0-2.96679.728,1.97624,1.97624,0,0,0-1.28907,1.792,1.63683,1.63683,0,0,0,.44825,1.27393,2.0868,2.0868,0,0,0,1.42871.40625A3.31008,3.31008,0,0,0,339.47656,639.24435Z"/><path d="M348.63281,641.14815a3.86473,3.86473,0,0,1-.89648-2.646V620.89034H351.209v16.18408a6.82913,6.82913,0,0,0,.125,1.582.716.716,0,0,0,.44825.56,4.28392,4.28392,0,0,0,1.10644.09766l-.30859,2.856h-1.25977A3.38157,3.38157,0,0,1,348.63281,641.14815Z"/><path d="M361.93164,622.29024h7.168a7.51246,7.51246,0,0,1,4.94238,1.498,5.43452,5.43452,0,0,1,1.80567,4.438,5.92446,5.92446,0,0,1-.86719,3.34619,6.13077,6.13077,0,0,1-2.46485,2.08594l4.42383,8.23193h-4.0039l-3.7793-7.27978h-3.64063v7.27978h-3.584Zm6.2168,9.32422q3.94629,0,3.94726-3.19189a2.96816,2.96816,0,0,0-.89648-2.33838,4.32741,4.32741,0,0,0-2.91113-.79785h-2.77247v6.32812Z"/><path d="M378.73242,622.29024h3.47168v3.47217h-3.47168Zm0,5.6001h3.47168v14h-3.47168Z"/><path d="M386.26367,647.86837A3.29371,3.29371,0,0,1,384.5,644.9421a3.78224,3.78224,0,0,1,2.26758-3.30371,2.26291,2.26291,0,0,1-1.23242-1.98828,1.86661,1.86661,0,0,1,.3789-1.148,2.71079,2.71079,0,0,1,1.02149-.812,4.82171,4.82171,0,0,1-1.60938-1.93164,6.02449,6.02449,0,0,1-.54687-2.57618,5.94771,5.94771,0,0,1,.67187-2.814,4.9699,4.9699,0,0,1,1.96094-2.01611,6.00972,6.00972,0,0,1,3.05176-.7417,5.62481,5.62481,0,0,1,3.19238.896,5.27656,5.27656,0,0,1,1.27344-.43408,7.74323,7.74323,0,0,1,1.72265-.18213h.89551l-.22363,2.18408h-1.26074c-.31739,0-.5791.00977-.78418.02784a5.51,5.51,0,0,1,.83984,3.08007,6.02937,6.02937,0,0,1-.6582,2.814,4.86493,4.86493,0,0,1-1.94532,2.01611,6.01231,6.01231,0,0,1-3.05175.7417,6.61332,6.61332,0,0,1-1.48438-.1958.46585.46585,0,0,0-.30761.44824.63977.63977,0,0,0,.43359.57373,5.32189,5.32189,0,0,0,1.4707.3501l2.40723.30811q4.81494.64452,4.8164,4.06006a3.933,3.933,0,0,1-1.80566,3.38769,8.62728,8.62728,0,0,1-4.99805,1.26025A9.02,9.02,0,0,1,386.26367,647.86837Zm8.45606-3.31787a1.26968,1.26968,0,0,0-.61621-1.16211,5.88782,5.88782,0,0,0-2.04395-.602l-3.08008-.44776a2.11477,2.11477,0,0,0-1.5957,1.96,1.61554,1.61554,0,0,0,.97949,1.51171,6.1795,6.1795,0,0,0,2.77246.50391Q394.72022,646.31417,394.71973,644.5505Zm-2.39356-9.16992a4.004,4.004,0,0,0,0-4.396,2.28005,2.28005,0,0,0-1.8623-.79834,2.30729,2.30729,0,0,0-1.88965.79834,3.99911,3.99911,0,0,0,0,4.396,2.30845,2.30845,0,0,0,1.88965.79785A2.28119,2.28119,0,0,0,392.32617,635.38058Z"/><path d="M410.49805,629.38839a7.66048,7.66048,0,0,1,1.30078,4.71777v7.78418h-3.47071v-7.53222a5.16906,5.16906,0,0,0-.64453-2.91163,2.31726,2.31726,0,0,0-2.04394-.92431,3.46325,3.46325,0,0,0-2.71582,1.2041v10.16406h-3.47266v-21h3.47266v7.896a7.99135,7.99135,0,0,1,1.707-.82617,5.91332,5.91332,0,0,1,1.9043-.29395A4.65238,4.65238,0,0,1,410.49805,629.38839Z"/><path d="M416.50391,641.09249a3.77987,3.77987,0,0,1-.95313-2.59033V630.7463h-1.9873l.30761-2.856h1.67969v-3.08008l3.47266-.36377v3.44385h3.08008v2.856h-3.08008v6.32812a6.42311,6.42311,0,0,0,.126,1.55372.768.768,0,0,0,.53223.56,5.71676,5.71676,0,0,0,1.46973.126h.95215l-.3086,2.856h-2.49219A3.53476,3.53476,0,0,1,416.50391,641.09249Z"/><path d="M425.89648,641.91817a12.04972,12.04972,0,0,1-2.28125-.78369l.30762-2.96826a11.87913,11.87913,0,0,0,2.19824,1.05029,6.47706,6.47706,0,0,0,2.11329.34961q2.12841,0,2.1289-1.3999a1.35036,1.35036,0,0,0-.56055-1.16211,9.74375,9.74375,0,0,0-2.01562-.96582,8.50719,8.50719,0,0,1-3.05273-1.72217,3.51083,3.51083,0,0,1-.9795-2.61767,3.62184,3.62184,0,0,1,1.40039-2.9541,5.8299,5.8299,0,0,1,3.78028-1.13379,8.76589,8.76589,0,0,1,4.33984,1.09179l-.30859,2.96778a11.36284,11.36284,0,0,0-2.002-1.11963,5.06812,5.06812,0,0,0-1.97363-.39209,2.28978,2.28978,0,0,0-1.38574.36377,1.21384,1.21384,0,0,0-.49024,1.03613,1.26874,1.26874,0,0,0,.29395.86817,2.68294,2.68294,0,0,0,.8252.60205q.53319.26586,1.76464.7417a8.1031,8.1031,0,0,1,2.94043,1.72216,3.48,3.48,0,0,1,.89551,2.50586,3.651,3.651,0,0,1-1.42773,3.08008,6.56833,6.56833,0,0,1-4.05957,1.0918A11.058,11.058,0,0,1,425.89648,641.91817Z"/></svg>