<?xml version="1.0" encoding="UTF-8"?>
<svg width="144px" height="49px" viewBox="0 0 144 49" version="1.1" xmlns="http://www.w3.org/2000/svg" xmlns:xlink="http://www.w3.org/1999/xlink">
    <!-- Generator: Sketch 50.2 (55047) - http://www.bohemiancoding.com/sketch -->
    <title>App-Store-Badge-US-White</title>
    <desc>Created with Sketch.</desc>
    <defs></defs>
    <g id="Page-1" stroke="none" stroke-width="1" fill="none" fill-rule="evenodd">
        <g id="App-Store-Badge-US-White">
            <path d="M132.533,0.000156438 L11.4737,0.000156438 C11.0325,0.000156438 10.5965,0.000156438 10.1564,0.00256318 C9.78796,0.00496991 9.42249,0.0119615 9.05054,0.017846 C8.24249,0.0273547 7.43635,0.0984431 6.63911,0.230493 C5.84299,0.365418 5.07181,0.61979 4.35165,0.985005 C3.63237,1.35331 2.97514,1.83189 2.40381,2.40337 C1.82948,2.97324 1.35074,3.63194 0.98598,4.35414 C0.620217,5.07489 0.366595,5.84725 0.233875,6.64453 C0.0998928,7.44081 0.0277959,8.24627 0.018231,9.05368 C0.00706378,9.42263 0.00588447,9.79281 0,10.1618 L0,37.9768 C0.00588447,38.3504 0.00706378,38.7124 0.018231,39.0862 C0.0277988,39.8935 0.0998957,40.699 0.233875,41.4952 C0.366228,42.2929 0.619865,43.0657 0.98598,43.7868 C1.35057,44.5066 1.82939,45.1627 2.40381,45.7294 C2.97298,46.3034 3.63063,46.7823 4.35165,47.1478 C5.0718,47.514 5.8429,47.7699 6.63911,47.9069 C7.43648,48.0379 8.24254,48.109 9.05054,48.1196 C9.42249,48.1278 9.78796,48.1325 10.1564,48.1325 C10.5965,48.1349 11.0325,48.1349 11.4737,48.1349 L132.533,48.1349 C132.965,48.1349 133.405,48.1349 133.837,48.1325 C134.204,48.1325 134.58,48.1278 134.947,48.1196 C135.753,48.1095 136.558,48.0384 137.353,47.9069 C138.152,47.7689 138.926,47.5131 139.65,47.1478 C140.37,46.7821 141.027,46.3032 141.596,45.7294 C142.169,45.1604 142.648,44.5049 143.018,43.7868 C143.381,43.0652 143.632,42.2925 143.763,41.4952 C143.897,40.6988 143.971,39.8936 143.986,39.0862 C143.991,38.7124 143.991,38.3504 143.991,37.9768 C144,37.5396 144,37.1048 144,36.6605 L144,11.4756 C144,11.035 144,10.5978 143.991,10.1618 C143.991,9.79281 143.991,9.42263 143.986,9.05363 C143.971,8.24615 143.897,7.44087 143.763,6.64448 C143.632,5.84766 143.381,5.07537 143.018,4.35409 C142.275,2.90653 141.097,1.72822 139.65,0.984897 C138.926,0.620574 138.152,0.36627 137.353,0.230385 C136.558,0.097753 135.753,0.0266399 134.947,0.0176775 C134.58,0.011805 134.204,0.00475331 133.837,0.00240674 C133.405,0 132.965,0 132.533,0 L132.533,0.000156438 Z" id="Shape" fill="#000000" fill-rule="nonzero"></path>
            <path d="M10.1615,47.0826 C9.79485,47.0826 9.43707,47.0779 9.0733,47.0697 C8.31973,47.0599 7.56792,46.9943 6.82404,46.8734 C6.1304,46.754 5.45846,46.5317 4.83037,46.2141 C4.20804,45.8991 3.64042,45.486 3.14926,44.9907 C2.651,44.5013 2.23617,43.9336 1.92121,43.3102 C1.60279,42.6828 1.38242,42.0102 1.26778,41.316 C1.14399,40.5701 1.07701,39.8158 1.06742,39.0597 C1.05979,38.8059 1.0498,37.9609 1.0498,37.9609 L1.0498,10.1624 C1.0498,10.1624 1.06044,9.3304 1.06748,9.08596 C1.07666,8.33106 1.14325,7.57796 1.26668,6.83317 C1.38152,6.13704 1.60206,5.46255 1.92066,4.83305 C2.23445,4.21008 2.64698,3.64199 3.14225,3.1508 C3.63695,2.65494 4.20639,2.23976 4.82978,1.92039 C5.45643,1.60376 6.1271,1.38311 6.81933,1.26583 C7.56566,1.14377 8.32008,1.07777 9.07626,1.0684 L10.1621,1.05371 L133.831,1.05371 L134.929,1.06899 C135.679,1.0779 136.426,1.1433 137.166,1.26465 C137.865,1.3834 138.543,1.60559 139.176,1.92391 C140.425,2.56753 141.441,3.58579 142.083,4.83598 C142.396,5.46114 142.613,6.13013 142.727,6.82024 C142.851,7.57115 142.921,8.33017 142.936,9.09125 C142.939,9.43204 142.939,9.79811 142.939,10.1624 C142.949,10.6137 142.949,11.0432 142.949,11.4762 L142.949,36.6611 C142.949,37.0983 142.949,37.5249 142.939,37.955 C142.939,38.3463 142.939,38.7048 142.935,39.0738 C142.92,39.8213 142.852,40.5668 142.729,41.3042 C142.617,42.0035 142.397,42.6813 142.079,43.3139 C141.762,43.9305 141.349,44.4932 140.857,44.9814 C140.365,45.4793 139.797,45.8948 139.173,46.2118 C138.541,46.5319 137.864,46.7549 137.166,46.8734 C136.422,46.9949 135.67,47.0605 134.916,47.0697 C134.564,47.0779 134.195,47.0826 133.836,47.0826 L132.532,47.085 L10.1615,47.0826 Z" id="Shape" fill="#FFFFFF" fill-rule="nonzero"></path>
            <path d="M89.8654,34.9887 C87.8982,34.9887 86.4586,34.0158 86.2929,32.5339 L84.0037,32.5338 C84.1482,35.2366 86.3857,36.9465 89.6997,36.9465 C93.2417,36.9465 95.4674,35.1955 95.4674,32.3998 C95.4674,30.214 94.1947,28.9824 91.1287,28.2573 L89.4823,27.8531 C87.5562,27.3772 86.7689,26.7555 86.7689,25.6991 C86.7689,24.3735 88.0016,23.4627 89.8031,23.4627 C91.6047,23.4627 92.8374,24.3629 92.9726,25.8542 L95.2301,25.8542 C95.1572,23.2759 92.9926,21.5049 89.8337,21.5049 C86.6443,21.5049 84.3974,23.2759 84.3974,25.8542 C84.3974,27.9366 85.6713,29.2198 88.4153,29.8826 L90.352,30.3492 C92.2886,30.8251 93.1065,31.5196 93.1065,32.6795 C93.1065,34.0157 91.7504,34.9887 89.8654,34.9887 Z M50.9052,32.6584 L45.2092,32.6584 L43.8413,36.6974 L41.4287,36.6974 L46.8239,21.754 L49.3305,21.754 L54.7257,36.6974 L52.272,36.6974 L50.9052,32.6584 Z M45.7992,30.7959 L50.3142,30.7959 L48.0884,24.2409 L48.0261,24.2409 L45.7992,30.7959 Z M61.831,36.8108 C64.5656,36.8108 66.3777,34.6356 66.3777,31.2499 C66.3777,27.8737 64.555,25.6879 61.7899,25.6878 C60.367,25.642 59.0341,26.382 58.3208,27.6139 L58.2796,27.6139 L58.2796,25.8018 L56.115,25.8018 L56.115,40.301 L58.3513,40.301 L58.3513,34.9046 L58.4031,34.9046 C59.0861,36.1444 60.4175,36.8847 61.831,36.8108 Z M64.0792,31.2502 C64.0792,29.0444 62.9392,27.5942 61.2,27.5942 C59.4913,27.5942 58.342,29.0749 58.342,31.2502 C58.342,33.4454 59.4913,34.9155 61.2,34.9155 C62.9393,34.9155 64.0791,33.4759 64.0791,31.2502 L64.0792,31.2502 Z M73.8218,36.8108 C76.5565,36.8108 78.3692,34.6356 78.3692,31.2499 C78.3692,27.8737 76.5459,25.6879 73.7807,25.6878 C72.3578,25.642 71.025,26.382 70.3116,27.6139 L70.2705,27.6139 L70.2705,25.8018 L68.1058,25.8018 L68.1058,40.301 L70.3422,40.301 L70.3422,34.9046 L70.3939,34.9046 C71.0769,36.1444 72.4084,36.8847 73.8218,36.8108 Z M76.07,31.2502 C76.07,29.0444 74.9301,27.5942 73.1908,27.5942 C71.4821,27.5942 70.3328,29.0749 70.3328,31.2502 C70.3328,33.4454 71.4821,34.9155 73.1908,34.9155 C74.9301,34.9155 76.07,33.4759 76.07,31.2502 Z M100.296,23.2254 L100.296,25.8037 L102.368,25.8037 L102.368,27.5747 L100.296,27.5747 L100.296,33.581 C100.296,34.5141 100.711,34.9489 101.622,34.9489 C101.868,34.9446 102.114,34.9273 102.358,34.8971 L102.358,36.6575 C101.948,36.734 101.532,36.7687 101.116,36.7609 C98.9097,36.7609 98.0495,35.9324 98.0495,33.8195 L98.0495,27.5747 L96.4654,27.5747 L96.4654,25.8037 L98.0495,25.8037 L98.0495,23.2254 L100.296,23.2254 Z M108.735,25.6693 C105.587,25.6693 103.568,27.8234 103.568,31.2513 C103.568,34.6887 105.567,36.8333 108.735,36.8333 C111.904,36.8333 113.903,34.6887 113.903,31.2513 C113.903,27.8233 111.894,25.6693 108.735,25.6693 Z M111.625,31.2517 C111.625,28.9002 110.547,27.5123 108.735,27.5123 C106.923,27.5123 105.845,28.9107 105.845,31.2517 C105.845,33.6126 106.923,34.9899 108.735,34.9899 C110.547,34.9899 111.625,33.6126 111.625,31.2517 Z M117.879,25.8017 L115.746,25.8017 L115.746,36.6967 L117.983,36.6967 L117.983,30.2345 C117.908,29.5807 118.123,28.927 118.571,28.4451 C119.019,27.9632 119.656,27.7012 120.313,27.7278 C120.653,27.7179 120.993,27.7636 121.318,27.863 L121.318,25.7712 C121.066,25.7148 120.809,25.6868 120.552,25.6877 C119.322,25.6408 118.229,26.4624 117.931,27.6561 L117.879,27.6561 L117.879,25.8017 Z M131.63,33.4982 C131.329,35.476 129.403,36.8333 126.938,36.8333 C123.769,36.8333 121.802,34.7098 121.802,31.303 C121.802,27.8856 123.78,25.6693 126.844,25.6693 C129.859,25.6693 131.754,27.7399 131.754,31.0433 L131.754,31.8095 L124.059,31.8095 L124.059,31.9447 C123.987,32.7558 124.268,33.5586 124.828,34.1491 C125.389,34.7395 126.176,35.0606 126.99,35.0306 C128.075,35.1323 129.099,34.5091 129.506,33.4982 L131.63,33.4982 Z M129.515,30.245 L124.06899,30.245 C124.067,29.5094 124.359,28.8035 124.88,28.2843 C125.401,27.765 126.108,27.4754 126.843,27.4798 C127.573,27.4641 128.276,27.7536 128.783,28.2785 C129.291,28.8034 129.556,29.5161 129.515,30.245 Z" id="Shape" fill="#000000"></path>
            <path d="M71.1114,10.1543 L72.1808,10.1543 L72.1808,17.6883 L71.1114,17.6883 L71.1114,10.1543 Z M48.0522,11.4918 C47.3977,10.8006 46.4678,10.4394 45.5184,10.5076 L42.9248,10.5076 L42.9248,17.6879 L45.5184,17.6879 C47.6572,17.6879 48.897,16.3693 48.897,14.0754 C49.0167,13.1311 48.7066,12.1829 48.0522,11.4918 Z M45.3942,16.6735 L44.0404,16.6735 L44.0404,11.5233 L45.3942,11.5233 C46.0691,11.4858 46.7254,11.7519 47.1836,12.2488 C47.6418,12.7457 47.854,13.4214 47.7621,14.091 C47.8612,14.7635 47.652,15.4447 47.1927,15.9457 C46.7333,16.4467 46.0727,16.714 45.3942,16.6735 Z M50.1568,14.9777 C50.0638,14.0064 50.5296,13.0664 51.3586,12.552 C52.1876,12.0375 53.2367,12.0375 54.0657,12.552 C54.8947,13.0664 55.3605,14.0064 55.2675,14.9777 C55.3622,15.95 54.8969,16.8918 54.0672,17.4073 C53.2374,17.9229 52.1869,17.9229 51.3571,17.4073 C50.5274,16.8918 50.0621,15.95 50.1568,14.9777 Z M52.7135,13.1154 C53.6395,13.1154 54.1672,13.8023 54.1672,14.9768 C54.1672,16.1561 53.6395,16.8424 52.7135,16.8424 C51.784,16.8424 51.261,16.1608 51.261,14.9769 C51.261,13.8023 51.7839,13.1154 52.7135,13.1154 Z M62.061,17.6883 L60.9517,17.6883 L59.8318,13.6974 L59.7471,13.6974 L58.6319,17.6883 L57.5331,17.6883 L56.0395,12.2696 L57.1242,12.2696 L58.0949,16.4044 L58.1748,16.4044 L59.2888,12.2696 L60.3148,12.2696 L61.4288,16.4044 L61.5134,16.4044 L62.4794,12.2696 L63.5488,12.2696 L62.061,17.6883 Z M65.8347,12.2695 L64.8053,12.2695 L64.8052,17.6882 L65.8746,17.6882 L65.8746,14.5182 C65.8363,14.1576 65.9573,13.7982 66.206,13.5342 C66.4547,13.2703 66.8062,13.1281 67.1685,13.145 C67.9594,13.145 68.3378,13.578 68.3378,14.4488 L68.3378,17.6881 L69.4072,17.6881 L69.4072,14.1803 C69.4856,13.6505 69.3188,13.1138 68.9539,12.7217 C68.5891,12.3296 68.0657,12.1247 67.5316,12.1649 C66.8419,12.1088 66.1925,12.4965 65.9146,13.1303 L65.8347,13.1303 L65.8347,12.2695 Z M74.8696,12.5495 C74.0405,13.064 73.5747,14.004 73.6675,14.9753 C73.5729,15.9476 74.0383,16.8894 74.8681,17.4049 C75.698,17.9205 76.7484,17.9205 77.5782,17.4049 C78.4081,16.8894 78.8734,15.9476 78.7789,14.9753 C78.8717,14.004 78.4059,13.064 77.5768,12.5495 C76.7477,12.035 75.6987,12.035 74.8696,12.5495 Z M77.6779,14.9768 C77.6779,13.8023 77.1503,13.1154 76.2243,13.1154 C75.2947,13.1154 74.7718,13.8023 74.7718,14.9769 C74.7718,16.1608 75.2948,16.8424 76.2243,16.8424 C77.1503,16.8424 77.678,16.1561 77.6779,14.9768 Z M81.919,14.5394 C80.6299,14.6193 79.9036,15.1816 79.9036,16.157 C79.9055,16.6195 80.1028,17.0596 80.447,17.3686 C80.7911,17.6776 81.2499,17.8265 81.7099,17.7787 C82.3661,17.809 82.9878,17.484 83.3375,16.9279 L83.4221,16.9279 L83.4221,17.6894 L84.4515,17.6894 L84.4515,13.9871 C84.4515,12.8424 83.6853,12.1661 82.3268,12.1661 C81.0976,12.1661 80.2221,12.7631 80.1128,13.6939 L81.1481,13.6939 C81.2668,13.3108 81.6805,13.0916 82.2775,13.0916 C83.0084,13.0916 83.3868,13.4148 83.3868,13.9871 L83.3868,14.4548 L81.919,14.5394 Z M83.3866,15.6936 L83.3866,15.2406 L82.0634,15.3252 C81.3171,15.3752 80.9787,15.629 80.9787,16.1067 C80.9787,16.5944 81.4017,16.8782 81.9835,16.8782 C82.3279,16.9131 82.6717,16.8067 82.9362,16.5834 C83.2007,16.3601 83.3632,16.039 83.3866,15.6936 Z M88.1065,12.1797 C86.7375,12.1797 85.8573,13.2644 85.8573,14.9766 C85.8573,16.6929 86.7281,17.7776 88.1065,17.7776 C88.8054,17.8033 89.4609,17.4392 89.8082,16.8322 L89.8928,16.8322 L89.8928,17.6883 L90.9175,17.6883 L90.9175,10.1543 L89.8481,10.1543 L89.8481,13.1304 L89.7682,13.1304 C89.4453,12.5183 88.7978,12.1479 88.1065,12.1797 Z M86.9621,14.9781 C86.9621,16.1274 87.5039,16.819 88.4099,16.819 C89.3113,16.819 89.8683,16.1174 89.8683,14.9828 C89.8683,13.8534 89.3054,13.1419 88.4099,13.1419 C87.5097,13.1419 86.9621,13.8381 86.9621,14.9781 Z M96.5437,12.552 C95.7147,13.0664 95.249,14.0064 95.3419,14.9777 C95.2472,15.95 95.7125,16.8918 96.5423,17.4073 C97.3721,17.9229 98.4225,17.9229 99.2523,17.4073 C100.082,16.8918 100.547,15.95 100.453,14.9777 C100.546,14.0064 100.08,13.0664 99.2508,12.552 C98.4218,12.0375 97.3728,12.0375 96.5437,12.552 Z M99.354,14.9768 C99.354,13.8023 98.8263,13.1154 97.9003,13.1154 C96.9707,13.1154 96.4478,13.8023 96.4478,14.9769 C96.4478,16.1608 96.9708,16.8424 97.9003,16.8424 C98.8263,16.8424 99.354,16.1561 99.354,14.9768 Z M102.917,12.2695 L101.888,12.2695 L101.888,17.6882 L102.957,17.6882 L102.957,14.5182 C102.919,14.1576 103.04,13.7982 103.288,13.5342 C103.537,13.2703 103.889,13.1281 104.251,13.145 C105.042,13.145 105.42,13.578 105.42,14.4488 L105.42,17.6881 L106.489,17.6881 L106.489,14.1803 C106.568,13.6505 106.401,13.1138 106.036,12.7217 C105.671,12.3296 105.148,12.1247 104.614,12.1649 C103.924,12.1088 103.275,12.4965 102.997,13.1303 L102.917,13.1303 L102.917,12.2695 Z M112.534,10.9206 L112.534,12.2944 L113.708,12.2944 L113.708,13.1952 L112.534,13.1952 L112.534,15.9815 C112.534,16.5491 112.767,16.7976 113.3,16.7976 C113.436,16.7972 113.572,16.789 113.708,16.773 L113.708,17.6637 C113.516,17.6981 113.321,17.7164 113.126,17.7184 C111.937,17.7184 111.463,17.3 111.463,16.2553 L111.463,13.1951 L110.603,13.1951 L110.603,12.2944 L111.463,12.2944 L111.463,10.9206 L112.534,10.9206 Z M116.228,10.1543 L115.168,10.1543 L115.168,17.6883 L116.237,17.6883 L116.237,14.5235 C116.204,14.1517 116.337,13.7843 116.6,13.5194 C116.863,13.2545 117.23,13.1193 117.602,13.1498 C118.357,13.1498 118.76,13.5881 118.76,14.4536 L118.76,17.6883 L119.831,17.6883 L119.831,14.1898 C119.902,13.6627 119.734,13.1315 119.373,12.7409 C119.012,12.3502 118.496,12.1408 117.965,12.1697 C117.264,12.1129 116.604,12.5011 116.312,13.1404 L116.228,13.1404 L116.228,10.1543 Z M126.066,16.2239 C125.766,17.2461 124.777,17.9065 123.718,17.7916 C122.995,17.8107 122.301,17.5112 121.819,16.9726 C121.337,16.434 121.116,15.7107 121.215,14.9947 C121.119,14.2767 121.339,13.5523 121.818,13.0092 C122.297,12.466 122.989,12.1576 123.713,12.1638 C125.221,12.1638 126.131,13.1938 126.131,14.8954 L126.131,15.2686 L122.304,15.2686 L122.304,15.3285 C122.27,15.7306 122.408,16.1283 122.682,16.4238 C122.957,16.7194 123.344,16.8853 123.747,16.8808 C124.271,16.9436 124.78,16.6841 125.036,16.2239 L126.066,16.2239 Z M125.041,14.4797 L122.304,14.4797 C122.299,14.1061 122.445,13.7463 122.71,13.482 C122.974,13.2177 123.334,13.0713 123.707,13.076 C124.076,13.0676 124.431,13.2152 124.685,13.4825 C124.939,13.7498 125.068,14.112 125.041,14.4797 Z" id="Shape" fill="#000000"></path>
            <path d="M28.0576,9.44434 C28.1788,11.0264 27.6785,12.5933 26.6629,13.8124 C25.6777,15.0379 24.1848,15.7437 22.6125,15.7275 C22.5125,14.191 23.0274,12.6778 24.0437,11.5211 C25.073,10.3488 26.5061,9.60729 28.0576,9.44434 Z M33.0304,18.7403 C31.2218,19.8523 30.1088,21.8132 30.0815,23.9361 C30.0841,26.338 31.5224,28.5056 33.7346,29.4412 C33.3091,30.8232 32.6678,32.1293 31.8344,33.3111 C30.7152,34.9853 29.5417,36.621 27.6792,36.6512 C26.7934,36.6716 26.1955,36.4169 25.5724,36.1515 C24.9225,35.8746 24.2453,35.5861 23.1855,35.5861 C22.0616,35.5861 21.354,35.8839 20.6716,36.1711 C20.0819,36.4193 19.511,36.6596 18.7063,36.693 C16.9325,36.7586 15.577,34.9061 14.4171,33.2475 C12.0988,29.8605 10.2936,23.7024 12.7137,19.5123 C13.8502,17.4701 15.9751,16.1742 18.311,16.0987 C19.317,16.078 20.2823,16.4657 21.1287,16.8057 C21.7759,17.0657 22.3536,17.2977 22.8266,17.2977 C23.2424,17.2977 23.804,17.0748 24.4584,16.8151 C25.4892,16.406 26.7506,15.9053 28.036,16.0403 C30.0333,16.1028 31.8843,17.1034 33.0304,18.7403 Z" id="Shape" fill="#000000"></path>
        </g>
    </g>
</svg>