<?xml version="1.0" encoding="utf-8"?>
<!-- Generator: Adobe Illustrator 23.0.1, SVG Export Plug-In . SVG Version: 6.00 Build 0)  -->
<svg version="1.1" id="livetype" xmlns="http://www.w3.org/2000/svg" xmlns:xlink="http://www.w3.org/1999/xlink" x="0px" y="0px"
	 viewBox="0 0 116.8 38" style="enable-background:new 0 0 116.8 38;" xml:space="preserve">
<style type="text/css">
	.st0{fill:#FFFFFF;}
</style>
<title>Download_on_the_App_Store_Badge_US-UK_RGB_blk_4SVG_092917</title>
<g>
	<g>
		<g>
			<path d="M115.7,29.2c0,0.4,0,0.7,0,1c0,0.3,0,0.6,0,0.9c0,0.6-0.1,1.2-0.2,1.8c-0.1,0.6-0.3,1.1-0.5,1.6c-0.3,0.5-0.6,1-1,1.3
				c-0.4,0.4-0.9,0.7-1.4,1c-0.5,0.3-1.1,0.4-1.6,0.5c-0.6,0.1-1.2,0.2-1.8,0.2c-0.3,0-0.6,0-0.9,0l-1.1,0l-98.8,0
				c-0.3,0-0.6,0-0.9,0c-0.6,0-1.2-0.1-1.8-0.2c-0.6-0.1-1.1-0.3-1.6-0.5c-0.5-0.3-1-0.6-1.4-1c-0.4-0.4-0.7-0.9-1-1.4
				c-0.3-0.5-0.4-1-0.5-1.6c-0.1-0.6-0.2-1.2-0.2-1.8c0-0.2,0-0.9,0-0.9V7.8c0,0,0-0.7,0-0.9c0-0.6,0.1-1.2,0.2-1.8
				C1.4,4.5,1.6,4,1.8,3.5c0.3-0.5,0.6-1,1-1.4c0.4-0.4,0.9-0.7,1.4-1c0.5-0.3,1-0.4,1.6-0.5C6.4,0.5,7,0.4,7.6,0.4l0.9,0h99.9
				l0.9,0c0.6,0,1.2,0.1,1.8,0.2c0.6,0.1,1.1,0.3,1.6,0.5c1,0.5,1.8,1.3,2.3,2.4c0.3,0.5,0.4,1,0.5,1.6c0.1,0.6,0.2,1.2,0.2,1.8
				c0,0.3,0,0.6,0,0.9"/>
		</g>
		<g id="_Group_">
			<g id="_Group_2">
				<g id="_Group_3">
					<path id="_Path_" class="st0" d="M24.3,19.3c0-1.6,0.9-3.2,2.3-4c-0.9-1.3-2.3-2-3.9-2.1c-1.6-0.2-3.2,1-4,1
						c-0.8,0-2.1-1-3.5-0.9c-1.8,0.1-3.5,1.1-4.3,2.7c-1.9,3.3-0.5,8,1.3,10.7c0.9,1.3,2,2.7,3.3,2.7c1.3-0.1,1.9-0.9,3.5-0.9
						c1.6,0,2.1,0.9,3.5,0.8c1.4,0,2.4-1.3,3.2-2.6c0.6-0.9,1.1-1.9,1.5-3C25.5,22.8,24.4,21.2,24.3,19.3z"/>
					<path id="_Path_2" class="st0" d="M21.7,11.4c0.8-0.9,1.2-2.2,1.1-3.4c-1.2,0.1-2.3,0.7-3.1,1.6c-0.8,0.9-1.2,2.1-1.1,3.3
						C19.8,12.9,20.9,12.4,21.7,11.4z"/>
				</g>
			</g>
			<g>
				<path class="st0" d="M41.4,25.9h-4.6l-1.1,3.3h-1.9l4.4-12.1h2l4.4,12.1h-2L41.4,25.9z M37.3,24.4h3.6l-1.8-5.3h-0.1L37.3,24.4z
					"/>
				<path class="st0" d="M53.9,24.8c0,2.7-1.5,4.5-3.7,4.5c-1.1,0.1-2.2-0.5-2.8-1.5h0v4.4h-1.8V20.4h1.7v1.5h0
					c0.6-1,1.7-1.6,2.8-1.6C52.4,20.3,53.9,22.1,53.9,24.8z M52,24.8c0-1.8-0.9-3-2.3-3c-1.4,0-2.3,1.2-2.3,3c0,1.8,0.9,3,2.3,3
					C51.1,27.8,52,26.6,52,24.8z"/>
				<path class="st0" d="M63.6,24.8c0,2.7-1.5,4.5-3.7,4.5c-1.1,0.1-2.2-0.5-2.8-1.5h0v4.4h-1.8V20.4H57v1.5h0
					c0.6-1,1.7-1.6,2.8-1.6C62.1,20.3,63.6,22.1,63.6,24.8z M61.7,24.8c0-1.8-0.9-3-2.3-3c-1.4,0-2.3,1.2-2.3,3c0,1.8,0.9,3,2.3,3
					C60.8,27.8,61.7,26.6,61.7,24.8L61.7,24.8z"/>
				<path class="st0" d="M70,25.8c0.1,1.2,1.3,2,2.9,2c1.5,0,2.6-0.8,2.6-1.9c0-0.9-0.7-1.5-2.2-1.9l-1.6-0.4
					c-2.2-0.5-3.2-1.6-3.2-3.3c0-2.1,1.8-3.5,4.4-3.5c2.5,0,4.3,1.4,4.4,3.5h-1.8c-0.1-1.2-1.1-1.9-2.6-1.9c-1.5,0-2.5,0.7-2.5,1.8
					c0,0.9,0.6,1.4,2.2,1.7l1.3,0.3c2.5,0.6,3.5,1.6,3.5,3.3c0,2.3-1.8,3.7-4.7,3.7c-2.7,0-4.5-1.4-4.6-3.6L70,25.8z"/>
				<path class="st0" d="M81.3,18.3v2.1h1.7v1.4h-1.7v4.9c0,0.8,0.3,1.1,1.1,1.1c0.2,0,0.4,0,0.6,0v1.4c-0.3,0.1-0.7,0.1-1,0.1
					c-1.8,0-2.5-0.7-2.5-2.4v-5h-1.3v-1.4h1.3v-2.1H81.3z"/>
				<path class="st0" d="M83.9,24.8c0-2.8,1.6-4.5,4.2-4.5c2.6,0,4.2,1.7,4.2,4.5c0,2.8-1.6,4.5-4.2,4.5
					C85.5,29.3,83.9,27.6,83.9,24.8z M90.4,24.8c0-1.9-0.9-3-2.3-3c-1.5,0-2.3,1.1-2.3,3c0,1.9,0.9,3,2.3,3
					C89.5,27.8,90.4,26.7,90.4,24.8L90.4,24.8z"/>
				<path class="st0" d="M93.7,20.4h1.7v1.5h0c0.2-1,1.1-1.6,2.1-1.6c0.2,0,0.4,0,0.6,0.1v1.7C98,22,97.7,21.9,97.4,22
					c-1,0-1.9,0.7-1.9,1.7c0,0.1,0,0.2,0,0.3v5.2h-1.8L93.7,20.4z"/>
				<path class="st0" d="M106.6,26.6c-0.2,1.6-1.8,2.7-3.8,2.7c-2.6,0-4.1-1.7-4.1-4.5c0-2.8,1.6-4.5,4.1-4.5c2.4,0,4,1.7,4,4.3v0.6
					h-6.2v0.1c-0.1,1.3,0.8,2.4,2.1,2.5c0.1,0,0.2,0,0.3,0c0.9,0.1,1.7-0.4,2-1.2L106.6,26.6z M100.5,24h4.4c0.1-1.2-0.8-2.2-2-2.2
					c-0.1,0-0.1,0-0.2,0C101.5,21.7,100.5,22.7,100.5,24C100.5,24,100.5,24,100.5,24z"/>
			</g>
		</g>
	</g>
	<g id="_Group_4">
		<g>
			<path class="st0" d="M37,8c1.4-0.1,2.6,1,2.7,2.4c0,0.2,0,0.3,0,0.5c0,1.9-1,2.9-2.7,2.9h-2.1V8H37z M35.8,13h1.1
				c1,0.1,1.9-0.7,1.9-1.7c0-0.1,0-0.3,0-0.4c0.1-1-0.6-1.9-1.6-2.1c-0.1,0-0.2,0-0.3,0h-1.1V13z"/>
			<path class="st0" d="M40.8,11.7c-0.1-1.1,0.7-2.2,1.9-2.3c1.1-0.1,2.2,0.7,2.3,1.9c0,0.1,0,0.3,0,0.4c0.1,1.1-0.7,2.2-1.9,2.3
				c-1.1,0.1-2.2-0.7-2.3-1.9C40.8,11.9,40.8,11.8,40.8,11.7z M44,11.7c0-0.9-0.4-1.5-1.2-1.5c-0.8,0-1.2,0.6-1.2,1.5
				c0,1,0.4,1.5,1.2,1.5C43.6,13.2,44,12.6,44,11.7L44,11.7z"/>
			<path class="st0" d="M50.4,13.8h-0.9l-0.9-3.2h-0.1l-0.9,3.2h-0.9l-1.2-4.4h0.9l0.8,3.3h0.1l0.9-3.3H49l0.9,3.3H50l0.8-3.3h0.9
				L50.4,13.8z"/>
			<path class="st0" d="M52.6,9.5h0.8v0.7h0.1c0.2-0.5,0.7-0.8,1.3-0.8c0.8-0.1,1.5,0.5,1.5,1.3c0,0.1,0,0.2,0,0.3v2.8h-0.9v-2.6
				c0-0.7-0.3-1.1-0.9-1.1c-0.6,0-1,0.4-1,1c0,0.1,0,0.1,0,0.2v2.6h-0.9L52.6,9.5z"/>
			<path class="st0" d="M57.7,7.8h0.9v6.1h-0.9V7.8z"/>
			<path class="st0" d="M59.8,11.7c-0.1-1.1,0.7-2.2,1.9-2.3c1.1-0.1,2.2,0.7,2.3,1.9c0,0.1,0,0.3,0,0.4c0.1,1.1-0.7,2.2-1.9,2.3
				s-2.2-0.7-2.3-1.9C59.8,11.9,59.8,11.8,59.8,11.7z M63,11.7c0-0.9-0.4-1.5-1.2-1.5c-0.8,0-1.2,0.6-1.2,1.5c0,1,0.4,1.5,1.2,1.5
				C62.6,13.2,63,12.6,63,11.7z"/>
			<path class="st0" d="M64.8,12.6c0-0.8,0.6-1.2,1.6-1.3l1.2-0.1v-0.4c0-0.5-0.3-0.7-0.9-0.7c-0.5,0-0.8,0.2-0.9,0.5H65
				c0.1-0.8,0.8-1.2,1.8-1.2c1.1,0,1.7,0.5,1.7,1.5v3h-0.8v-0.6h-0.1c-0.3,0.4-0.8,0.7-1.3,0.7c-0.7,0.1-1.4-0.5-1.5-1.2
				C64.8,12.7,64.8,12.7,64.8,12.6z M67.6,12.2v-0.4l-1.1,0.1c-0.6,0-0.9,0.2-0.9,0.6c0,0.4,0.3,0.6,0.8,0.6
				C67.1,13.2,67.6,12.8,67.6,12.2C67.6,12.3,67.6,12.2,67.6,12.2z"/>
			<path class="st0" d="M69.6,11.7c0-1.4,0.7-2.3,1.8-2.3c0.6,0,1.1,0.3,1.3,0.8h0.1V7.8h0.9v6.1h-0.8v-0.7h-0.1
				c-0.3,0.5-0.8,0.8-1.4,0.8C70.3,13.9,69.6,13,69.6,11.7z M70.5,11.7c0,0.9,0.4,1.5,1.2,1.5c0.7,0,1.2-0.6,1.2-1.5
				c0-0.9-0.5-1.5-1.2-1.5C70.9,10.2,70.5,10.7,70.5,11.7L70.5,11.7z"/>
			<path class="st0" d="M77.3,11.7c-0.1-1.1,0.7-2.2,1.9-2.3s2.2,0.7,2.3,1.9c0,0.1,0,0.3,0,0.4c0.1,1.1-0.7,2.2-1.9,2.3
				c-1.1,0.1-2.2-0.7-2.3-1.9C77.3,11.9,77.3,11.8,77.3,11.7z M80.5,11.7c0-0.9-0.4-1.5-1.2-1.5c-0.8,0-1.2,0.6-1.2,1.5
				c0,1,0.4,1.5,1.2,1.5C80.1,13.2,80.5,12.6,80.5,11.7z"/>
			<path class="st0" d="M82.6,9.5h0.8v0.7h0.1c0.2-0.5,0.7-0.8,1.3-0.8c0.8-0.1,1.5,0.5,1.5,1.3c0,0.1,0,0.2,0,0.3v2.8h-0.9v-2.6
				c0-0.7-0.3-1.1-0.9-1.1c-0.6,0-1,0.4-1,1c0,0.1,0,0.1,0,0.2v2.6h-0.9V9.5z"/>
			<path class="st0" d="M91.2,8.4v1.1h0.9v0.7h-0.9v2.3c0,0.5,0.2,0.7,0.6,0.7c0.1,0,0.2,0,0.3,0v0.7c-0.2,0-0.3,0-0.5,0
				c-1,0-1.3-0.3-1.3-1.2v-2.5h-0.7V9.5h0.7V8.4H91.2z"/>
			<path class="st0" d="M93.3,7.8h0.9v2.4h0.1c0.2-0.5,0.8-0.8,1.3-0.8c0.8,0,1.5,0.6,1.5,1.4c0,0.1,0,0.2,0,0.3v2.8h-0.9v-2.6
				c0-0.7-0.3-1.1-0.9-1.1c-0.6,0-1.1,0.4-1.1,0.9c0,0.1,0,0.1,0,0.2v2.6h-0.9L93.3,7.8z"/>
			<path class="st0" d="M102.1,12.7c-0.2,0.8-1,1.4-1.9,1.3c-1.1,0-2-0.8-2-1.9c0-0.1,0-0.2,0-0.3c-0.1-1.1,0.6-2.1,1.7-2.3
				c0.1,0,0.2,0,0.3,0c1.2,0,2,0.8,2,2.2v0.3H99v0c-0.1,0.6,0.4,1.2,1.1,1.2c0,0,0.1,0,0.1,0c0.4,0.1,0.8-0.2,1-0.5L102.1,12.7z
				 M99,11.3h2.2c0-0.6-0.4-1.1-1-1.1c0,0-0.1,0-0.1,0C99.6,10.1,99.1,10.6,99,11.3C99,11.2,99,11.2,99,11.3L99,11.3z"/>
		</g>
	</g>
</g>
</svg>
