<svg id="Layer_1" data-name="Layer 1" xmlns="http://www.w3.org/2000/svg" viewBox="0 0 1150.337 309.48837"><defs><style>.cls-1,.cls-2,.cls-5{fill:none;}.cls-1,.cls-3,.cls-5{stroke:#110f3a;}.cls-1,.cls-2,.cls-3,.cls-5{stroke-miterlimit:10;}.cls-1{stroke-width:38px;}.cls-2{stroke:#000;}.cls-2,.cls-3{stroke-width:0;}.cls-3,.cls-4{fill:#110f3a;}.cls-5{stroke-width:40px;}</style></defs><title>final_logo</title><line class="cls-1" x1="700.63696" y1="234.48837" x2="700.63696" y2="1.48837"/><path class="cls-2" d="M867,767.07219" transform="translate(-408.36304 -537.51163)"/><path class="cls-2" d="M789.45461,767.07219" transform="translate(-408.36304 -537.51163)"/><polygon class="cls-3" points="1106.737 234.401 1150.337 234.426 1030.537 67.586 986.937 67.561 1106.737 234.401"/><line class="cls-1" x1="528.26196" y1="309.48837" x2="528.26196" y2="68.48837"/><line class="cls-1" x1="482.13641" y1="233.98837" x2="481.63641" y2="68.48837"/><path class="cls-4" d="M655,570a73.96957,73.96957,0,0,1,31.425,6.75732,79.84109,79.84109,0,0,1,25.85034,18.62418,84.46226,84.46226,0,0,1,16.7865,26.74222,87.06492,87.06492,0,0,1,.49036,61.93347,85.99219,85.99219,0,0,1-16.30567,27.42542,80.50667,80.50667,0,0,1-26.0448,19.42437,76.64307,76.64307,0,0,1-64.40344,0,80.50667,80.50667,0,0,1-26.0448-19.42437,85.99219,85.99219,0,0,1-16.30567-27.42542,87.06492,87.06492,0,0,1,.49036-61.93347,84.46226,84.46226,0,0,1,16.7865-26.74222A79.84109,79.84109,0,0,1,623.575,576.75733,73.96957,73.96957,0,0,1,655,570Zm0,35a38.73342,38.73342,0,0,0-16.49109,3.75751,43.294,43.294,0,0,0-13.88922,10.55432,48.77094,48.77094,0,0,0-9.31952,15.4931,56.24384,56.24384,0,0,0-.49029,36.57111,50.466,50.466,0,0,0,8.83862,16.17627,44.1358,44.1358,0,0,0,14.08368,11.35449,38.47013,38.47013,0,0,0,34.53564,0,44.1358,44.1358,0,0,0,14.08368-11.35449,50.466,50.466,0,0,0,8.83862-16.17627,56.24384,56.24384,0,0,0-.49029-36.57111,48.77094,48.77094,0,0,0-9.31952-15.4931,43.294,43.294,0,0,0-13.88922-10.55432A38.73342,38.73342,0,0,0,655,605Z" transform="translate(-408.36304 -537.51163)"/><path class="cls-4" d="M788,687.525a46.74292,46.74292,0,0,0,.70905,8.314,52.81355,52.81355,0,0,0,10.18646,23.27814,45.87125,45.87125,0,0,0,12.56054,11.40735,34.43752,34.43752,0,0,0,14.75879,4.91943,30.68315,30.68315,0,0,0,7.54737-.17963,34.08455,34.08455,0,0,0,7.83978-2.23413,46.05322,46.05322,0,0,0,14.88885-10.05432,52.46738,52.46738,0,0,0,6.087-7.4032,54.99013,54.99013,0,0,0,4.634-8.57947,50.45507,50.45507,0,0,0,4.00776-19.15716,54.37587,54.37587,0,0,0-.81611-9.7721,48.34426,48.34426,0,0,0-2.68914-9.33239,47.02473,47.02473,0,0,0-10.45813-15.79615,44.489,44.489,0,0,0-14.89453-9.82141,38.01229,38.01229,0,0,0-7.96521-2.22021,31.03094,31.03094,0,0,0-7.79291-.37708,35.22719,35.22719,0,0,0-14.92963,4.79987,44.92564,44.92564,0,0,0-12.652,11.07129,48.56172,48.56172,0,0,0-8.20617,14.78552A45.88517,45.88517,0,0,0,788,687.525Zm-44,0a90.1038,90.1038,0,0,1,1.61279-16.28369,84.36845,84.36845,0,0,1,12.25055-29.9657,87.48769,87.48769,0,0,1,10.05908-12.56915A85.59434,85.59434,0,0,1,794.17694,610.219a73.0423,73.0423,0,0,1,32.24848-6.723,69.83645,69.83645,0,0,1,31.45745,8.62024A77.64959,77.64959,0,0,1,881.5022,632.291a84.036,84.036,0,0,1,14.234,26.56427,89.56,89.56,0,0,1,4.49536,29.37744,85.47034,85.47034,0,0,1-1.3822,14.77038,88.621,88.621,0,0,1-3.75318,14.37317,87.57629,87.57629,0,0,1-14.27612,26.26361,78.22646,78.22646,0,0,1-23.44861,20.2732,69.86906,69.86906,0,0,1-15.12372,6.21814,66.28545,66.28545,0,0,1-16.72082,2.38183,72.28561,72.28561,0,0,1-32.26386-7.29382,86.29845,86.29845,0,0,1-25.84515-18.92169,86.33294,86.33294,0,0,1-21.82141-42.51984A90.67236,90.67236,0,0,1,744,687.525Z" transform="translate(-408.36304 -537.51163)"/><path class="cls-4" d="M1083.375,687.53217a88.56932,88.56932,0,0,1-1.60425,16.24029,86.3479,86.3479,0,0,1-4.63391,15.54529,89.472,89.472,0,0,1-17.22082,26.86963,86.42173,86.42173,0,0,1-25.79847,18.89953,73.62349,73.62349,0,0,1-32.26074,7.416,65.53132,65.53132,0,0,1-16.74847-2.46344,70.50248,70.50248,0,0,1-15.13666-6.24988A78.22575,78.22575,0,0,1,946.53229,743.499a86.335,86.335,0,0,1-8.24079-12.59723,93.04624,93.04624,0,0,1-9.76757-27.94653,83.89778,83.89778,0,0,1-1.38245-14.72668,88.711,88.711,0,0,1,18.63507-55.88874,77.83649,77.83649,0,0,1,23.64014-20.23846,71.28925,71.28925,0,0,1,15.05566-6.14316,69.22966,69.22966,0,0,1,16.49506-2.46115,74.5423,74.5423,0,0,1,32.31189,6.71481A85.52528,85.52528,0,0,1,1059.52,628.72745a84.971,84.971,0,0,1,23.855,58.80472Zm-44,0a44.09735,44.09735,0,0,0-.68042-8.09668,47.8983,47.8983,0,0,0-2.01379-7.93232,49.72965,49.72965,0,0,0-3.33716-7.64062,48.86032,48.86032,0,0,0-4.62158-7.118,44.90523,44.90523,0,0,0-12.63392-11.28333,36.73311,36.73311,0,0,0-15.304-4.94238c-10.4643-.86749-22.23761,3.88727-30.99365,12.73663a49.35652,49.35652,0,0,0-10.23377,15.74341,48.482,48.482,0,0,0-2.61377,9.20905,53.02576,53.02576,0,0,0-.78973,9.62017,49.91844,49.91844,0,0,0,3.93371,18.877,53.576,53.576,0,0,0,10.54987,15.86883,46.45187,46.45187,0,0,0,14.82294,10.19074,32.31671,32.31671,0,0,0,15.72186,2.66864,35.912,35.912,0,0,0,15.05847-5.205,46.07743,46.07743,0,0,0,12.49335-11.55951,53.0967,53.0967,0,0,0,7.93493-14.99084,49.56043,49.56043,0,0,0,2.02186-8.01563A44.64033,44.64033,0,0,0,1039.375,687.53217Z" transform="translate(-408.36304 -537.51163)"/><path class="cls-4" d="M1255.75,687.53217a88.56932,88.56932,0,0,1-1.60425,16.24029,86.3479,86.3479,0,0,1-4.63391,15.54529,89.472,89.472,0,0,1-17.22082,26.86963,86.42173,86.42173,0,0,1-25.79847,18.89953,73.62369,73.62369,0,0,1-32.26074,7.416,65.53008,65.53008,0,0,1-16.74841-2.46344,70.50171,70.50171,0,0,1-15.13672-6.24988,78.22551,78.22551,0,0,1-23.43933-20.29065,86.32065,86.32065,0,0,1-8.24085-12.59723,93.05136,93.05136,0,0,1-9.76757-27.94653,83.90351,83.90351,0,0,1-1.38245-14.72668,88.71132,88.71132,0,0,1,18.635-55.88874,77.83768,77.83768,0,0,1,23.64026-20.23846,71.28925,71.28925,0,0,1,15.05566-6.14316,69.22916,69.22916,0,0,1,16.495-2.46115,74.5423,74.5423,0,0,1,32.31189,6.71481,85.52528,85.52528,0,0,1,26.24072,18.51563,84.971,84.971,0,0,1,23.855,58.80472Zm-44,0a44.09735,44.09735,0,0,0-.68042-8.09668,47.8983,47.8983,0,0,0-2.01379-7.93232,49.72965,49.72965,0,0,0-3.33716-7.64062,48.86032,48.86032,0,0,0-4.62158-7.118,44.90523,44.90523,0,0,0-12.63392-11.28333,36.73313,36.73313,0,0,0-15.30395-4.94238c-10.46436-.86749-22.23767,3.88727-30.99377,12.73663a49.35619,49.35619,0,0,0-10.23365,15.74341,48.4779,48.4779,0,0,0-2.61389,9.20905,53.03649,53.03649,0,0,0-.78967,9.62017,49.91538,49.91538,0,0,0,3.93371,18.877,53.57479,53.57479,0,0,0,10.54993,15.86883,46.451,46.451,0,0,0,14.82288,10.19074,32.31671,32.31671,0,0,0,15.7218,2.66864,35.91178,35.91178,0,0,0,15.05847-5.205,46.07679,46.07679,0,0,0,12.49341-11.55951,53.0967,53.0967,0,0,0,7.93493-14.99084,49.56043,49.56043,0,0,0,2.02186-8.01563A44.64033,44.64033,0,0,0,1211.75,687.53217Z" transform="translate(-408.36304 -537.51163)"/><path class="cls-4" d="M1340.78125,604.58423a74.34188,74.34188,0,0,1,31.44275,6.72442,80.02868,80.02868,0,0,1,25.92224,18.58063,84.41038,84.41038,0,0,1,16.8761,26.7536,86.85622,86.85622,0,0,1,.49,62.06452,85.94265,85.94265,0,0,1-16.3971,27.43841,80.69437,80.69437,0,0,1-26.118,19.37989,77.04789,77.04789,0,0,1-64.43188,0,80.69437,80.69437,0,0,1-26.118-19.37989,85.94265,85.94265,0,0,1-16.3971-27.43841,86.85622,86.85622,0,0,1,.49-62.06452,84.41038,84.41038,0,0,1,16.8761-26.7536,80.02868,80.02868,0,0,1,25.92224-18.58063A74.34188,74.34188,0,0,1,1340.78125,604.58423Zm0,35a39.1067,39.1067,0,0,0-16.57483,3.75537,43.48086,43.48086,0,0,0-13.95825,10.55066,48.72024,48.72024,0,0,0-9.36768,15.49255,55.97422,55.97422,0,0,0-.49011,36.58466,50.40584,50.40584,0,0,0,8.88879,16.17737,44.31536,44.31536,0,0,0,14.15394,11.34991,38.84135,38.84135,0,0,0,34.69628,0,44.31536,44.31536,0,0,0,14.15394-11.34991,50.40584,50.40584,0,0,0,8.88879-16.17737,55.97422,55.97422,0,0,0-.49011-36.58466,48.72024,48.72024,0,0,0-9.36768-15.49255,43.48086,43.48086,0,0,0-13.95825-10.55066A39.1067,39.1067,0,0,0,1340.78125,639.58423Z" transform="translate(-408.36304 -537.51163)"/><polygon class="cls-3" points="1030.537 234.401 986.937 234.426 1106.737 67.586 1150.337 67.561 1030.537 234.401"/><path class="cls-5" d="M547.22327,583.81139A81.60621,81.60621,0,0,0,483.039,557.64266c-11.608.68156-23.32194,4.05552-32.43619,11.27646a44.22817,44.22817,0,0,0-2.61273,67.09266c13.27449,12.31335,32.40649,15.27672,50.21343,18.55454s37.02279,8.40408,47.68887,23.03506a43.2747,43.2747,0,0,1,7.92608,24.31846c.53147,20.96947-12.753,37.87072-31.96478,45.0904-11.09823,4.17065-23.18644,5.13407-35.02564,4.50285-11.25528-.60009-22.57507-2.6523-32.74395-7.51392-12.04538-5.75874-22.75886-16.03625-26.48013-29.15518" transform="translate(-408.36304 -537.51163)"/><polygon class="cls-4" points="223.627 234.215 167.637 228.875 167.637 208.916 223.627 203.488 223.627 203.488 325.637 206.902 325.637 230.801 223.627 234.215 223.627 234.215"/></svg>