
<svg width="166px" height="164px" viewBox="0 0 166 164" version="1.1" xmlns="http://www.w3.org/2000/svg" xmlns:xlink="http://www.w3.org/1999/xlink">
    <!-- Generator: Sketch 51.2 (57519) - http://www.bohemiancoding.com/sketch -->
    <desc>Created with Sketch.</desc>
    <defs></defs>
    <g id="Page-1" stroke="none" stroke-width="1" fill="none" fill-rule="evenodd">
        <g id="Home-Page" transform="translate(-285.000000, -1234.000000)" fill-rule="nonzero">
            <g id="Group-8" transform="translate(261.000000, 1234.000000)">
                <g id="Group" transform="translate(93.000000, 0.000000)">
                    <g id="Group-4">
                        <g id="Group-3">
                            <g id="Group-2">
                                <g id="wolf-dog-animal-character-avatar-smileface-profile">
                                    <g id="Group" transform="translate(4.994685, 0.000000)">
                                        <path d="M50.6228364,27.4707549 C50.6200293,27.3454402 50.5965418,27.2201255 50.5523451,27.1003963 L40.8136038,0.748508196 C40.6474437,0.29875021 40.2183662,0 39.7389051,0 C39.2594439,0 38.8303664,0.29875021 38.6642063,0.748536839 L32.6015535,17.152444 C29.378603,16.6422485 26.0225182,16.6444827 22.8029476,17.1502098 L16.7414404,0.748536839 C16.5752803,0.29875021 16.1462029,0 15.6667417,0 C15.1872806,0 14.7582031,0.29875021 14.592043,0.748536839 L4.85330171,27.100425 C4.81079497,27.2156572 4.78727877,27.3353864 4.78281041,27.4551156 C1.78084341,31.3454563 0.199300476,35.823215 0.199300476,40.4587413 C0.199300476,53.2911942 12.534963,63.7314685 27.6969229,63.7314685 C42.8588827,63.7314685 55.1945452,53.2911942 55.1945452,40.4587413 C55.1945739,35.8299175 53.6169551,31.357773 50.6228364,27.4707549 Z" id="Shape" fill="#717791"></path>
                                        <path d="M27.6969515,61.44 C13.798221,61.44 2.49079765,52.0279649 2.49079765,40.4587413 C2.49079765,36.0883952 4.08408436,31.8590317 7.09779513,28.2293742 C7.35905119,27.9149561 7.43123245,27.4875686 7.29360112,27.1082446 L15.6667417,4.45089119 L20.9842377,18.8397095 C21.1783537,19.3655729 21.7221478,19.6721428 22.2731887,19.5681101 C25.8155699,18.8934158 29.5800517,18.8911817 33.1313696,19.5703443 C33.678515,19.6732885 34.2267489,19.3678357 34.4203207,18.8419437 L39.7389337,4.45089119 L48.1064888,27.0914596 C47.9610379,27.4752233 48.0315292,27.9104877 48.2961365,28.2293742 C51.3098473,31.8601488 52.903134,36.0883952 52.903134,40.4587413 C52.9031053,52.0279649 41.5957107,61.44 27.6969515,61.44 Z" id="Shape" fill="#E5EEFD"></path>
                                        <path d="M17.3970869,33.9546943 C18.6608604,33.9546943 19.6885554,32.926455 19.6885554,31.6632257 C19.6885554,30.3999964 18.6608604,29.3717572 17.3970869,29.3717572 C16.1333133,29.3717572 15.1056183,30.3999964 15.1056183,31.6632257 C15.1056183,32.926455 16.1333133,33.9546943 17.3970869,33.9546943 Z" id="Shape" fill="#717791"></path>
                                        <path d="M38.0203037,29.3717572 C36.7565301,29.3717572 35.7288351,30.3999964 35.7288351,31.6632257 C35.7288351,32.926455 36.7565301,33.9546943 38.0203037,33.9546943 C39.2840772,33.9546943 40.3117722,32.926455 40.3117722,31.6632257 C40.3117722,30.3999964 39.2840772,29.3717572 38.0203037,29.3717572 Z" id="Shape" fill="#717791"></path>
                                        <path d="M38.0203037,45.4120369 C38.0203037,47.939584 35.9643695,49.994974 33.4373666,49.994974 C30.9875003,49.994974 28.9974458,48.0583394 28.8772297,45.6372883 L32.170786,39.0500896 C32.348117,38.6953989 32.3290978,38.2735969 32.120431,37.9356912 C31.9117641,37.5977855 31.5430955,37.3919257 31.1458981,37.3919257 L24.2714925,37.3919257 C23.874295,37.3919257 23.5056264,37.5978142 23.2969596,37.9356912 C23.0882927,38.2735682 23.0692735,38.6953989 23.2466045,39.0500896 L26.5401609,45.6372883 C26.4199447,48.0583394 24.4298902,49.994974 21.9800239,49.994974 C19.4530211,49.994974 17.3970869,47.939584 17.3970869,45.4120369 L17.3970869,44.2663027 L15.1056183,44.2663027 L15.1056183,45.4120369 C15.1056183,49.2028133 18.1892476,52.2864425 21.9800239,52.2864425 C24.3698251,52.2864425 26.4764581,51.059533 27.7086953,49.2039304 C28.9409325,51.059533 31.0475654,52.2864425 33.4373666,52.2864425 C37.228143,52.2864425 40.3117722,49.2028133 40.3117722,45.4120369 L40.3117722,44.2663027 L38.0203037,44.2663027 L38.0203037,45.4120369 Z" id="Shape" fill="#717791"></path>
                                        <polygon id="Shape" fill="#717791" points="29.2919282 39.6833656 27.7086953 42.8498027 26.125491 39.6833656"></polygon>
                                    </g>
                                    <g id="Group-5" transform="translate(0.000000, 53.169231)" fill="#B9BCC9">
                                        <path d="M1.14576291,6.90963692 C0.85248358,6.90963692 0.559318825,6.79775597 0.335556923,6.57396543 C-0.111852308,6.12669941 -0.111852308,5.4011059 0.335556923,4.95383989 L4.38632906,0.902924531 C4.83388151,0.455372084 5.55918859,0.455372084 6.00674103,0.902924531 C6.45415027,1.35019055 6.45415027,2.07578406 6.00674103,2.52305007 L1.9559689,6.57399407 C1.73220699,6.79775597 1.43904224,6.90963692 1.14576291,6.90963692 Z" id="Shape"></path>
                                        <path d="M5.19653505,6.90963692 C4.90325572,6.90963692 4.61009097,6.79775597 4.38632906,6.57396543 L0.335556923,2.52307871 C-0.111852308,2.0758127 -0.111852308,1.35021919 0.335556923,0.902953175 C0.783395804,0.455687161 1.50870288,0.455687161 1.9559689,0.902953175 L6.00674103,4.95386853 C6.45415027,5.40113455 6.45415027,6.12672806 6.00674103,6.57399407 C5.78297913,6.79775597 5.48967116,6.90963692 5.19653505,6.90963692 Z" id="Shape"></path>
                                    </g>
                                    <path d="M59.9899587,15.5563502 C57.7787775,15.5563502 55.9798888,13.7574615 55.9798888,11.5462803 C55.9798888,9.33509908 57.7787775,7.53621035 59.9899587,7.53621035 C62.2011399,7.53621035 64.0000286,9.33509908 64.0000286,11.5462803 C64.0000286,13.7574615 62.2011399,15.5563502 59.9899587,15.5563502 Z M59.9899587,9.82767888 C59.0422646,9.82767888 58.2713573,10.5985862 58.2713573,11.5462803 C58.2713573,12.4939744 59.0422646,13.2648817 59.9899587,13.2648817 C60.9376528,13.2648817 61.7085601,12.4939744 61.7085601,11.5462803 C61.7085601,10.5985862 60.9376528,9.82767888 59.9899587,9.82767888 Z" id="Shape" fill="#B9BCC9"></path>
                                    <path d="M65.3610177,32.0268531 C65.0678816,32.0268531 64.7745737,31.9149722 64.550955,31.6911817 L61.3102456,28.4506155 C61.0952772,28.2357903 60.9745741,27.9443155 60.9745741,27.6405527 C60.9745741,27.3367899 61.0952772,27.0453151 61.3102456,26.83049 L64.550955,23.5899238 C64.9983642,23.1426578 65.7238145,23.1426578 66.1712237,23.5899238 L69.4117899,26.83049 C69.8591991,27.277756 69.8591991,28.0033495 69.4117899,28.4506155 L66.1712237,31.6911817 C65.9474618,31.9149722 65.6541538,32.0268531 65.3610177,32.0268531 Z M63.7406058,27.6405527 L65.3610177,29.2606783 L66.9812865,27.6405527 L65.3610177,26.0204272 L63.7406058,27.6405527 Z" id="Shape" fill="#B9BCC9"></path>
                                </g>
                            </g>
                        </g>
                    </g>
                </g>
                <g id="Group-Copy" transform="translate(0.000000, 64.000000)">
                    <g id="Group-4">
                        <g id="Group-3">
                            <g id="Group-2">
                                <g id="paint-tools-artist-draw-colors" transform="translate(24.000000, 0.000000)">
                                    <g id="Group" transform="translate(0.000000, 2.036364)">
                                        <path d="M60.7630545,30.4096873 C56.7812364,24.7238982 51.5334982,17.8397964 46.2533818,15.0505891 C42.7022545,13.1750109 37.2999855,12.7693382 34.7641891,15.3852509 C33.8113455,16.3676509 32.5460073,18.6011636 34.7749818,22.5216291 C34.7761164,22.52448 34.7778327,22.5273018 34.77952,22.5295709 L38.1806545,28.4040145 C38.5783855,29.3784436 38.62496,29.8557091 38.6204218,30.0443636 C37.7618909,30.1881018 34.9510982,29.0875345 33.0590545,28.3449309 C28.9442909,26.7301527 24.6902982,25.0602764 21.9306473,26.3131055 C20.9397527,26.7636655 20.24032,27.5415273 19.8528,28.6256 C19.1891782,30.4801455 19.5937164,32.8954764 21.0562036,35.8040145 C25.7209891,45.0807273 39.8334836,57.2949236 44.1476945,58.6074182 C46.2039564,59.2335418 48.1897309,59.5409455 50.0698473,59.5409455 C54.8840436,59.5409455 59.0016582,57.5221818 61.8056436,53.6568436 C66.3704436,47.3653818 65.9414691,37.8057309 60.7630545,30.4096873 Z" id="Shape" fill="#717791"></path>
                                        <path d="M59.9221527,52.2903855 C56.6426182,56.8102691 51.1392,58.30176 44.8249891,56.3812945 C41.0187345,55.2227782 27.3892073,43.21824 23.1357964,34.7585745 C21.9869382,32.47392 21.6091055,30.6239127 22.0437527,29.4097164 C22.2164945,28.9279127 22.4863709,28.6171055 22.89376,28.4318836 C23.2517236,28.2693818 23.6943418,28.1977891 24.1983127,28.1977891 C26.3153455,28.1977891 29.52672,29.4585891 32.2085527,30.5114182 C36.0966109,32.0381091 38.9062691,33.1426618 40.3273018,31.6921018 C41.4216145,30.5767564 40.8369745,28.7330036 40.3023127,27.4426764 C40.2824145,27.39552 40.2596945,27.3500509 40.2341236,27.3057455 L36.7960436,21.36768 C36.0216145,20.0046255 35.33184,18.1426909 36.4346764,17.0051782 C37.9483055,15.4449455 42.1096727,15.4938182 45.1659345,17.1085964 C50.0062836,19.6654255 55.0250182,26.2733673 58.8562618,31.74496 C63.4749964,38.3409455 63.9130764,46.7892364 59.9221527,52.2903855 Z" id="Shape" fill="#E5EEFD"></path>
                                        <path d="M4.65454545,41.9716364 L9.30909091,41.9716364 C9.93864727,41.9716364 10.4539636,41.4710691 10.4721455,40.8420945 L11.6357818,1.27845818 C11.6448582,0.964247273 11.5266909,0.659141818 11.3073745,0.433570909 C11.08864,0.208 10.7874909,0.0807272727 10.4727273,0.0807272727 L3.49090909,0.0807272727 C3.17614545,0.0807272727 2.87499636,0.208 2.65626182,0.433570909 C2.43694545,0.659141818 2.31874909,0.964247273 2.32785455,1.27845818 L3.49149091,40.8420945 C3.50967273,41.4710691 4.02498909,41.9716364 4.65454545,41.9716364 Z" id="Shape" fill="#717791"></path>
                                        <polygon id="Shape" fill="#E5EEFD" points="9.27444364 2.408 8.17896727 39.6443636 5.78466909 39.6443636 4.68919273 2.408"></polygon>
                                        <path d="M52.3636364,28.008 C52.3636364,25.4415127 50.2755782,23.3534545 47.7090909,23.3534545 C45.1426036,23.3534545 43.0545455,25.4415127 43.0545455,28.008 C43.0545455,30.5744873 45.1426036,32.6625455 47.7090909,32.6625455 C50.2755782,32.6625455 52.3636364,30.5744873 52.3636364,28.008 Z" id="Shape" fill="#717791"></path>
                                        <circle id="Oval" fill="#E5EEFD" cx="47.7090909" cy="28.008" r="2.32727273"></circle>
                                        <path d="M53.5272727,32.6625455 C50.9607855,32.6625455 48.8727273,34.7506036 48.8727273,37.3170909 C48.8727273,39.8835782 50.9607855,41.9716364 53.5272727,41.9716364 C56.09376,41.9716364 58.1818182,39.8835782 58.1818182,37.3170909 C58.1818182,34.7506036 56.09376,32.6625455 53.5272727,32.6625455 Z" id="Shape" fill="#717791"></path>
                                        <circle id="Oval" fill="#E5EEFD" cx="53.5272727" cy="37.3170909" r="2.32727273"></circle>
                                        <path d="M50.0363636,44.2989091 C47.4698764,44.2989091 45.3818182,46.3869673 45.3818182,48.9534545 C45.3818182,51.5199418 47.4698764,53.608 50.0363636,53.608 C52.6028509,53.608 54.6909091,51.5199418 54.6909091,48.9534545 C54.6909091,46.3869673 52.6028509,44.2989091 50.0363636,44.2989091 Z" id="Shape" fill="#717791"></path>
                                        <circle id="Oval" fill="#E5EEFD" cx="50.0363636" cy="48.9534545" r="2.32727273"></circle>
                                        <path d="M38.4,38.4807273 C35.8335127,38.4807273 33.7454545,40.5687855 33.7454545,43.1352727 C33.7454545,45.70176 35.8335127,47.7898182 38.4,47.7898182 C40.9664873,47.7898182 43.0545455,45.70176 43.0545455,43.1352727 C43.0545455,40.5687855 40.9664873,38.4807273 38.4,38.4807273 Z" id="Shape" fill="#717791"></path>
                                        <circle id="Oval" fill="#E5EEFD" cx="38.4" cy="43.1352727" r="2.32727273"></circle>
                                        <path d="M6.98181818,43.1352727 C3.13181091,43.1352727 0,46.2670836 0,50.1170909 C0,53.6375564 5.45227636,60.54208 6.07386182,61.3176727 C6.29489455,61.5932509 6.62839273,61.7534545 6.98181818,61.7534545 C7.33524364,61.7534545 7.66874182,61.5932218 7.88977455,61.3176727 C8.51136,60.54208 13.9636364,53.6375273 13.9636364,50.1170909 C13.9636364,46.2670836 10.8318255,43.1352727 6.98181818,43.1352727 Z" id="Shape" fill="#717791"></path>
                                        <path d="M6.98181818,58.6875345 C4.89716364,55.9023127 2.32727273,51.8875345 2.32727273,50.1170909 C2.32727273,47.5506036 4.41533091,45.4625455 6.98181818,45.4625455 C9.54830545,45.4625455 11.6363636,47.5506036 11.6363636,50.1170909 C11.6363636,51.8875345 9.06647273,55.9023127 6.98181818,58.6875345 Z" id="Shape" fill="#E5EEFD"></path>
                                    </g>
                                    <path d="M18.6549818,15.1276218 C18.35712,15.1276218 18.0593745,15.0139927 17.8321164,14.7868509 C17.3777164,14.3323055 17.3777164,13.5956655 17.8321164,13.14112 L21.9461818,9.02705455 C22.4007273,8.5728 23.1373673,8.5728 23.5919127,9.02705455 C24.0463127,9.4816 24.0463127,10.21824 23.5919127,10.6727855 L19.4778473,14.7868509 C19.25056,15.0139927 18.9528436,15.1276218 18.6549818,15.1276218 Z" id="Shape" fill="#B9BCC9"></path>
                                    <path d="M22.7690473,15.1272145 C22.4711855,15.1272145 22.17344,15.0135855 21.9461818,14.7864436 L17.8321164,10.6722327 C17.3777164,10.2176873 17.3777164,9.48090182 17.8321164,9.02650182 C18.2868073,8.57210182 19.0234473,8.57239273 19.4778473,9.02650182 L23.5919127,13.1407127 C24.0463127,13.5952582 24.0463127,14.3320436 23.5919127,14.7864436 C23.3646255,15.0135564 23.0667636,15.1272145 22.7690473,15.1272145 Z" id="Shape" fill="#B9BCC9"></path>
                                    <path d="M23.8913455,60.50944 C21.6456145,60.50944 19.8186182,58.6824436 19.8186182,56.4367127 C19.8186182,54.1909818 21.6456145,52.3639855 23.8913455,52.3639855 C26.1370764,52.3639855 27.9640727,54.1909818 27.9640727,56.4367127 C27.9640727,58.6824436 26.1370764,60.50944 23.8913455,60.50944 Z M23.8913455,54.6912582 C22.9288436,54.6912582 22.1458909,55.4742109 22.1458909,56.4367127 C22.1458909,57.3992145 22.9288436,58.1821673 23.8913455,58.1821673 C24.8538473,58.1821673 25.6368,57.3992145 25.6368,56.4367127 C25.6368,55.4742109 24.8538473,54.6912582 23.8913455,54.6912582 Z" id="Shape" fill="#B9BCC9"></path>
                                    <path d="M53.3643345,8.90958545 C53.0664727,8.90958545 52.7687273,8.79595636 52.5414691,8.56881455 L49.2502691,5.27761455 C48.7958691,4.82306909 48.7958691,4.08642909 49.2502691,3.63188364 L52.5414691,0.340683636 C52.9960145,-0.113570909 53.7328,-0.113570909 54.1870545,0.340683636 L57.4784,3.63188364 C57.6967273,3.85021091 57.8193164,4.14609455 57.8193164,4.45474909 C57.8193164,4.76340364 57.6967273,5.05928727 57.4784,5.27761455 L54.1870545,8.56881455 C53.9599418,8.79595636 53.66208,8.90958545 53.3643345,8.90958545 Z M51.7187491,4.45474909 L53.3643345,6.10033455 L55.0100655,4.45474909 L53.3643345,2.80916364 L51.7187491,4.45474909 Z" id="Shape" fill="#B9BCC9"></path>
                                </g>
                            </g>
                        </g>
                    </g>
                </g>
                <g id="Group-Copy-3" transform="translate(117.000000, 99.000000)">
                    <g id="Group-4">
                        <g id="Group-3">
                            <g id="Group-2">
                                <g id="graduate-education-student-hat" transform="translate(8.000000, 0.000000)">
                                    <g id="Group" transform="translate(0.000000, 2.632594)">
                                        <path d="M46.328703,52.8529605 C46.328703,54.235135 47.4537608,55.3601929 48.8359354,55.3601929 C50.2181099,55.3601929 51.3431678,54.235135 51.3431678,52.8529605 C51.3431678,51.4707859 50.2181099,50.3457281 48.8359354,50.3457281 C47.4537608,50.3457281 46.328703,51.4707859 46.328703,52.8529605 Z" id="Shape" fill="#E5EEFD"></path>
                                        <path d="M50.0895516,26.5270203 L50.0895516,40.7382329 C51.2320661,40.2668105 52.0783824,39.8505786 52.596784,39.5785752 L52.596784,24.9482787 L50.0358341,26.2603447 C50.0556726,26.3489754 50.0895516,26.4323722 50.0895516,26.5270203 Z" id="Shape" fill="#E5EEFD"></path>
                                        <path d="M35.0327122,33.9471119 C34.2332811,34.3572324 33.2318611,34.5616659 32.2292189,34.5616659 C31.2265767,34.5616659 30.2251567,34.3572324 29.4257257,33.9471119 L12.4810969,25.2656943 L12.4810969,39.576162 C14.5684306,40.6669648 21.9419817,44.0776784 32.5389561,44.0776784 C38.8573698,44.0776784 44.0011451,42.8746456 47.5823505,41.6692936 L47.5823505,27.5174397 L35.0327122,33.9471119 Z" id="Shape" fill="#E5EEFD"></path>
                                        <path d="M33.8892575,3.15271938 C33.0200627,2.70709016 31.4383438,2.70709016 30.5691176,3.15271938 L2.74839682,17.4064609 C2.73003134,17.4162392 2.71288814,17.4260487 2.69574494,17.4346046 C2.71288814,17.4431606 2.73003134,17.4529701 2.74839682,17.4627483 L30.5691176,31.7165212 C31.4383124,32.1621504 33.0200313,32.1621504 33.8892575,31.7165212 L61.7099783,17.4627483 C61.7283438,17.4529701 61.745487,17.4431606 61.7626302,17.4346046 C61.745487,17.4260487 61.7283438,17.4162392 61.7099783,17.4064609 L33.8892575,3.15271938 Z M12.4822878,19.005323 C12.02196,19.005323 11.5800289,18.7519045 11.3596745,18.312418 C11.0499373,17.6929436 11.3009113,16.940053 11.9203857,16.6303158 L16.9348505,14.1230834 C17.554325,13.8145685 18.3059932,14.0643202 18.6169527,14.6837946 C18.92669,15.303269 18.675716,16.0561596 18.0562416,16.3658968 L13.0417768,18.8731292 C12.8618202,18.9624807 12.6708317,19.005323 12.4822878,19.005323 Z M23.0707064,18.8730979 L18.0562416,21.3803303 C17.876285,21.4697131 17.6852965,21.5125554 17.4967527,21.5125554 C17.0364248,21.5125554 16.5944937,21.2591369 16.3741393,20.8196504 C16.0644021,20.200176 16.3153761,19.4472854 16.9348505,19.1375482 L21.9493153,16.6303158 C22.5687898,16.3242454 23.3216803,16.5715526 23.6314176,17.191027 C23.9411548,17.8105014 23.6901808,18.5633607 23.0707064,18.8730979 Z" id="Shape" fill="#E5EEFD"></path>
                                        <path d="M62.853433,15.175933 L35.0327122,0.922160077 C33.43385,0.101918997 31.0245564,0.101918997 29.4257257,0.922160077 L1.60497348,15.175933 C0.585188042,15.6986909 -0.0012222758,16.5213766 2.11758237e-22,17.434636 C2.11758237e-22,18.3479267 0.585188042,19.1706123 1.60497348,19.693339 L9.98088476,23.9846553 C9.98050868,23.9970661 9.97383317,24.0073144 9.97383317,24.0197878 L9.97383317,40.3167985 C9.97383317,40.7538404 10.2015526,41.1590718 10.5737199,41.3867912 C10.9214103,41.5985897 19.2425386,46.5848795 32.5389248,46.5848795 C38.7451712,46.5848795 43.8488621,45.4973047 47.5823192,44.3172131 L47.5823192,48.0164778 C45.4254412,48.5769383 43.8214706,50.522864 43.8214706,52.8529605 C43.8214706,55.6185005 46.0703954,57.8674253 48.8359354,57.8674253 C51.6014754,57.8674253 53.8504002,55.6185005 53.8504002,52.8529605 C53.8504002,50.522864 52.2464296,48.5769383 50.0895516,48.0164778 L50.0895516,43.4445709 C52.8029098,42.4003086 54.3587729,41.4753279 54.5041297,41.3867912 C54.876297,41.1590718 55.1040164,40.7538717 55.1040164,40.3167985 L55.1040164,24.0197878 C55.1040164,23.9052387 55.0676615,23.8024108 55.0389851,23.6970444 L62.853433,19.693339 C63.8732184,19.170581 64.4596287,18.3478954 64.4584065,17.434636 C64.4584065,16.5213452 63.8732184,15.6986596 62.853433,15.175933 Z M51.3431678,52.8529605 C51.3431678,54.235135 50.2181099,55.3601929 48.8359354,55.3601929 C47.4537608,55.3601929 46.328703,54.235135 46.328703,52.8529605 C46.328703,51.4707859 47.4537608,50.3457281 48.8359354,50.3457281 C50.2181099,50.3457281 51.3431678,51.4707859 51.3431678,52.8529605 Z M32.5389248,44.0776471 C21.9419503,44.0776471 14.5683992,40.6669335 12.4810656,39.5761307 L12.4810656,25.265663 L29.4256943,33.9470805 C30.2251254,34.3572011 31.2265453,34.5616345 32.2291876,34.5616345 C33.2318298,34.5616345 34.2332498,34.3572011 35.0326808,33.9470805 L47.5823192,27.5174084 L47.5823192,41.6692623 C44.0011451,42.8746143 38.8573698,44.0776471 32.5389248,44.0776471 Z M52.596784,39.5785752 C52.0783824,39.8505786 51.2320661,40.2668105 50.0895516,40.7382329 L50.0895516,26.5270203 C50.0895516,26.4323722 50.0556413,26.3489754 50.0358341,26.2603761 L52.596784,24.94831 L52.596784,39.5785752 Z M61.7099783,17.4627797 L33.8892575,31.7165526 C33.0200627,32.1621818 31.4383438,32.1621818 30.5691176,31.7165526 L2.74839682,17.4627797 C2.73003134,17.4530014 2.71288814,17.4431919 2.69574494,17.434636 C2.71288814,17.42608 2.73003134,17.4162705 2.74839682,17.4064923 L30.5691176,3.15271938 C31.4383124,2.70709016 33.0200313,2.70709016 33.8892575,3.15271938 L61.7099783,17.4064609 C61.7283438,17.4162392 61.745487,17.4260487 61.7626302,17.4346046 C61.745487,17.4431919 61.7283438,17.4530014 61.7099783,17.4627797 Z" id="Shape" fill="#717791"></path>
                                        <path d="M18.6169527,14.6837633 C18.3059932,14.0642888 17.554325,13.8145685 16.9348505,14.1230521 L11.9203857,16.6302845 C11.3009113,16.9400217 11.0499687,17.6929122 11.3596745,18.3123867 C11.5800289,18.7518732 12.0219913,19.0052917 12.4822878,19.0052917 C12.6708317,19.0052917 12.8617888,18.9624494 13.0417768,18.8730665 L18.0562416,16.3658341 C18.675716,16.0561283 18.9266586,15.3032377 18.6169527,14.6837633 Z" id="Shape" fill="#717791"></path>
                                        <path d="M21.9493153,16.6303158 L16.9348505,19.1375482 C16.3153761,19.4472854 16.0644335,20.200176 16.3741393,20.8196504 C16.5944937,21.2591369 17.0364561,21.5125554 17.4967527,21.5125554 C17.6852965,21.5125554 17.8762536,21.4697131 18.0562416,21.3803303 L23.0707064,18.8730979 C23.6901808,18.5633607 23.9411234,17.8104701 23.6314176,17.1909957 C23.3217117,16.5715212 22.5687584,16.3242454 21.9493153,16.6303158 Z" id="Shape" fill="#717791"></path>
                                    </g>
                                    <path d="M51.9699759,6.93958052 C51.6492382,6.93958052 51.3281557,6.8171649 51.0836379,6.57230231 C50.5939441,6.08292189 50.5939441,5.28900675 51.0836379,4.79962633 L55.515986,0.367278206 C56.005053,-0.122415622 56.799595,-0.122415622 57.288662,0.367278206 C57.7783558,0.856658631 57.7783558,1.65057377 57.288662,2.13995419 L52.8563139,6.57230231 C52.611796,6.8171649 52.2907449,6.93958052 51.9699759,6.93958052 Z" id="Shape" fill="#B9BCC9"></path>
                                    <path d="M56.402324,6.93958052 C56.0815863,6.93958052 55.7605039,6.8171649 55.515986,6.57230231 L51.0836379,2.13995419 C50.5939441,1.65057377 50.5939441,0.856658631 51.0836379,0.367278206 C51.5727049,-0.122415622 52.3672469,-0.122415622 52.8563139,0.367278206 L57.288662,4.79962633 C57.7783558,5.28900675 57.7783558,6.08292189 57.288662,6.57230231 C57.0441128,6.8171649 56.7230617,6.93958052 56.402324,6.93958052 Z" id="Shape" fill="#B9BCC9"></path>
                                    <path d="M5.27277242,52.8219335 C2.85338717,52.8219335 0.885115718,50.853662 0.885115718,48.4342768 C0.885115718,46.0148915 2.85338717,44.0466201 5.27277242,44.0466201 C7.69215767,44.0466201 9.66042912,46.0148915 9.66042912,48.4342768 C9.66042912,50.853662 7.69218901,52.8219335 5.27277242,52.8219335 Z M5.27277242,46.5538525 C4.23584378,46.5538525 3.39234812,47.3973481 3.39234812,48.4342768 C3.39234812,49.4712054 4.23584378,50.3147011 5.27277242,50.3147011 C6.30970106,50.3147011 7.15319672,49.4712054 7.15319672,48.4342768 C7.15319672,47.3973481 6.30970106,46.5538525 5.27277242,46.5538525 Z" id="Shape" fill="#B9BCC9"></path>
                                    <path d="M30.7567527,64.9277604 C30.4360149,64.9277604 30.1149325,64.8053447 29.8704147,64.5604822 L26.3247179,61.0147854 C25.8350241,60.525405 25.8350241,59.7314899 26.3247179,59.2421095 L29.8704147,55.6960993 C30.1054677,55.4610463 30.4243877,55.3288211 30.7567527,55.3288211 C31.0891176,55.3288211 31.4080376,55.4610463 31.6430906,55.6960993 L35.1887874,59.2421095 C35.6784812,59.7314899 35.6784812,60.525405 35.1887874,61.0147854 L31.6430906,64.5604822 C31.3985728,64.8053447 31.0774904,64.9277604 30.7567527,64.9277604 Z M28.9837633,60.1284788 L30.7567527,61.9011548 L32.529742,60.1284788 L30.7567527,58.3554894 L28.9837633,60.1284788 Z" id="Shape" fill="#B9BCC9"></path>
                                </g>
                            </g>
                        </g>
                    </g>
                </g>
            </g>
        </g>
    </g>
</svg>