
<svg width="70px" height="64px" viewBox="0 0 70 64" version="1.1" xmlns="http://www.w3.org/2000/svg" xmlns:xlink="http://www.w3.org/1999/xlink">
    <!-- Generator: Sketch 51.2 (57519) - http://www.bohemiancoding.com/sketch -->
    <desc>Created with Sketch.</desc>
    <defs></defs>
    <g id="Page-1" stroke="none" stroke-width="1" fill="none" fill-rule="evenodd">
        <g id="Desktop" transform="translate(-341.000000, -721.000000)" fill-rule="nonzero">
            <g id="Group" transform="translate(341.000000, 721.000000)">
                <g id="Group-4">
                    <g id="Group-3">
                        <g id="Group-2">
                            <g id="wolf-dog-animal-character-avatar-smileface-profile">
                                <g id="Group" transform="translate(4.994685, 0.000000)">
                                    <path d="M50.6228364,27.4707549 C50.6200293,27.3454402 50.5965418,27.2201255 50.5523451,27.1003963 L40.8136038,0.748508196 C40.6474437,0.29875021 40.2183662,0 39.7389051,0 C39.2594439,0 38.8303664,0.29875021 38.6642063,0.748536839 L32.6015535,17.152444 C29.378603,16.6422485 26.0225182,16.6444827 22.8029476,17.1502098 L16.7414404,0.748536839 C16.5752803,0.29875021 16.1462029,0 15.6667417,0 C15.1872806,0 14.7582031,0.29875021 14.592043,0.748536839 L4.85330171,27.100425 C4.81079497,27.2156572 4.78727877,27.3353864 4.78281041,27.4551156 C1.78084341,31.3454563 0.199300476,35.823215 0.199300476,40.4587413 C0.199300476,53.2911942 12.534963,63.7314685 27.6969229,63.7314685 C42.8588827,63.7314685 55.1945452,53.2911942 55.1945452,40.4587413 C55.1945739,35.8299175 53.6169551,31.357773 50.6228364,27.4707549 Z" id="Shape" fill="#717791"></path>
                                    <path d="M27.6969515,61.44 C13.798221,61.44 2.49079765,52.0279649 2.49079765,40.4587413 C2.49079765,36.0883952 4.08408436,31.8590317 7.09779513,28.2293742 C7.35905119,27.9149561 7.43123245,27.4875686 7.29360112,27.1082446 L15.6667417,4.45089119 L20.9842377,18.8397095 C21.1783537,19.3655729 21.7221478,19.6721428 22.2731887,19.5681101 C25.8155699,18.8934158 29.5800517,18.8911817 33.1313696,19.5703443 C33.678515,19.6732885 34.2267489,19.3678357 34.4203207,18.8419437 L39.7389337,4.45089119 L48.1064888,27.0914596 C47.9610379,27.4752233 48.0315292,27.9104877 48.2961365,28.2293742 C51.3098473,31.8601488 52.903134,36.0883952 52.903134,40.4587413 C52.9031053,52.0279649 41.5957107,61.44 27.6969515,61.44 Z" id="Shape" fill="#E5EEFD"></path>
                                    <path d="M17.3970869,33.9546943 C18.6608604,33.9546943 19.6885554,32.926455 19.6885554,31.6632257 C19.6885554,30.3999964 18.6608604,29.3717572 17.3970869,29.3717572 C16.1333133,29.3717572 15.1056183,30.3999964 15.1056183,31.6632257 C15.1056183,32.926455 16.1333133,33.9546943 17.3970869,33.9546943 Z" id="Shape" fill="#717791"></path>
                                    <path d="M38.0203037,29.3717572 C36.7565301,29.3717572 35.7288351,30.3999964 35.7288351,31.6632257 C35.7288351,32.926455 36.7565301,33.9546943 38.0203037,33.9546943 C39.2840772,33.9546943 40.3117722,32.926455 40.3117722,31.6632257 C40.3117722,30.3999964 39.2840772,29.3717572 38.0203037,29.3717572 Z" id="Shape" fill="#717791"></path>
                                    <path d="M38.0203037,45.4120369 C38.0203037,47.939584 35.9643695,49.994974 33.4373666,49.994974 C30.9875003,49.994974 28.9974458,48.0583394 28.8772297,45.6372883 L32.170786,39.0500896 C32.348117,38.6953989 32.3290978,38.2735969 32.120431,37.9356912 C31.9117641,37.5977855 31.5430955,37.3919257 31.1458981,37.3919257 L24.2714925,37.3919257 C23.874295,37.3919257 23.5056264,37.5978142 23.2969596,37.9356912 C23.0882927,38.2735682 23.0692735,38.6953989 23.2466045,39.0500896 L26.5401609,45.6372883 C26.4199447,48.0583394 24.4298902,49.994974 21.9800239,49.994974 C19.4530211,49.994974 17.3970869,47.939584 17.3970869,45.4120369 L17.3970869,44.2663027 L15.1056183,44.2663027 L15.1056183,45.4120369 C15.1056183,49.2028133 18.1892476,52.2864425 21.9800239,52.2864425 C24.3698251,52.2864425 26.4764581,51.059533 27.7086953,49.2039304 C28.9409325,51.059533 31.0475654,52.2864425 33.4373666,52.2864425 C37.228143,52.2864425 40.3117722,49.2028133 40.3117722,45.4120369 L40.3117722,44.2663027 L38.0203037,44.2663027 L38.0203037,45.4120369 Z" id="Shape" fill="#717791"></path>
                                    <polygon id="Shape" fill="#717791" points="29.2919282 39.6833656 27.7086953 42.8498027 26.125491 39.6833656"></polygon>
                                </g>
                                <g id="Group-5" transform="translate(0.000000, 53.169231)" fill="#B9BCC9">
                                    <path d="M1.14576291,6.90963692 C0.85248358,6.90963692 0.559318825,6.79775597 0.335556923,6.57396543 C-0.111852308,6.12669941 -0.111852308,5.4011059 0.335556923,4.95383989 L4.38632906,0.902924531 C4.83388151,0.455372084 5.55918859,0.455372084 6.00674103,0.902924531 C6.45415027,1.35019055 6.45415027,2.07578406 6.00674103,2.52305007 L1.9559689,6.57399407 C1.73220699,6.79775597 1.43904224,6.90963692 1.14576291,6.90963692 Z" id="Shape"></path>
                                    <path d="M5.19653505,6.90963692 C4.90325572,6.90963692 4.61009097,6.79775597 4.38632906,6.57396543 L0.335556923,2.52307871 C-0.111852308,2.0758127 -0.111852308,1.35021919 0.335556923,0.902953175 C0.783395804,0.455687161 1.50870288,0.455687161 1.9559689,0.902953175 L6.00674103,4.95386853 C6.45415027,5.40113455 6.45415027,6.12672806 6.00674103,6.57399407 C5.78297913,6.79775597 5.48967116,6.90963692 5.19653505,6.90963692 Z" id="Shape"></path>
                                </g>
                                <path d="M59.9899587,15.5563502 C57.7787775,15.5563502 55.9798888,13.7574615 55.9798888,11.5462803 C55.9798888,9.33509908 57.7787775,7.53621035 59.9899587,7.53621035 C62.2011399,7.53621035 64.0000286,9.33509908 64.0000286,11.5462803 C64.0000286,13.7574615 62.2011399,15.5563502 59.9899587,15.5563502 Z M59.9899587,9.82767888 C59.0422646,9.82767888 58.2713573,10.5985862 58.2713573,11.5462803 C58.2713573,12.4939744 59.0422646,13.2648817 59.9899587,13.2648817 C60.9376528,13.2648817 61.7085601,12.4939744 61.7085601,11.5462803 C61.7085601,10.5985862 60.9376528,9.82767888 59.9899587,9.82767888 Z" id="Shape" fill="#B9BCC9"></path>
                                <path d="M65.3610177,32.0268531 C65.0678816,32.0268531 64.7745737,31.9149722 64.550955,31.6911817 L61.3102456,28.4506155 C61.0952772,28.2357903 60.9745741,27.9443155 60.9745741,27.6405527 C60.9745741,27.3367899 61.0952772,27.0453151 61.3102456,26.83049 L64.550955,23.5899238 C64.9983642,23.1426578 65.7238145,23.1426578 66.1712237,23.5899238 L69.4117899,26.83049 C69.8591991,27.277756 69.8591991,28.0033495 69.4117899,28.4506155 L66.1712237,31.6911817 C65.9474618,31.9149722 65.6541538,32.0268531 65.3610177,32.0268531 Z M63.7406058,27.6405527 L65.3610177,29.2606783 L66.9812865,27.6405527 L65.3610177,26.0204272 L63.7406058,27.6405527 Z" id="Shape" fill="#B9BCC9"></path>
                            </g>
                        </g>
                    </g>
                </g>
            </g>
        </g>
    </g>
</svg>