<svg width="204px" height="81px" viewBox="0 0 204 81" version="1.1" xmlns="http://www.w3.org/2000/svg" xmlns:xlink="http://www.w3.org/1999/xlink">
    <!-- Generator: Sketch 51.2 (57519) - http://www.bohemiancoding.com/sketch -->
    <desc>Created with Sketch.</desc>
    <defs>
        <polygon id="path-1" points="0.0771173416 0.45184495 58.3529868 0.45184495 58.3529868 2.14755204 0.0771173416 2.14755204"></polygon>
    </defs>
    <g id="Page-1" stroke="none" stroke-width="1" fill="none" fill-rule="evenodd">
        <g id="Home-Page" transform="translate(-67.000000, -48.000000)">
            <g id="Group-7" transform="translate(67.000000, 48.000000)">
                <g id="Group">
                    <g id="Group-136">
                        <path d="M199.20848,69.6306218 C199.889583,69.3721997 200.569959,69.3471449 201.250335,69.3557351 C201.930711,69.3628937 202.611087,69.4101398 203.291463,69.5525941 C203.621827,69.6213158 203.832853,69.9405852 203.762996,70.2648655 C203.711331,70.5046755 203.520681,70.6807748 203.291463,70.7287368 C202.611087,70.8704752 201.930711,70.9177213 201.250335,70.9255957 C200.569959,70.9341859 199.889583,70.9091311 199.20848,70.6499932 C198.922503,70.5411839 198.779879,70.2254937 198.890486,69.9434486 C198.949427,69.7945516 199.068766,69.6843106 199.20848,69.6306218" id="Fill-2" fill="#717791"></path>
                        <path d="M12.8199568,70.1405938 L196.209295,70.1405938" id="Fill-4" fill="#E5EEFD"></path>
                        <path d="M12.8199568,69.6571799 C20.4605425,69.4374137 28.1018559,69.4016212 35.7431693,69.4066321 L58.6671095,69.3887359 L104.514262,69.3529433 L150.361415,69.3164349 L173.285355,69.2985387 C180.926668,69.3042655 188.567982,69.3214459 196.209295,69.5097146 C196.562945,69.5190207 196.8431,69.8082244 196.83364,70.1561278 C196.824908,70.4932935 196.546936,70.7617375 196.209295,70.7710435 C188.567982,70.9593123 180.926668,70.9764927 173.285355,70.9822195 L150.361415,70.9643232 L104.514262,70.9278148 L58.6671095,70.8920223 L35.7431693,70.874126 C28.1018559,70.879137 20.4605425,70.8440603 12.8199568,70.6242941 C12.5485341,70.6157039 12.3345977,70.3930744 12.3426022,70.1260621 C12.3498789,69.8690717 12.5623599,69.6650542 12.8199568,69.6571799" id="Fill-6" fill="#717791"></path>
                        <path d="M8.30749969,70.1405938 L9.19728692,70.1405938" id="Fill-8" fill="#E5EEFD"></path>
                        <path d="M8.30749969,69.4247432 C8.40719114,69.4025518 8.50615492,69.4247432 8.60584637,69.4268907 C8.65605593,69.4247432 8.70553782,69.4497979 8.75501971,69.4619674 C8.80522927,69.4748527 8.85471116,69.4913173 8.90419305,69.5249622 C9.25056627,69.7533186 9.3422533,70.2150423 9.10939735,70.5550714 C9.05336639,70.6366784 8.98278193,70.7046842 8.90419305,70.7562254 C8.85471116,70.7891546 8.80522927,70.806335 8.75501971,70.8192203 C8.70553782,70.8313897 8.65605593,70.8564445 8.60584637,70.854297 C8.50615492,70.8564445 8.40719114,70.8786359 8.30749969,70.8564445 C7.90582318,70.7669632 7.65332002,70.374677 7.7435517,69.9795274 C7.80831476,69.693903 8.03607698,69.4848746 8.30749969,69.4247432" id="Fill-10" fill="#717791"></path>
                        <path d="M0.964678521,70.1405938 L3.93650252,70.1405938" id="Fill-12" fill="#E5EEFD"></path>
                        <path d="M0.964678521,69.6194545 C1.46022508,69.492749 1.95504396,69.4462187 2.45059052,69.4247432 C2.94613708,69.3932457 3.44095596,69.4140054 3.93650252,69.5621865 C4.2610455,69.6595422 4.44369188,69.9974237 4.34545578,70.3166931 C4.28433109,70.5149837 4.12424263,70.6610173 3.93650252,70.7190012 C3.44095596,70.8671823 2.94613708,70.8879419 2.45059052,70.8571604 C1.95504396,70.834969 1.46022508,70.7884387 0.964678521,70.6617331 C0.672880915,70.5872847 0.496783606,70.29307 0.573189463,70.0052981 C0.624126701,69.8098708 0.779849114,69.6667007 0.964678521,69.6194545" id="Fill-14" fill="#717791"></path>
                        <path d="M83.3951738,79.7375028 L140.632621,79.7375028" id="Fill-16" fill="#E5EEFD"></path>
                        <g id="Group-20" transform="translate(82.871248, 78.437876)">
                            <mask id="mask-2" fill="white">
                                <use xlink:href="#path-1"></use>
                            </mask>
                            <g id="Clip-19"></g>
                            <path d="M0.523925877,0.816212947 C2.90851629,0.594299236 5.29383438,0.565665208 7.6784248,0.561370104 L14.8336514,0.524145869 L29.1426492,0.45184495 L43.4523748,0.454708353 L50.6068737,0.455424203 C52.9921918,0.466161964 55.3767822,0.479763127 57.7613726,0.668747706 C58.1164779,0.697381734 58.3798962,1.00233412 58.3507892,1.35095341 C58.3253206,1.664496 58.0706344,1.90573768 57.7613726,1.93007661 C55.3767822,2.11977704 52.9921918,2.1333782 50.6068737,2.14340011 L43.4523748,2.14483181 L29.1426492,2.14769521 L14.8336514,2.0753943 L7.6784248,2.03817006 C5.29383438,2.03387496 2.90851629,2.00524093 0.523925877,1.78332722 C0.252503166,1.75755659 0.0538479374,1.52061002 0.0793165564,1.25359771 C0.101874476,1.01808284 0.293252956,0.837688467 0.523925877,0.816212947" id="Fill-18" fill="#717791" mask="url(#mask-2)"></path>
                        </g>
                        <path d="M59.845215,79.7375028 L74.5122289,79.7375028" id="Fill-21" fill="#E5EEFD"></path>
                        <path d="M59.845215,79.2162919 C62.2894748,79.0895864 64.7344622,79.0430561 67.1787219,79.0215806 C69.6237094,78.9979575 72.0679691,79.0072635 74.5122289,79.1590239 C74.8367718,79.1797836 75.0827259,79.4546702 75.062351,79.7739396 C75.0441592,80.0688701 74.8040265,80.2979423 74.5122289,80.3158386 C72.0679691,80.4683148 69.6237094,80.476905 67.1787219,80.4539978 C64.7344622,80.4318064 62.2894748,80.3852761 59.845215,80.2585705 C59.5526897,80.2435377 59.3278382,79.9980009 59.3431194,79.7102289 C59.3576729,79.4410691 59.5781583,79.2313248 59.845215,79.2162919" id="Fill-23" fill="#717791"></path>
                        <path d="M145.04786,9.10558988 C145.04786,9.9137853 144.38131,10.5695045 143.559765,10.5695045 C142.737493,10.5695045 142.070943,9.9137853 142.070943,9.10558988 C142.070943,8.29739446 142.737493,7.64167523 143.559765,7.64167523 C144.38131,7.64167523 145.04786,8.29739446 145.04786,9.10558988 Z" id="Stroke-39" stroke="#FD8989" stroke-width="2.61" stroke-linecap="round" stroke-linejoin="round"></path>
                        <path d="M134.217294,16.795759 C134.191097,17.1701489 134.17145,17.5445388 134.153986,17.9182129" id="Fill-60" fill="#93B9F4"></path>
                        <path d="M150.432945,3.73563599 L150.432945,67.8708461 C150.432945,69.0856447 149.429482,70.0799613 148.187341,70.0799613 L58.2452764,70.0799613 C57.0031354,70.0799613 56.0003995,69.0856447 56.0003995,67.8708461 L56.0003995,3.73563599 C56.0003995,2.72700238 56.6785924,1.88158273 57.6100162,1.61886553 C57.8123098,1.55443897 58.0291569,1.52652079 58.2452764,1.52652079 L148.187341,1.52652079 C149.429482,1.52652079 150.432945,2.51367888 150.432945,3.73563599" id="Fill-62" fill="#FFFFFF"></path>
                        <path d="M150.931111,37.6935163 C151.492149,40.8568605 151.306592,44.0202047 151.345886,47.1835488 L151.355346,56.6735813 L151.364078,66.1636138 L151.364806,67.3497784 C151.36335,67.5609543 151.369899,67.7148622 151.361167,67.9732843 C151.358256,68.2531819 151.298587,68.530932 151.220726,68.8000918 C150.88454,69.8767313 149.931286,70.7235826 148.801935,70.9397695 C148.661494,70.9612451 148.520325,70.9884474 148.378428,70.9913108 L148.171768,70.999901 L148.020412,70.999901 L147.417897,71.0006168 L146.21214,71.0013327 L143.799898,71.0041961 L105.213485,71.0378411 L66.626344,71.0714861 L61.8033152,71.0757812 L59.3910731,71.0779287 L58.1576643,71.0757812 C57.5747968,71.06218 56.9919292,70.8889441 56.5007487,70.5782649 C56.0081129,70.2725967 55.6035257,69.8344961 55.338652,69.3233787 C55.2011215,69.0692517 55.1123451,68.7915016 55.0461267,68.5108882 C55.0250242,68.3691497 54.9937341,68.2274113 54.9900958,68.0835253 L54.980636,67.8687701 L54.980636,67.7198732 L54.978453,65.347544 L54.9740869,60.6021698 L54.9624441,41.6228207 L55.0010109,3.63119338 C55.0213858,2.47938963 55.7483329,1.38485394 56.7918187,0.880895059 C57.0494155,0.747746832 57.3317534,0.663992303 57.6148189,0.602429144 C57.7581708,0.580953624 57.9015228,0.553035447 58.0463301,0.550172044 L58.2588111,0.541581836 L58.4094398,0.541581836 L59.6144693,0.543013538 L64.4382258,0.546592791 L74.085011,0.555182999 L93.3785814,0.570931714 L131.965722,0.603144995 L141.61178,0.611735203 L146.434809,0.615314456 L147.641293,0.616746158 L148.267821,0.61960956 C148.550159,0.624620515 148.831769,0.674730063 149.104647,0.751326086 C150.199798,1.07202719 151.065731,2.00549648 151.2884,3.10790653 C151.308775,3.24534986 151.340065,3.38350904 151.342975,3.52166822 L151.352435,3.72998077 L151.352435,3.87959356 L151.352435,4.47303378 L151.35098,5.65919836 L151.348797,8.03152751 L151.345158,12.7769017 C151.342248,15.9402458 151.395368,19.10359 150.867804,22.2669342 C150.827781,22.5031649 150.602202,22.6627996 150.36207,22.6241437 C150.169963,22.5933621 150.028067,22.445181 149.998232,22.2669342 C149.470668,19.10359 149.523061,15.9402458 149.520877,12.7769017 L149.517239,8.03152751 L149.515056,5.65919836 L149.513601,4.47303378 L149.513601,3.87959356 L149.512873,3.73284417 L149.507779,3.64479454 C149.509962,3.58537893 149.489587,3.52954258 149.485949,3.47084282 C149.392079,3.01484594 149.023876,2.62041221 148.570534,2.48869569 C148.457017,2.45934581 148.340589,2.43572274 148.219795,2.43572274 L147.641293,2.43357519 L146.434809,2.43429104 L141.61178,2.43787029 L131.965722,2.4464605 L93.3785814,2.47867378 L74.085011,2.49513835 L64.4382258,2.50229685 L59.6144693,2.50659196 L58.4094398,2.50802366 L58.2588111,2.50802366 L58.1685794,2.51303461 C58.1110931,2.51088706 58.0579729,2.52735163 58.0026696,2.53236258 C57.8949737,2.55956491 57.7865501,2.58533553 57.6890417,2.64045603 C57.2902759,2.83659912 57.0072104,3.25322422 57.0050274,3.69490409 L57.0363174,41.6228207 L57.0246746,60.6021698 L57.0203085,65.347544 L57.0181255,67.7198732 L57.0181255,67.8687701 L57.0232192,67.9496612 C57.0203085,68.0040659 57.0399558,68.056323 57.0428665,68.1100118 C57.0712458,68.2130943 57.0981698,68.3183243 57.1520177,68.4128166 C57.2509815,68.6046646 57.4059762,68.7750371 57.592261,68.890289 C57.777818,69.0091202 57.9910268,69.0713993 58.2129676,69.0778419 L59.3910731,69.0814212 L61.8033152,69.0835687 L66.626344,69.0878638 L105.213485,69.1215088 L143.799898,69.1558696 L146.21214,69.1580172 L147.417897,69.1594489 C147.813752,69.1551538 148.279464,69.1730501 148.439553,69.1343941 C148.896532,69.0499237 149.301847,68.6934301 149.440833,68.2517502 C149.467757,68.1407934 149.499047,68.0291207 149.497592,67.9117212 C149.504141,67.7757095 149.499047,67.533752 149.50123,67.3497784 L149.501958,66.1636138 L149.51069,56.6735813 L149.52015,47.1835488 C149.559444,44.0202047 149.373159,40.8568605 149.934924,37.6935163 C149.982951,37.4229248 150.244914,37.2418146 150.519975,37.2890607 C150.735367,37.3262849 150.894728,37.4930782 150.931111,37.6935163" id="Fill-64" fill="#717791"></path>
                        <path d="M151.032695,29.2553549 L151.345595,30.4637108 C151.472938,30.9576478 151.169498,31.4608908 150.667402,31.5861647 C150.165306,31.7121544 149.653751,31.4136447 149.526408,30.9189918 C149.486386,30.7657998 149.489296,30.6075968 149.526408,30.4637108 L149.83858,29.2553549 C149.922991,28.9310745 150.258449,28.7349314 150.588085,28.8179701 C150.813665,28.8745223 150.978847,29.0477582 151.032695,29.2553549" id="Fill-66" fill="#717791"></path>
                        <polyline id="Fill-68" fill="#E5EEFD" points="80.0353536 1.9397098 126.841582 1.9397098 126.841582 70.0801045 79.5907443 70.0801045 79.5907443 49.4092002"></polyline>
                        <path d="M80.0353536,1.12879415 L126.841582,1.12879415 C127.297106,1.12879415 127.666037,1.49173045 127.666037,1.93985297 L127.666037,70.0795318 C127.666037,70.5276543 127.297106,70.8905906 126.841582,70.8905906 L79.5907443,70.8905906 C79.1446796,70.8905906 78.7822975,70.543403 78.7670164,70.1095975 L78.765561,70.0795318 C78.7058917,68.357195 78.6549544,66.6348583 78.649133,64.9125216 C78.6374902,63.189469 78.6091109,61.4671322 78.6374902,59.7440796 L78.6935212,54.5770694 C78.7182621,53.7151852 78.7466415,52.8540168 78.8295964,51.9928485 C78.8958148,51.1316801 78.9816804,50.2697959 79.1264877,49.4086275 C79.1694205,49.1573639 79.4110086,48.9862756 79.6671501,49.0285108 C79.8701714,49.0614399 80.0215278,49.2196429 80.0542731,49.4086275 C80.1998081,50.2697959 80.284946,51.1316801 80.3511645,51.9928485 C80.4341194,52.8540168 80.461771,53.7151852 80.486512,54.5770694 L80.5425429,59.7440796 C80.5709223,61.4671322 80.5425429,63.189469 80.5316278,64.9125216 C80.5258064,66.6348583 80.4748692,68.357195 80.4144722,70.0795318 L79.5907443,69.2691888 L126.841582,69.2691888 L126.017126,70.0795318 L126.017126,1.93985297 L126.841582,2.75091179 L80.0353536,2.75091179 C79.5798291,2.75091179 79.210898,2.38725965 79.210898,1.93985297 C79.210898,1.49173045 79.5798291,1.12879415 80.0353536,1.12879415" id="Fill-70" fill="#717791"></path>
                        <path d="M79.973574,34.4759823 L79.973574,9.49207766" id="Fill-72" fill="#FFFFFF"></path>
                        <path d="M79.4334937,34.4759823 C79.2959632,32.3942885 79.2006378,30.3125947 79.1511559,28.2301851 C79.0849375,26.1477755 79.0623796,24.0660817 79.0209021,21.9843879 C78.983063,19.9026941 79.0158084,17.8202845 79.0754777,15.7378749 C79.1497005,13.6561811 79.2741329,11.5744873 79.5819394,9.49207766 C79.6132294,9.27947001 79.8140677,9.13272062 80.0301871,9.1635022 C80.2070121,9.18855697 80.3401766,9.3260003 80.3641898,9.49207766 C80.6719963,11.5744873 80.7964287,13.6561811 80.8713792,15.7378749 C80.9317762,17.8202845 80.9645216,19.9026941 80.9259548,21.9843879 C80.8837497,24.0660817 80.8626471,26.1477755 80.7949733,28.2301851 C80.7469468,30.3125947 80.6516214,32.3942885 80.5126355,34.4759823 C80.493716,34.7687652 80.2361191,34.9913948 79.9377724,34.9720668 C79.663439,34.9541705 79.4509579,34.7386995 79.4334937,34.4759823" id="Fill-74" fill="#717791"></path>
                        <g id="Group-79" transform="translate(89.420321, 26.896627)">
                            <path d="M0.268148175,4.28637071 C0.268148175,2.21970979 1.97090727,0.543903348 4.07243218,0.543903348 C6.17250174,0.543903348 7.87598851,2.21970979 7.87598851,4.28637071" id="Fill-76" fill="#E5EEFD"></path>
                            <path d="M0.268148175,4.28637071 C0.268148175,2.21970979 1.97090727,0.543903348 4.07243218,0.543903348 C6.17250174,0.543903348 7.87598851,2.21970979 7.87598851,4.28637071" id="Stroke-78" stroke="#717791" stroke-width="2.5" stroke-linecap="round" stroke-linejoin="round"></path>
                        </g>
                        <g id="Group-83" transform="translate(107.612192, 26.896627)">
                            <path d="M0.277316877,4.28637071 C0.277316877,2.21970979 1.98007598,0.543903348 4.08160088,0.543903348 C6.18167044,0.543903348 7.88515722,2.21970979 7.88515722,4.28637071" id="Fill-80" fill="#E5EEFD"></path>
                            <path d="M0.277316877,4.28637071 C0.277316877,2.21970979 1.98007598,0.543903348 4.08160088,0.543903348 C6.18167044,0.543903348 7.88515722,2.21970979 7.88515722,4.28637071" id="Stroke-82" stroke="#717791" stroke-width="2.5" stroke-linecap="round" stroke-linejoin="round"></path>
                        </g>
                        <path d="M107.583303,40.6016597 C107.394108,43.1608259 105.227092,45.1630603 102.597275,45.1630603 C99.9587266,45.1630603 97.7909833,43.1608259 97.6025155,40.6016597 L107.583303,40.6016597 Z" id="Fill-84" fill="#FFFFFF"></path>
                        <path d="M107.583303,40.6016597 C107.394108,43.1608259 105.227092,45.1630603 102.597275,45.1630603 C99.9587266,45.1630603 97.7909833,43.1608259 97.6025155,40.6016597 L107.583303,40.6016597 Z" id="Stroke-86" stroke="#717791" stroke-width="2.5" stroke-linecap="round" stroke-linejoin="round"></path>
                        <path d="M121.585295,39.0504113 C121.585295,41.0547932 119.933473,42.6797743 117.895984,42.6797743 C115.858494,42.6797743 114.206672,41.0547932 114.206672,39.0504113 C114.206672,37.0460294 115.858494,35.4210484 117.895984,35.4210484 C119.933473,35.4210484 121.585295,37.0460294 121.585295,39.0504113" id="Fill-88" fill="#B8D4FF"></path>
                        <path d="M90.905724,39.0504113 C90.905724,41.0547932 89.2531745,42.6797743 87.2164126,42.6797743 C85.1789231,42.6797743 83.5263736,41.0547932 83.5263736,39.0504113 C83.5263736,37.0460294 85.1789231,35.4210484 87.2164126,35.4210484 C89.2531745,35.4210484 90.905724,37.0460294 90.905724,39.0504113" id="Fill-90" fill="#B8D4FF"></path>
                        <path d="M55.7435303,17.6972298 L136.610034,17.6972298" id="Fill-92" fill="#E5EEFD"></path>
                        <path d="M55.7435303,17.2138158 C59.1126648,16.9911862 62.4825269,16.963268 65.852389,16.9589729 L75.9597924,16.9217487 L96.1767822,16.8494478 L116.393772,16.8515953 L126.501903,16.853027 C129.871037,16.8637648 133.240172,16.8766501 136.610034,17.0663505 C136.963684,17.0863944 137.234379,17.3849041 137.214004,17.7335234 C137.195812,18.0570879 136.930939,18.3097832 136.610034,18.3276794 C133.240172,18.5173799 129.871037,18.530981 126.501903,18.541003 L116.393772,18.5424347 L96.1767822,18.5445822 L75.9597924,18.4729971 L65.852389,18.4357729 C62.4825269,18.4307619 59.1126648,18.4028438 55.7435303,18.1809301 C55.4721076,18.1623179 55.2669033,17.931814 55.2850952,17.6648017 C55.3025593,17.4199808 55.5012146,17.2295645 55.7435303,17.2138158" id="Fill-94" fill="#717791"></path>
                        <path d="M142.43136,17.6972298 L144.614384,17.6972298" id="Fill-96" fill="#E5EEFD"></path>
                        <path d="M142.43136,17.2138158 C142.522319,16.9811643 142.613279,16.9661315 142.704238,16.9568254 L142.977116,16.9117268 C143.159035,16.8780818 143.340953,16.8687758 143.522872,16.8487319 C143.704791,16.8458685 143.88671,16.8329832 144.068628,16.8430051 L144.341506,16.8523112 C144.432466,16.8544587 144.523425,16.8809452 144.614384,17.0663505 C144.816678,17.4786805 144.799942,17.9446993 144.614384,18.3276794 C144.523425,18.5130848 144.432466,18.5402871 144.341506,18.5417188 L144.068628,18.5510249 C143.88671,18.5617626 143.704791,18.5481615 143.522872,18.5452981 C143.340953,18.5259701 143.159035,18.516664 142.977116,18.4823032 L142.704238,18.4372046 C142.613279,18.4278985 142.522319,18.4128657 142.43136,18.1809301 C142.304745,17.8573656 142.314932,17.5137572 142.43136,17.2138158" id="Fill-98" fill="#717791"></path>
                        <path d="M69.569352,55.6376022 L150.435856,55.6376022" id="Fill-100" fill="#E5EEFD"></path>
                        <path d="M69.569352,55.1542598 C72.9392142,54.9316303 76.3083486,54.9037121 79.6782108,54.899417 L89.7856142,54.8614769 L110.002604,54.7898918 L130.219594,54.7920394 L140.327725,54.7934711 C143.696859,54.8042088 147.066721,54.8170942 150.435856,55.0067946 C150.789506,55.0268384 151.060201,55.3253481 151.040554,55.6739674 C151.021634,55.9975319 150.757488,56.2502272 150.435856,56.2681235 C147.066721,56.4578239 143.696859,56.4714251 140.327725,56.481447 L130.219594,56.4828787 L110.002604,56.4850262 L89.7856142,56.4134412 L79.6782108,56.3762169 C76.3083486,56.371206 72.9392142,56.3432878 69.569352,56.1206582 C69.2979293,56.102762 69.092725,55.8722581 69.1109169,55.6052458 C69.1283811,55.3604248 69.3270363,55.1700085 69.569352,55.1542598" id="Fill-102" fill="#717791"></path>
                        <path d="M62.4546569,55.6376022 L65.3653563,55.6376022" id="Fill-104" fill="#E5EEFD"></path>
                        <path d="M62.4546569,55.1542598 C62.5761786,54.9216084 62.6969727,54.9072913 62.8184944,54.8972694 L63.1823318,54.8521708 C63.4246475,54.8185259 63.6676909,54.8085039 63.9100066,54.789176 C64.1523223,54.7863126 64.394638,54.7727114 64.6376814,54.784165 L65.0015188,54.7927552 C65.1223129,54.7949028 65.2438346,54.8221051 65.3653563,55.0067946 C65.6236808,55.40266 65.607672,55.896597 65.3653563,56.2681235 C65.2438346,56.4535288 65.1223129,56.4807311 65.0015188,56.4821628 L64.6376814,56.4914689 C64.394638,56.5022067 64.1523223,56.4886055 63.9100066,56.4857421 C63.6676909,56.4664141 63.4246475,56.4571081 63.1823318,56.4227472 L62.8184944,56.3776486 C62.6969727,56.3683426 62.5761786,56.3533097 62.4546569,56.1206582 C62.2909301,55.8078315 62.3047559,55.4463269 62.4546569,55.1542598" id="Fill-106" fill="#717791"></path>
                        <path d="M130.060888,42.7520036 L150.435783,42.7520036" id="Fill-108" fill="#E5EEFD"></path>
                        <path d="M130.060888,42.2685896 C130.910084,42.0373699 131.758553,42.0194736 132.60775,42.0137468 L135.154612,41.9765226 L140.248335,41.9042216 L145.342059,41.907085 L147.888921,41.9078009 C148.738118,41.9085167 149.587314,41.9364349 150.435783,42.1218402 C150.789433,42.1984363 151.013557,42.5434763 150.934968,42.8920956 C150.877482,43.1447909 150.676643,43.3294803 150.435783,43.3831691 C149.587314,43.5678586 148.738118,43.5957768 147.888921,43.5957768 L145.342059,43.5972085 L140.248335,43.6000719 L135.154612,43.527771 L132.60775,43.4905467 C131.758553,43.4848199 130.910084,43.4669237 130.060888,43.2357039 C129.789465,43.1612554 129.630104,42.8849371 129.705783,42.6179248 C129.755264,42.4425413 129.89425,42.3144041 130.060888,42.2685896" id="Fill-110" fill="#717791"></path>
                        <path d="M55.8373276,42.7520036 L74.7576008,42.7520036" id="Fill-112" fill="#E5EEFD"></path>
                        <path d="M55.8373276,42.2685896 C56.6253994,42.0373699 57.4141989,42.0194736 58.2022708,42.0137468 L60.5679416,41.9765226 L65.297828,41.9042216 L70.0277144,41.907085 L72.3926576,41.9078009 C73.1807295,41.9085167 73.969529,41.9364349 74.7576008,42.1218402 C75.1112508,42.2048789 75.3302809,42.5542141 75.2458706,42.9028333 C75.1862013,43.1483701 74.9904568,43.3273328 74.7576008,43.3831691 C73.969529,43.5678586 73.1807295,43.5957768 72.3926576,43.5957768 L70.0277144,43.5972085 L65.297828,43.6000719 L60.5679416,43.527771 L58.2022708,43.4905467 C57.4141989,43.4848199 56.6253994,43.4669237 55.8373276,43.2357039 C55.5659049,43.1555286 55.4116378,42.8749152 55.4924097,42.6079029 C55.5440746,42.4396779 55.6786945,42.3165516 55.8373276,42.2685896" id="Fill-114" fill="#717791"></path>
                        <path d="M55.8373276,29.8666913 L64.9339906,29.8666913" id="Fill-116" fill="#E5EEFD"></path>
                        <path d="M55.8373276,29.3836353 C56.2164462,29.1509838 56.5955648,29.135951 56.9739557,29.1266449 L58.1120391,29.0815463 C58.8695486,29.0471855 59.6277858,29.0378794 60.3860229,29.0185514 C61.1435324,29.015688 61.9017696,29.0020869 62.6600068,29.0128246 L63.7966349,29.0221307 C64.1757534,29.0235624 64.554872,29.0507647 64.9339906,29.2361701 C65.2876406,29.4094059 65.4324479,29.8317578 65.2563506,30.1803771 C65.1843108,30.3228314 65.0693381,30.4316407 64.9339906,30.497499 C64.554872,30.6829043 64.1757534,30.7101066 63.7966349,30.7115383 L62.6600068,30.7208444 C61.9017696,30.7308663 61.1435324,30.717981 60.3860229,30.7151176 C59.6277858,30.6957896 58.8695486,30.6857677 58.1120391,30.6521227 L56.9739557,30.6070241 C56.5955648,30.5977181 56.2164462,30.5826852 55.8373276,30.3500337 C55.5659049,30.1839564 55.4836776,29.8324737 55.6524982,29.5654614 C55.7005247,29.4895812 55.7652878,29.428018 55.8373276,29.3836353" id="Fill-118" fill="#717791"></path>
                        <path d="M68.9354745,29.8666913 L72.2107389,29.8666913" id="Fill-120" fill="#E5EEFD"></path>
                        <path d="M68.9354745,29.3836353 C69.0715497,29.1509838 69.2083526,29.135951 69.3444278,29.1266449 L69.7541087,29.0815463 C70.0269867,29.0471855 70.3005925,29.0378794 70.5734705,29.0185514 C70.8463486,29.015688 71.1192267,29.0020869 71.3921047,29.0128246 L71.801058,29.0221307 C71.9378609,29.0235624 72.073936,29.0507647 72.2107389,29.2361701 C72.4945321,29.6220136 72.4792509,30.1309834 72.2107389,30.497499 C72.073936,30.6829043 71.9378609,30.7101066 71.801058,30.7115383 L71.3921047,30.7208444 C71.1192267,30.7308663 70.8463486,30.717981 70.5734705,30.7151176 C70.3005925,30.6957896 70.0269867,30.6857677 69.7541087,30.6521227 L69.3444278,30.6070241 C69.2083526,30.5977181 69.0715497,30.5826852 68.9354745,30.3500337 C68.7542835,30.0407862 68.7673816,29.6721231 68.9354745,29.3836353" id="Fill-122" fill="#717791"></path>
                        <path d="M127.150189,29.8666913 L140.821743,29.8666913" id="Fill-124" fill="#E5EEFD"></path>
                        <path d="M127.150189,29.3832774 C127.719958,29.1520576 128.289,29.1341613 128.859497,29.1284345 L130.568077,29.0912103 L133.986694,29.0189094 L137.403855,29.0210569 L139.112435,29.0224886 C139.682932,29.0224886 140.252701,29.0511227 140.821743,29.2358121 C141.175393,29.3510641 141.368227,29.7261698 141.251799,30.0747891 C141.181942,30.2809541 141.01676,30.4327145 140.821743,30.4978569 C140.252701,30.6818305 139.682932,30.7104645 139.112435,30.7104645 L137.403855,30.7118962 L133.986694,30.7147596 L130.568077,30.6424587 L128.859497,30.6052345 C128.289,30.5995077 127.719958,30.5816114 127.150189,30.3503916 C126.878766,30.2394348 126.74924,29.9337665 126.862029,29.6667542 C126.91806,29.533606 127.025028,29.4348186 127.150189,29.3832774" id="Fill-126" fill="#717791"></path>
                    </g>
                </g>
            </g>
        </g>
    </g>
</svg>