<svg id="Layer_1" data-name="Layer 1" xmlns="http://www.w3.org/2000/svg" viewBox="0 0 80.37479 67.20172"><defs><style>.cls-1{fill:#bbc2db;}.cls-2{fill:none;stroke-width:1.27931px;}.cls-2,.cls-4,.cls-5{stroke:#3c435c;}.cls-2,.cls-4{stroke-linecap:round;stroke-linejoin:round;}.cls-3{fill:#3c435c;}.cls-4,.cls-5{fill:#fff;}.cls-4{stroke-width:1.29211px;}.cls-5{stroke-miterlimit:10;stroke-width:1.3px;}</style></defs><title>steps_3_sb</title><circle class="cls-1" cx="39.65" cy="33.05566" r="29.5"/><path class="cls-2" d="M873.55622,583.78918" transform="translate(-857.85 -549.44434)"/><path class="cls-3" d="M928.92505,559.86914a4.5202,4.5202,0,0,1,.8374,2.77539,4.42938,4.42938,0,0,1-1.7124,3.67481,7.24935,7.24935,0,0,1-4.61279,1.35058,10.93882,10.93882,0,0,1-3.46241-.55078,7.53229,7.53229,0,0,1-2.7373-1.52441l1.1001-2.35059a7.97934,7.97934,0,0,0,4.97461,1.85059,4.00015,4.00015,0,0,0,2.53759-.67481,2.47783,2.47783,0,0,0,.83741-2.05078,2.3231,2.3231,0,0,0-.84961-1.9873,4.3823,4.3823,0,0,0-2.625-.6377h-2.3501v-2.57422h1.9248q3.45045,0,3.4502-2.625a2.34735,2.34735,0,0,0-.75-1.875,3.10433,3.10433,0,0,0-2.1001-.65039,7.85367,7.85367,0,0,0-4.7998,1.84961l-1.0752-2.34961a7.93734,7.93734,0,0,1,2.7124-1.51269,10.27891,10.27891,0,0,1,3.3628-.5625,6.38212,6.38212,0,0,1,4.1875,1.28808,4.22932,4.22932,0,0,1,1.5625,3.4375,4.60772,4.60772,0,0,1-.7627,2.5625,4.21194,4.21194,0,0,1-2.0625,1.58692A4.28537,4.28537,0,0,1,928.92505,559.86914Z" transform="translate(-857.85 -549.44434)"/><path class="cls-4" d="M937.57874,609.07139a2.06419,2.06419,0,0,1-1.60426,1.9174c-3.67339,1.03137-12.74395,3.57784-17.50351,4.91386a2.60112,2.60112,0,0,1-2.073-.28866,1.94459,1.94459,0,0,1-.95235-1.62875V570.0147a1.945,1.945,0,0,1,.95235-1.62875,2.60109,2.60109,0,0,1,2.073-.28855c4.75932,1.33612,13.83012,3.88249,17.50351,4.914a2.06383,2.06383,0,0,1,1.60426,1.91741v34.14262Z" transform="translate(-857.85 -549.44434)"/><path class="cls-4" d="M897.53673,584.52827v-9.81481h14.07015a.78682.78682,0,0,0,.83535-.72713V572.5695a.7868.7868,0,0,0-.83535-.72692H893.87227v12.68569" transform="translate(-857.85 -549.44434)"/><path class="cls-5" d="M872.11172,587.89221a1.07071,1.07071,0,0,1-1.13683.98917h-11.3382a1.22734,1.22734,0,0,0-.80361.2899.92825.92825,0,0,0-.33308.6994V592.813a.928.928,0,0,0,.33308.69929,1.22685,1.22685,0,0,0,.80361.29h11.3382a1.0707,1.0707,0,0,1,1.13683.98906V596.427a.97427.97427,0,0,0,.56828.85683,1.28446,1.28446,0,0,0,1.13682-.00024c2.59755-1.306,7.51819-3.77989,10.115-5.0855a.9299.9299,0,0,0,0-1.7133c-2.59685-1.3055-7.51749-3.77892-10.115-5.085a1.28524,1.28524,0,0,0-1.13682,0,.97379.97379,0,0,0-.56828.85659v1.63587Z" transform="translate(-857.85 -549.44434)"/><path class="cls-2" d="M873.55622,586.84258" transform="translate(-857.85 -549.44434)"/><path class="cls-4" d="M893.87227,598.1035v12.68568h17.73461a.7868.7868,0,0,0,.83535-.72692v-1.41682a.78682.78682,0,0,0-.83535-.72714H897.53673v-9.8148" transform="translate(-857.85 -549.44434)"/></svg>