<svg id="Layer_1" data-name="Layer 1" xmlns="http://www.w3.org/2000/svg" viewBox="0 0 69.50928 67.20172"><defs><style>.cls-1,.cls-3{fill:none;stroke:#3c435c;stroke-linecap:round;stroke-linejoin:round;}.cls-1{stroke-width:1.27931px;}.cls-2{fill:#3c435c;}.cls-3{stroke-width:1.29211px;}.cls-4{fill:#bbc2db;}</style></defs><title>steps_3_sb</title><path class="cls-1" d="M879.53421,587.78918" transform="translate(-859 -549.44434)"/><path class="cls-2" d="M927.67188,559.86914a4.5202,4.5202,0,0,1,.8374,2.77539,4.42938,4.42938,0,0,1-1.7124,3.67481,7.24937,7.24937,0,0,1-4.6128,1.35058,10.9388,10.9388,0,0,1-3.4624-.55078,7.53213,7.53213,0,0,1-2.7373-1.52441l1.10009-2.35059a7.97936,7.97936,0,0,0,4.97461,1.85059,4.00018,4.00018,0,0,0,2.5376-.67481,2.47782,2.47782,0,0,0,.8374-2.05078,2.32308,2.32308,0,0,0-.84961-1.9873,4.38226,4.38226,0,0,0-2.625-.6377h-2.35009v-2.57422h1.9248q3.45044,0,3.4502-2.625a2.34735,2.34735,0,0,0-.75-1.875,3.10433,3.10433,0,0,0-2.1001-.65039,7.8537,7.8537,0,0,0-4.79981,1.84961l-1.07519-2.34961a7.93724,7.93724,0,0,1,2.7124-1.51269,10.27885,10.27885,0,0,1,3.36279-.5625,6.3821,6.3821,0,0,1,4.1875,1.28808,4.22929,4.22929,0,0,1,1.5625,3.4375,4.60771,4.60771,0,0,1-.76269,2.5625,4.21194,4.21194,0,0,1-2.0625,1.58692A4.28544,4.28544,0,0,1,927.67188,559.86914Z" transform="translate(-859 -549.44434)"/><path class="cls-3" d="M925,608.80764c0,.90762-.88818,1.7117-2.19823,1.9904-5.03345,1.07062-17.46237,3.714-23.98414,5.1009a4.56422,4.56422,0,0,1-2.84049-.29964,1.99775,1.99775,0,0,1-1.30495-1.69075V568.26421a1.99813,1.99813,0,0,1,1.30495-1.69076,4.56421,4.56421,0,0,1,2.84049-.29953c6.52144,1.387,18.95069,4.03028,23.98414,5.101,1.31.27849,2.19823,1.08257,2.19823,1.9904v35.44231Z" transform="translate(-859 -549.44434)"/><path class="cls-3" d="M865.43189,597.42938v12.9009h23.40953c.60885,0,1.10265-.32558,1.10265-.727v-1.41672c0-.40166-.4938-.72724-1.10265-.72724h-18.5726V597.42938m-.00033-12.90111v-9.81481h18.5726c.60918,0,1.10265-.32558,1.10265-.72713V572.5695c0-.40134-.49347-.72692-1.10265-.72692H865.4314v12.68569" transform="translate(-859 -549.44434)"/><path class="cls-4" d="M875.08978,587.88752c0,.48935-.60178.88581-1.34379.88581H860.34363a1.75305,1.75305,0,0,0-.94991.25959.77238.77238,0,0,0-.39372.62632v2.63483a.7722.7722,0,0,0,.39372.62621,1.75215,1.75215,0,0,0,.94991.2597H873.746c.742,0,1.34379.39645,1.34379.8857v1.46469a.90071.90071,0,0,0,.67173.76729,1.96011,1.96011,0,0,0,1.34379-.00022l11.95651-4.554a.77392.77392,0,0,0,0-1.53425c-3.06961-1.16906-8.88607-3.384-11.95651-4.55361a1.96139,1.96139,0,0,0-1.34379,0,.90035.90035,0,0,0-.67173.76708v1.4649Z" transform="translate(-859 -549.44434)"/></svg>