<svg id="Layer_1" data-name="Layer 1" xmlns="http://www.w3.org/2000/svg" viewBox="0 0 83 74"><defs><style>.cls-1,.cls-3{fill:none;}.cls-2{fill:#bbc2db;}.cls-3,.cls-5,.cls-6{stroke:#3c435c;}.cls-3,.cls-5{stroke-linecap:round;stroke-linejoin:round;}.cls-3{stroke-width:1.27931px;}.cls-4{fill:#3c435c;}.cls-5,.cls-6{fill:#fff;}.cls-5{stroke-width:1.29211px;}.cls-6{stroke-miterlimit:10;stroke-width:1.3px;}</style></defs><title>steps_3_sb</title><rect class="cls-1" width="83" height="74"/><circle class="cls-2" cx="42.5" cy="36.5" r="29.5"/><path class="cls-3" d="M875.55622,584.78918" transform="translate(-857 -547)"/><path class="cls-4" d="M928.92505,559.86914a4.5202,4.5202,0,0,1,.8374,2.77539,4.42938,4.42938,0,0,1-1.7124,3.67481,7.24935,7.24935,0,0,1-4.61279,1.35058,10.93882,10.93882,0,0,1-3.46241-.55078,7.53229,7.53229,0,0,1-2.7373-1.52441l1.1001-2.35059a7.97934,7.97934,0,0,0,4.97461,1.85059,4.00015,4.00015,0,0,0,2.53759-.67481,2.47783,2.47783,0,0,0,.83741-2.05078,2.3231,2.3231,0,0,0-.84961-1.9873,4.3823,4.3823,0,0,0-2.625-.6377h-2.3501v-2.57422h1.9248q3.45045,0,3.4502-2.625a2.34735,2.34735,0,0,0-.75-1.875,3.10433,3.10433,0,0,0-2.1001-.65039,7.85367,7.85367,0,0,0-4.7998,1.84961l-1.0752-2.34961a7.93734,7.93734,0,0,1,2.7124-1.51269,10.27891,10.27891,0,0,1,3.3628-.5625,6.38212,6.38212,0,0,1,4.1875,1.28808,4.22932,4.22932,0,0,1,1.5625,3.4375,4.60772,4.60772,0,0,1-.7627,2.5625,4.21194,4.21194,0,0,1-2.0625,1.58692A4.28537,4.28537,0,0,1,928.92505,559.86914Z" transform="translate(-857 -547)"/><path class="cls-5" d="M933.57874,610.07139a2.06419,2.06419,0,0,1-1.60426,1.9174c-3.67339,1.03137-12.74395,3.57784-17.50351,4.91386a2.60112,2.60112,0,0,1-2.073-.28866,1.94459,1.94459,0,0,1-.95235-1.62875V571.0147a1.945,1.945,0,0,1,.95235-1.62875,2.60109,2.60109,0,0,1,2.073-.28855c4.75932,1.33612,13.83012,3.88249,17.50351,4.914a2.06383,2.06383,0,0,1,1.60426,1.91741v34.14262Z" transform="translate(-857 -547)"/><path class="cls-5" d="M893.53673,585.52827v-9.81481h14.07015a.78682.78682,0,0,0,.83535-.72713V573.5695a.7868.7868,0,0,0-.83535-.72692H889.87227v12.68569" transform="translate(-857 -547)"/><path class="cls-6" d="M875.27937,589.1743a.92657.92657,0,0,1-.98379.856h-9.81191a1.06211,1.06211,0,0,0-.69542.25087.80331.80331,0,0,0-.28825.60526v2.54624a.80307.80307,0,0,0,.28825.60515,1.06166,1.06166,0,0,0,.69542.251h9.81191a.92657.92657,0,0,1,.98379.85591v1.41544a.84314.84314,0,0,0,.49178.7415,1.11157,1.11157,0,0,0,.98379-.00021c2.24788-1.13017,6.50613-3.27106,8.7534-4.40092a.80472.80472,0,0,0,0-1.48266c-2.24727-1.12975-6.50552-3.27022-8.7534-4.4005a1.11226,1.11226,0,0,0-.98379,0,.84273.84273,0,0,0-.49178.74129v1.41565Z" transform="translate(-857 -547)"/><path class="cls-3" d="M875.55622,587.84258" transform="translate(-857 -547)"/><path class="cls-5" d="M889.87227,599.1035v12.68568h17.73461a.7868.7868,0,0,0,.83535-.72692v-1.41682a.78682.78682,0,0,0-.83535-.72714H893.53673v-9.8148" transform="translate(-857 -547)"/></svg>