<svg id="Layer_1" data-name="Layer 1" xmlns="http://www.w3.org/2000/svg" viewBox="0 0 83 74"><defs><style>.cls-1,.cls-4,.cls-5,.cls-6,.cls-7{fill:none;}.cls-2{fill:#c0ddf7;}.cls-3{fill:#3c435c;}.cls-4,.cls-5,.cls-6,.cls-7{stroke:#3c435c;stroke-linecap:round;stroke-linejoin:round;}.cls-4,.cls-5{stroke-width:1.27931px;}.cls-5{fill-rule:evenodd;}.cls-7{stroke-width:0.8px;}</style></defs><title>steps_1_sb</title><rect class="cls-1" width="83" height="74"/><path class="cls-2" d="M906.18105,589.96924a18.32739,18.32739,0,0,1,3.22827-.53663c.121-.01855.24-.04345.36279-.05468a15.24134,15.24134,0,0,0,3.00244-.63379,14.74623,14.74623,0,0,1,4.60645-7.35791c4.80212-4.15625,10.20849-2.41651,15.67627-1.37158A29.513,29.513,0,0,0,885.0707,564.811l.00805.0127c2.88037,5.57373,12.49353,10.71289,8.93408,18.27246a11.641,11.641,0,0,1-6.72265,5.8706,5.9649,5.9649,0,0,1-3.74536,1.44825,12.96717,12.96717,0,0,1-3.44483.78174c-.014.05029-.02746.10156-.04114.15234a19.54943,19.54943,0,0,1,4.9408,1.53613,7.30939,7.30939,0,0,1,2.29443,2.95215s.33741,1.09668-3.40783.06738c-3.74512-1.02881-3.69446,1.63623-6.17444,1.40039-.73145-.06982-.73145.61133-.38208,1.59424a29.50257,29.50257,0,0,0,41.78174,13.80078,9.22876,9.22876,0,0,1-7.98413-1.4458c-1.24048-1.03418-2.80518-2.5957-2.53125-4.35986a2.93342,2.93342,0,0,1,2.0708-2.32813,4.63213,4.63213,0,0,1,.98083-1.65136l-.0188-.03272a18.04762,18.04762,0,0,1-2.57165-1.12842,12.41265,12.41265,0,0,1-3.96289-4.22461,4.90358,4.90358,0,0,1-.30506-4.78759,2.035,2.035,0,0,1-.07409-.19092A2.12316,2.12316,0,0,1,906.18105,589.96924Z" transform="translate(-857 -547)"/><ellipse class="cls-3" cx="915.36539" cy="602.70346" rx="0.96371" ry="0.48186" transform="translate(-928.16042 -421.69792) rotate(-7.53873)"/><path class="cls-4" d="M911.44251,602.36414l-1.65211-.50792c-5.48866-2.15921-5.34411-7.33841-5.12486-10.27827.25049-3.3595,7.394-1.28674,8.32089-3.72324.92675-2.43612,4.10754-9.87861,12.055-9.705a15.27354,15.27354,0,0,1,9.73963,3.47157c2.35523,2.13828,3.36868,6.45571,3.10183,9.71358a16.49676,16.49676,0,0,1-5.7113,11.51329c-2.93817,2.4107-7.77106,1.97194-8.41409-1.59939" transform="translate(-857 -547)"/><path class="cls-4" d="M924.19164,596.10439c.98847-1.75924,3.96411-3.65341,5.12749-4.83527,3.37355-3.42747.1418-5.6.1418-5.6m-24.79545,7.66106s1.606.49779,2.14753-.73923a5.40544,5.40544,0,0,0,.37917-2.53819m13.27085-2.8083a2.72111,2.72111,0,0,1,2.87332-.328m-3.6609,11.43546s-5.12686-1.04319-7.325,1.61088c-.91626,1.1059.30546,3.67958-2.86383,5.28409-1.363.69031-.9866,2.96671-.9866,2.96671s2.34287,3.10764,3.56946,3.79933c3.11282,1.75518,7.67261,1.28074,8.82836.16266m-1.654-13.11112a10.97589,10.97589,0,0,1,3.44876-4.25727.71273.71273,0,0,1,1.06755.34107c2.05477,5.48642-2.22942,9.38294-2.22942,9.38294m-8.04166,2.051a4.30433,4.30433,0,0,1,3.932-.66777m-3.49549,2.49566a7.91386,7.91386,0,0,1,5.87558,2.05764" transform="translate(-857 -547)"/><path class="cls-4" d="M893.22321,570.74612h9.17131l2.45117-4.23934,3.27836,8.49511,1.55292-4.27876h6.02425m4.19344.00619h-1.09691" transform="translate(-857 -547)"/><path class="cls-4" d="M881.52926,591.32877a32.86071,32.86071,0,0,0,4.91323-1.57814c6.0285-2.56687,12.911-8.36062,5.09563-17.64431-1.27706-1.51718-4.03882-3.24612-4.67-4.52587-2.062-4.18212-4.7913-6.35926-9.90854-6.02944-6.40892.06778-9.48276,2.48829-11.23906,9.12327-1.75618,6.63555-10.02085,9.31742-6.50887,18.27522,1.35739,3.461,5.51053,4.47221,10.18176,4.36958" transform="translate(-857 -547)"/><path class="cls-4" d="M879.749,590.86109s4.39164,1.14694,5.64046,2.0394c1.03632.74023,1.83052,1.36277,1.84426,2.7587" transform="translate(-857 -547)"/><path class="cls-5" d="M867.40675,595.749c2.19882-4.10454,7.22261-4.93122,7.22261-4.93122h0a18.404,18.404,0,0,0,.62441-4.35422" transform="translate(-857 -547)"/><path class="cls-4" d="M875.71552,592.95777l2.42794,2.58936,1.43211-4.64263s-.7531-.70743-.31908-3.13713" transform="translate(-857 -547)"/><path class="cls-4" d="M874.58676,570.544c-2.15522.76965-3.24463,1.516-3.09446,5.88-1.00658.16378-2.87158.69575-2.75864,2.74852.11019,2.00954,1.27057,2.588,2.95541,2.74027a8.45025,8.45025,0,0,0,7.84514,5.87639c4.78043.21845,7.4736-3.33626,7.51558-8.03335.03323-3.70769-2.37085-8.5652-3.3853-10.44737a.5731.5731,0,0,0-.95086-.08158,10.0142,10.0142,0,0,1-4.48271,3.15711.34062.34062,0,0,1-.39479-.50923c2.737-4.10147-1.127-4.78792-1.127-4.78792s0,2.69886-2.12235,3.4572Z" transform="translate(-857 -547)"/><path class="cls-4" d="M875.06262,566.91231a4.40519,4.40519,0,0,1,2.84472.70244" transform="translate(-857 -547)"/><ellipse class="cls-3" cx="878.49256" cy="577.68371" rx="0.6033" ry="0.91064" transform="translate(-1003.20352 -204.82762) rotate(-20.38453)"/><ellipse class="cls-3" cx="883.76535" cy="575.86994" rx="0.54886" ry="0.82847" transform="translate(-983.65767 -273.97109) rotate(-16.40428)"/><path class="cls-6" d="M876.63712,577.069a3.05365,3.05365,0,0,1,1.86682-1.753" transform="translate(-857 -547)"/><path class="cls-6" d="M883.01162,574.1322s.76737-.13061,1.08263.19678" transform="translate(-857 -547)"/><path class="cls-7" d="M881.46425,577.42147a9.56935,9.56935,0,0,0,.56915,1.73022s.728-.53031,1.13559.0394a.75262.75262,0,0,1-.316,1.16721" transform="translate(-857 -547)"/><path class="cls-6" d="M881.34145,583.52661a2.23769,2.23769,0,0,0,2.68941-.48871" transform="translate(-857 -547)"/><path class="cls-3" d="M925.26074,564.84375h3.875v2.625h-10.9751v-2.625h3.9004V553.36914l-3.625,2.17481v-2.875l4.9497-3h1.875Z" transform="translate(-857 -547)"/></svg>