<svg id="Layer_1" data-name="Layer 1" xmlns="http://www.w3.org/2000/svg" viewBox="0 0 83 74"><defs><style>.cls-1,.cls-2,.cls-4{fill:none;}.cls-2{stroke:#3c435c;stroke-linecap:round;stroke-linejoin:round;stroke-width:1.27931px;}.cls-3{fill:#c0ddf7;}.cls-4{stroke:#2f3342;stroke-miterlimit:10;stroke-width:1.3px;}.cls-5{fill:#2f3342;}</style></defs><title>steps_2_sb</title><rect class="cls-1" width="83" height="74"/><path class="cls-2" d="M997.258,553.135" transform="translate(-857 -547)"/><path class="cls-3" d="M903.08556,569.36121a9.48,9.48,0,0,0-4.79459,1.29322,9.52737,9.52737,0,0,0-14.32,8.23249c0,6.17545,7.83059,11.92091,11.9097,14.496-.00581-.44134-.00878-.88-.02215-1.30186a18.52293,18.52293,0,0,1,.36152-4.469,1.21641,1.21641,0,0,1,1.28836-1.02582,1.37171,1.37171,0,0,1,.79732-.23714,1.30242,1.30242,0,0,1,1.09712.53046,1.43448,1.43448,0,0,1,.72966,1.15061,31.09892,31.09892,0,0,1,.08225,5.64606c3.90341-2.42221,12.39722-8.42318,12.39722-14.78932A9.526,9.526,0,0,0,903.08556,569.36121Z" transform="translate(-857 -547)"/><path class="cls-4" d="M912.71369,609.35539a.23373.23373,0,0,0-.01908.06357c-.03815.23427-.09047.46853-.14721.72578a22.0298,22.0298,0,0,1-1.60951,4.74245.17472.17472,0,0,0-.01859.04647l-.01473.03084a4.89554,4.89554,0,0,1-4.42325,2.75829h-6.562a4.97966,4.97966,0,0,1-4.23013-2.35231l-6.33858-10.2054a.19418.19418,0,0,0-.00831-.02152l-.047-.07091a1.49488,1.49488,0,0,1-.14526-.23035l-.022-.03521a1.609,1.609,0,0,1-.18173-.81176,1.67833,1.67833,0,0,1,1.61253-1.59817,1.62692,1.62692,0,0,1,1.04337.33238,1.37878,1.37878,0,0,1,.25383.23035l.01125.0088.00782.01027,3.37064,3.05959a.24616.24616,0,0,0,.03716.023.19311.19311,0,0,0,.12716.04059.2425.2425,0,0,0,.09635-.02l.00978-.00636a.24445.24445,0,0,0,.07091-.05086l.0044-.00294a.1763.1763,0,0,0,.01712-.02934.227.227,0,0,0,.02886-.04793.20477.20477,0,0,0,.01027-.05086.22688.22688,0,0,0,.00733-.03619V588.78484l-.001-.00636a2.202,2.202,0,0,1,4.404,0l-.00147.00636v12.78464a.24454.24454,0,0,0,.48907,0v-3.8059l.002-.00881a1.93673,1.93673,0,0,1,3.87339,0v3.15447a.24454.24454,0,0,0,.48907,0v-1.86578a2.02485,2.02485,0,0,1,4.04505,0l.001.00489v1.36058l-.001.00978.001.00489v1.40313a.24453.24453,0,1,0,.48906,0v-1.4178a1.82372,1.82372,0,1,1,3.64207.00978V605.439A22.17878,22.17878,0,0,1,912.71369,609.35539Z" transform="translate(-857 -547)"/><path class="cls-4" d="M874.18405,571.86028a13.92561,13.92561,0,0,0-3.93163,1.06032,13.92184,13.92184,0,0,0-3.93123-1.06032,7.81124,7.81124,0,0,0-7.81127,7.81124c0,6.84588,11.7425,13.05344,11.7425,13.05344s11.74328-6.27691,11.74328-13.05344A7.81157,7.81157,0,0,0,874.18405,571.86028Z" transform="translate(-857 -547)"/><path class="cls-4" d="M930.47843,571.86028a13.92561,13.92561,0,0,0-3.93163,1.06032,13.92184,13.92184,0,0,0-3.93123-1.06032,7.81124,7.81124,0,0,0-7.81127,7.81124c0,6.84588,11.7425,13.05344,11.7425,13.05344s11.74328-6.27691,11.74328-13.05344A7.81157,7.81157,0,0,0,930.47843,571.86028Z" transform="translate(-857 -547)"/><path class="cls-5" d="M929.63755,564.84473v2.625h-11.9502v-2.375l6.0503-6.52539a10.25352,10.25352,0,0,0,1.5747-2.14942,4.19539,4.19539,0,0,0,.5-1.92578,2.32946,2.32946,0,0,0-.7124-1.84961,2.99894,2.99894,0,0,0-2.0376-.625,8.10622,8.10622,0,0,0-4.8247,1.84961l-1.0752-2.34961a7.65306,7.65306,0,0,1,2.7002-1.51269,10.24072,10.24072,0,0,1,3.3247-.5625,6.382,6.382,0,0,1,4.2378,1.3125,4.38415,4.38415,0,0,1,1.5625,3.53808,6.44527,6.44527,0,0,1-.6626,2.875,13.3217,13.3217,0,0,1-2.2124,3.02442l-4.375,4.65039Z" transform="translate(-857 -547)"/></svg>