<svg id="Layer_1" data-name="Layer 1" xmlns="http://www.w3.org/2000/svg" viewBox="0 0 81.2223 70.5688"><title>steps_1_sb</title><path d="M906.181,589.9692a18.3351,18.3351,0,0,1,3.2283-.5366c.121-.0185.24-.0434.3628-.0547a15.2388,15.2388,0,0,0,3.0025-.6338,14.7459,14.7459,0,0,1,4.6064-7.3579c4.8021-4.1562,10.2085-2.4165,15.6763-1.3716a29.5131,29.5131,0,0,0-47.9866-15.2036l.0081.0127c2.88,5.5738,12.4935,10.7129,8.934,18.2725a11.6411,11.6411,0,0,1-6.7226,5.8706,5.9646,5.9646,0,0,1-3.7454,1.4482,12.9656,12.9656,0,0,1-3.4448.7818c-.014.05-.0275.1015-.0411.1523A19.554,19.554,0,0,1,885,592.8853a7.31,7.31,0,0,1,2.2944,2.9521s.3374,1.0967-3.4079.0674-3.6944,1.6362-6.1744,1.4c-.7314-.07-.7314.6113-.3821,1.5942A29.5026,29.5026,0,0,0,919.1115,612.7a9.2291,9.2291,0,0,1-7.9842-1.4458c-1.24-1.0342-2.8051-2.5957-2.5312-4.36a2.9334,2.9334,0,0,1,2.0708-2.3281,4.632,4.632,0,0,1,.9808-1.6514l-.0188-.0327a18.0406,18.0406,0,0,1-2.5716-1.1284,12.4133,12.4133,0,0,1-3.9629-4.2246,4.9036,4.9036,0,0,1-.3051-4.7876c-.0245-.064-.0554-.123-.0741-.1909A2.1233,2.1233,0,0,1,906.181,589.9692Z" transform="translate(-857.712 -546.0693)" style="fill:#bbc2db"/><ellipse cx="915.3654" cy="602.7035" rx="0.9637" ry="0.4819" transform="translate(-928.8724 -420.7673) rotate(-7.5387)" style="fill:#3c435c"/><path d="M911.4425,602.3641l-1.6521-.5079c-5.4887-2.1592-5.3441-7.3384-5.1249-10.2782.2505-3.36,7.3941-1.2868,8.3209-3.7233s4.1076-9.8786,12.055-9.7049a15.2733,15.2733,0,0,1,9.74,3.4715c2.3552,2.1383,3.3686,6.4557,3.1018,9.7136a16.497,16.497,0,0,1-5.7113,11.5133c-2.9382,2.4107-7.7711,1.9719-8.4141-1.5994" transform="translate(-857.712 -546.0693)" style="fill:none;stroke:#3c435c;stroke-linecap:round;stroke-linejoin:round;stroke-width:1.27931036927861px"/><path d="M924.1916,596.1044c.9885-1.7593,3.9642-3.6534,5.1275-4.8353,3.3736-3.4274.1418-5.6.1418-5.6M904.6655,593.33s1.6059.4978,2.1475-.7392a5.4059,5.4059,0,0,0,.3792-2.5382m13.2708-2.8083a2.7213,2.7213,0,0,1,2.8734-.328m-3.6609,11.4354s-5.1269-1.0432-7.3251,1.6109c-.9163,1.1059.3055,3.68-2.8638,5.2841-1.363.69-.9866,2.9667-.9866,2.9667s2.3428,3.1076,3.5694,3.7993c3.1128,1.7552,7.6726,1.2808,8.8284.1627m-1.654-13.1111a10.9757,10.9757,0,0,1,3.4488-4.2573.7127.7127,0,0,1,1.0675.3411c2.0548,5.4864-2.2294,9.3829-2.2294,9.3829m-8.0417,2.051a4.3042,4.3042,0,0,1,3.932-.6677m-3.4954,2.4956a7.9137,7.9137,0,0,1,5.8755,2.0577" transform="translate(-857.712 -546.0693)" style="fill:none;stroke:#3c435c;stroke-linecap:round;stroke-linejoin:round;stroke-width:1.27931036927861px"/><path d="M893.2232,570.7461h9.1713l2.4512-4.2393,3.2784,8.4951,1.5529-4.2788h6.0242m4.1935.0062h-1.0969" transform="translate(-857.712 -546.0693)" style="fill:none;stroke:#3c435c;stroke-linecap:round;stroke-linejoin:round;stroke-width:1.27931036927861px"/><path d="M881.5293,591.3288a32.8523,32.8523,0,0,0,4.9132-1.5782c6.0285-2.5668,12.911-8.3606,5.0956-17.6443-1.277-1.5172-4.0388-3.2461-4.67-4.5258-2.062-4.1822-4.7913-6.3593-9.9085-6.0295-6.4089.0678-9.4828,2.4883-11.2391,9.1233S855.7,579.9917,859.2117,588.95c1.3574,3.461,5.5105,4.4722,10.1817,4.37" transform="translate(-857.712 -546.0693)" style="fill:none;stroke:#3c435c;stroke-linecap:round;stroke-linejoin:round;stroke-width:1.27931036927861px"/><path d="M879.749,590.8611s4.3916,1.1469,5.64,2.0394c1.0363.74,1.8305,1.3628,1.8443,2.7587" transform="translate(-857.712 -546.0693)" style="fill:none;stroke:#3c435c;stroke-linecap:round;stroke-linejoin:round;stroke-width:1.27931036927861px"/><path d="M867.4068,595.749c2.1988-4.1045,7.2226-4.9312,7.2226-4.9312h0a18.4068,18.4068,0,0,0,.6244-4.3542" transform="translate(-857.712 -546.0693)" style="fill:none;stroke:#3c435c;stroke-linecap:round;stroke-linejoin:round;stroke-width:1.27931036927861px;fill-rule:evenodd"/><path d="M875.7155,592.9578l2.428,2.5893,1.4321-4.6426s-.7531-.7074-.3191-3.1371" transform="translate(-857.712 -546.0693)" style="fill:none;stroke:#3c435c;stroke-linecap:round;stroke-linejoin:round;stroke-width:1.27931036927861px"/><path d="M874.5868,570.544c-2.1553.77-3.2447,1.516-3.0945,5.88-1.0066.1638-2.8716.6957-2.7586,2.7485.11,2.01,1.27,2.588,2.9554,2.74a8.45,8.45,0,0,0,7.8451,5.8764c4.78.2184,7.4736-3.3363,7.5156-8.0334.0332-3.7077-2.3709-8.5652-3.3853-10.4473a.5731.5731,0,0,0-.9509-.0816,10.0143,10.0143,0,0,1-4.4827,3.1571.3406.3406,0,0,1-.3948-.5092c2.7371-4.1015-1.127-4.788-1.127-4.788s0,2.6989-2.1223,3.4572Z" transform="translate(-857.712 -546.0693)" style="fill:none;stroke:#3c435c;stroke-linecap:round;stroke-linejoin:round;stroke-width:1.27931036927861px"/><path d="M875.0626,566.9123a4.4056,4.4056,0,0,1,2.8447.7024" transform="translate(-857.712 -546.0693)" style="fill:none;stroke:#3c435c;stroke-linecap:round;stroke-linejoin:round;stroke-width:1.27931036927861px"/><ellipse cx="878.4926" cy="577.6837" rx="0.6033" ry="0.9106" transform="matrix(0.9374, -0.3483, 0.3483, 0.9374, -1003.9155, -203.897)" style="fill:#3c435c"/><ellipse cx="883.7654" cy="575.8699" rx="0.5489" ry="0.8285" transform="translate(-984.3697 -273.0404) rotate(-16.4043)" style="fill:#3c435c"/><path d="M876.6371,577.069a3.0536,3.0536,0,0,1,1.8668-1.753" transform="translate(-857.712 -546.0693)" style="fill:none;stroke:#3c435c;stroke-linecap:round;stroke-linejoin:round"/><path d="M883.0116,574.1322s.7674-.1306,1.0827.1968" transform="translate(-857.712 -546.0693)" style="fill:none;stroke:#3c435c;stroke-linecap:round;stroke-linejoin:round"/><path d="M881.4643,577.4215a9.5676,9.5676,0,0,0,.5691,1.73s.728-.53,1.1356.0394a.7526.7526,0,0,1-.316,1.1672" transform="translate(-857.712 -546.0693)" style="fill:none;stroke:#3c435c;stroke-linecap:round;stroke-linejoin:round;stroke-width:0.8px"/><path d="M881.3415,583.5266a2.2377,2.2377,0,0,0,2.6894-.4887" transform="translate(-857.712 -546.0693)" style="fill:none;stroke:#3c435c;stroke-linecap:round;stroke-linejoin:round"/><text transform="translate(57.6489 21.3996)" style="font-size:25px;fill:#3c435c;font-family:Muli-Bold, Muli;font-weight:700">1</text></svg>