<svg id="Layer_1" data-name="Layer 1" xmlns="http://www.w3.org/2000/svg" viewBox="0 0 81.0821 70.30934"><title>steps_2_sb</title><path d="M879.53421,587.78918" transform="translate(-857.56396 -546.06934)" fill="none" stroke="#3c435c" stroke-linecap="round" stroke-linejoin="round" stroke-width="1.27931"/><path d="M902.73039,567.90918a9.14891,9.14891,0,0,0-4.62711,1.248,9.19457,9.19457,0,0,0-13.8198,7.94491c0,5.95973,7.55706,11.50449,11.49367,13.98962-.0056-.42592-.00847-.84923-.02137-1.25638a17.876,17.876,0,0,1,.34889-4.31288,1.17392,1.17392,0,0,1,1.24335-.99,1.32381,1.32381,0,0,1,.76947-.22886,1.25693,1.25693,0,0,1,1.0588.51193,1.38436,1.38436,0,0,1,.70417,1.11041,30.01187,30.01187,0,0,1,.07937,5.44884c3.76706-2.3376,11.96417-8.12894,11.96417-14.2727A9.19325,9.19325,0,0,0,902.73039,567.90918Z" transform="translate(-857.56396 -546.06934)" fill="#bbc2db"/><path d="M913.103,607.2505a.23686.23686,0,0,0-.01931.06438c-.03863.2372-.09161.4744-.14906.73487a22.30631,22.30631,0,0,1-1.62968,4.8019.17631.17631,0,0,0-.01882.04705l-.01492.03122a4.95689,4.95689,0,0,1-4.4787,2.79287h-6.64428a5.04207,5.04207,0,0,1-4.28314-2.38179l-6.418-10.33332a.19835.19835,0,0,0-.00842-.02179l-.04754-.07181a1.5114,1.5114,0,0,1-.14707-.23323l-.02229-.03566a1.62905,1.62905,0,0,1-.184-.82192,1.69937,1.69937,0,0,1,1.63274-1.61821,1.64732,1.64732,0,0,1,1.05645.33655,1.3962,1.3962,0,0,1,.257.23324l.01139.00891.00792.0104,3.41288,3.09794a.24867.24867,0,0,0,.03764.02327.19557.19557,0,0,0,.12875.0411.24549.24549,0,0,0,.09755-.0203l.0099-.00644a.24752.24752,0,0,0,.07181-.0515l.00445-.003a.179.179,0,0,0,.01734-.02971.2298.2298,0,0,0,.02921-.04853.20719.20719,0,0,0,.0104-.0515.2289.2289,0,0,0,.00743-.03665V586.42212l-.001-.00644a2.22962,2.22962,0,0,1,4.45923,0l-.00149.00644V599.367a.2476.2476,0,0,0,.4952,0V595.5134l.002-.00891a1.961,1.961,0,0,1,3.92194,0v3.194a.2476.2476,0,1,0,.49519,0v-1.88917a2.05023,2.05023,0,0,1,4.09576,0l.001.005v1.37763l-.001.0099.001.005v1.42072a.2476.2476,0,0,0,.49519,0v-1.43557a1.84658,1.84658,0,1,1,3.68772.0099V603.285A22.45509,22.45509,0,0,1,913.103,607.2505Z" transform="translate(-857.56396 -546.06934)" fill="none" stroke="#3c435c" stroke-miterlimit="10" stroke-width="1.31177"/><path d="M931.09261,570.96219a6.91346,6.91346,0,0,1-6.95267,0,6.907,6.907,0,0,0-6.90705,6.907c0,6.05342,10.38321,11.5424,10.38321,11.5424S938,583.86131,938,577.86922A6.90732,6.90732,0,0,0,931.09261,570.96219Z" transform="translate(-857.56396 -546.06934)" fill="none" stroke="#3c435c" stroke-linecap="round" stroke-linejoin="round" stroke-width="1.29211"/><path d="M872.07957,570.96219a6.91346,6.91346,0,0,1-6.95267,0,6.907,6.907,0,0,0-6.90705,6.907c0,6.05342,10.38321,11.5424,10.38321,11.5424s10.3839-5.55031,10.3839-11.5424A6.90732,6.90732,0,0,0,872.07957,570.96219Z" transform="translate(-857.56396 -546.06934)" fill="none" stroke="#3c435c" stroke-miterlimit="10" stroke-width="1.31177"/><text transform="translate(57.4453 21.40012)" font-size="25" fill="#3c435c" font-family="Muli-Bold, Muli" font-weight="700">2</text></svg>