<svg id="Layer_1" data-name="Layer 1" xmlns="http://www.w3.org/2000/svg" viewBox="0 0 79.58267 70.57672"><title>steps_3_sb</title><path d="M879.53421,587.78918" transform="translate(-859 -546.06934)" fill="none" stroke="#3c435c" stroke-linecap="round" stroke-linejoin="round" stroke-width="1.27931"/><text transform="translate(56.00926 21.40012)" font-size="25" fill="#3c435c" font-family="Muli-Bold, Muli" font-weight="700">3</text><path d="M925,608.80764c0,.90762-.88818,1.7117-2.19823,1.9904-5.03345,1.07062-17.46237,3.714-23.98414,5.1009a4.56422,4.56422,0,0,1-2.84049-.29964,1.99775,1.99775,0,0,1-1.30495-1.69075V568.26421a1.99813,1.99813,0,0,1,1.30495-1.69076,4.56421,4.56421,0,0,1,2.84049-.29953c6.52144,1.387,18.95069,4.03028,23.98414,5.101,1.31.27849,2.19823,1.08257,2.19823,1.9904v35.44231Z" transform="translate(-859 -546.06934)" fill="none" stroke="#3c435c" stroke-linecap="round" stroke-linejoin="round" stroke-width="1.29211"/><path d="M865.43189,597.42938v12.9009h23.40953c.60885,0,1.10265-.32558,1.10265-.727v-1.41672c0-.40166-.4938-.72724-1.10265-.72724h-18.5726V597.42938m-.00033-12.90111v-9.81481h18.5726c.60918,0,1.10265-.32558,1.10265-.72713V572.5695c0-.40134-.49347-.72692-1.10265-.72692H865.4314v12.68569" transform="translate(-859 -546.06934)" fill="none" stroke="#3c435c" stroke-linecap="round" stroke-linejoin="round" stroke-width="1.29211"/><path d="M875.08978,587.88752c0,.48935-.60178.88581-1.34379.88581H860.34363a1.75305,1.75305,0,0,0-.94991.25959.77238.77238,0,0,0-.39372.62632v2.63483a.7722.7722,0,0,0,.39372.62621,1.75215,1.75215,0,0,0,.94991.2597H873.746c.742,0,1.34379.39645,1.34379.8857v1.46469a.90071.90071,0,0,0,.67173.76729,1.96011,1.96011,0,0,0,1.34379-.00022l11.95651-4.554a.77392.77392,0,0,0,0-1.53425c-3.06961-1.16906-8.88607-3.384-11.95651-4.55361a1.96139,1.96139,0,0,0-1.34379,0,.90035.90035,0,0,0-.67173.76708v1.4649Z" transform="translate(-859 -546.06934)" fill="#bbc2db"/></svg>