<svg id="Layer_1" data-name="Layer 1" xmlns="http://www.w3.org/2000/svg" viewBox="0 0 80.78015 66.93434"><defs><style>.cls-1,.cls-3,.cls-4{fill:none;stroke:#3c435c;}.cls-1{stroke-linecap:round;stroke-linejoin:round;stroke-width:1.27931px;}.cls-2{fill:#bbc2db;}.cls-3,.cls-4{stroke-miterlimit:10;}.cls-3{stroke-width:1.31177px;}.cls-5{fill:#3c435c;}</style></defs><title>steps_2_sb</title><path class="cls-1" d="M880.258,588.135" transform="translate(-857.71985 -549.44434)"/><path class="cls-2" d="M902.79548,567.36121a9.48,9.48,0,0,0-4.79459,1.29322,9.52737,9.52737,0,0,0-14.32,8.23249c0,6.17545,7.83059,11.92091,11.9097,14.496-.00581-.44134-.00878-.88-.02215-1.30186a18.52243,18.52243,0,0,1,.36153-4.469,1.2164,1.2164,0,0,1,1.28835-1.02582,1.37173,1.37173,0,0,1,.79732-.23714,1.30241,1.30241,0,0,1,1.09712.53046,1.43451,1.43451,0,0,1,.72967,1.15061,31.09982,31.09982,0,0,1,.08224,5.64606c3.90341-2.42221,12.39722-8.42318,12.39722-14.78932A9.526,9.526,0,0,0,902.79548,567.36121Z" transform="translate(-857.71985 -549.44434)"/><path class="cls-3" d="M912.42361,607.35539a.23373.23373,0,0,0-.01908.06357c-.03814.23427-.09047.46853-.1472.72578a22.03036,22.03036,0,0,1-1.60952,4.74245.17436.17436,0,0,0-.01858.04647l-.01474.03084a4.89554,4.89554,0,0,1-4.42325,2.75829h-6.562a4.97964,4.97964,0,0,1-4.23012-2.35231l-6.33858-10.2054a.19627.19627,0,0,0-.00832-.02152l-.047-.07091a1.4941,1.4941,0,0,1-.14525-.23035l-.022-.03521a1.609,1.609,0,0,1-.18173-.81176,1.67835,1.67835,0,0,1,1.61253-1.59817,1.627,1.627,0,0,1,1.04338.33238,1.37907,1.37907,0,0,1,.25382.23035l.01125.0088.00783.01027,3.37063,3.05959a.24625.24625,0,0,0,.03717.023.19311.19311,0,0,0,.12716.04059.24245.24245,0,0,0,.09634-.02l.00978-.00636a.24463.24463,0,0,0,.07092-.05086l.0044-.00294a.17625.17625,0,0,0,.01711-.02934.227.227,0,0,0,.02886-.04793.20432.20432,0,0,0,.01027-.05086.22578.22578,0,0,0,.00733-.03619V586.78484l-.001-.00636a2.202,2.202,0,0,1,4.404,0l-.00146.00636v12.78464a.24453.24453,0,1,0,.48906,0v-3.8059l.002-.00881a1.93673,1.93673,0,0,1,3.87339,0v3.15447a.24453.24453,0,0,0,.48906,0v-1.86578a2.02485,2.02485,0,0,1,4.04506,0l.001.00489v1.36058l-.001.00978.001.00489v1.40313a.24454.24454,0,0,0,.48907,0v-1.4178a1.82372,1.82372,0,1,1,3.64206.00978V603.439A22.17784,22.17784,0,0,1,912.42361,607.35539Z" transform="translate(-857.71985 -549.44434)"/><path class="cls-4" d="M873.894,569.86028a13.92561,13.92561,0,0,0-3.93163,1.06032,13.92184,13.92184,0,0,0-3.93123-1.06032,7.81124,7.81124,0,0,0-7.81126,7.81124c0,6.84588,11.74249,13.05344,11.74249,13.05344s11.74328-6.27691,11.74328-13.05344A7.81157,7.81157,0,0,0,873.894,569.86028Z" transform="translate(-857.71985 -549.44434)"/><path class="cls-4" d="M930.18835,569.86028a13.92572,13.92572,0,0,0-3.93163,1.06032,13.92173,13.92173,0,0,0-3.93123-1.06032,7.81124,7.81124,0,0,0-7.81126,7.81124c0,6.84588,11.74249,13.05344,11.74249,13.05344S938,584.44805,938,577.67152A7.81157,7.81157,0,0,0,930.18835,569.86028Z" transform="translate(-857.71985 -549.44434)"/><path class="cls-5" d="M929.73438,564.84473v2.625h-11.9502v-2.375l6.05029-6.52539a10.254,10.254,0,0,0,1.57471-2.14942,4.19539,4.19539,0,0,0,.5-1.92578,2.32946,2.32946,0,0,0-.7124-1.84961,2.99894,2.99894,0,0,0-2.0376-.625,8.10627,8.10627,0,0,0-4.82471,1.84961l-1.07519-2.34961a7.653,7.653,0,0,1,2.70019-1.51269,10.24078,10.24078,0,0,1,3.32471-.5625,6.382,6.382,0,0,1,4.23779,1.3125,4.38412,4.38412,0,0,1,1.5625,3.53808,6.4454,6.4454,0,0,1-.66259,2.875,13.32148,13.32148,0,0,1-2.21241,3.02442l-4.375,4.65039Z" transform="translate(-857.71985 -549.44434)"/></svg>